0, 0, Header, 1, 3, 1024
1, 0, Start_track
1, 0, SMPTE_offset, 0, 0, 0, 0, 0
1, 0, Time_signature, 4, 2, 24, 8
1, 0, Key_signature, -1, "minor"
1, 0, Tempo, 499999
1, 0, Tempo, 416667
1, 0, Tempo, 416771
1, 43008, Tempo, 416771
1, 43264, Tempo, 419674
1, 43520, Tempo, 421054
1, 43776, Tempo, 424195
1, 44032, Tempo, 425604
1, 44288, Tempo, 428633
1, 44544, Tempo, 430254
1, 44800, Tempo, 431704
1, 45312, Tempo, 416771
1, 61440, Time_signature, 6, 2, 24, 8
1, 64512, Tempo, 416771
1, 64914, Tempo, 418132
1, 65316, Tempo, 419674
1, 65718, Tempo, 421054
1, 66120, Tempo, 421054
1, 66522, Tempo, 422619
1, 66924, Tempo, 424195
1, 67326, Tempo, 424195
1, 67584, Time_signature, 4, 2, 24, 8
1, 67584, Tempo, 416771
1, 77824, Tempo, 416771
1, 78080, Tempo, 419674
1, 78336, Tempo, 421054
1, 78592, Tempo, 424195
1, 78848, Tempo, 425604
1, 79104, Tempo, 428633
1, 79360, Tempo, 430254
1, 79616, Tempo, 431704
1, 80128, Tempo, 416771
1, 98304, Tempo, 416771
1, 98560, Tempo, 418132
1, 98816, Tempo, 419674
1, 99072, Tempo, 421054
1, 99328, Tempo, 421054
1, 99584, Tempo, 422619
1, 99840, Tempo, 424195
1, 100096, Tempo, 424195
1, 100352, Tempo, 416771
1, 102400, Tempo, 416771
1, 102656, Tempo, 418132
1, 102912, Tempo, 419674
1, 103168, Tempo, 421054
1, 103424, Tempo, 421054
1, 103680, Tempo, 422619
1, 103936, Tempo, 424195
1, 104192, Tempo, 424195
1, 104448, Tempo, 416771
1, 106496, Tempo, 416771
1, 106752, Tempo, 418132
1, 107008, Tempo, 419674
1, 107264, Tempo, 421054
1, 107520, Tempo, 421054
1, 107776, Tempo, 422619
1, 108032, Tempo, 424195
1, 108288, Tempo, 424195
1, 108544, Tempo, 416771
1, 110592, Tempo, 416771
1, 110848, Tempo, 419674
1, 111104, Tempo, 421054
1, 111360, Tempo, 424195
1, 111616, Tempo, 425604
1, 111872, Tempo, 428633
1, 112128, Tempo, 430254
1, 112384, Tempo, 431704
1, 112896, Tempo, 416771
1, 131072, Tempo, 416771
1, 131328, Tempo, 418132
1, 131584, Tempo, 419674
1, 131840, Tempo, 421054
1, 132096, Tempo, 421054
1, 132352, Tempo, 422619
1, 132608, Tempo, 424195
1, 132864, Tempo, 424195
1, 133120, Tempo, 416771
1, 135168, Tempo, 416771
1, 135424, Tempo, 418132
1, 135680, Tempo, 419674
1, 135936, Tempo, 421054
1, 136192, Tempo, 421054
1, 136448, Tempo, 422619
1, 136704, Tempo, 424195
1, 136960, Tempo, 424195
1, 137216, Tempo, 416771
1, 139264, Tempo, 416771
1, 139520, Tempo, 419674
1, 139776, Tempo, 421054
1, 140032, Tempo, 424195
1, 140288, Tempo, 425604
1, 140544, Tempo, 428633
1, 140800, Tempo, 430254
1, 141056, Tempo, 431704
1, 141568, Tempo, 416771
1, 149496, Tempo, 434784
1, 149504, Tempo, 434820
1, 165888, Key_signature, 0, "minor"
1, 184320, Tempo, 434820
1, 184576, Tempo, 437982
1, 184832, Tempo, 439675
1, 185088, Tempo, 442907
1, 185344, Tempo, 444447
1, 185600, Tempo, 447945
1, 185856, Tempo, 449517
1, 186112, Tempo, 451301
1, 186624, Tempo, 434820
1, 237569, Tempo, 434820
1, 237861, Tempo, 451301
1, 238153, Tempo, 468867
1, 238445, Tempo, 487852
1, 238737, Tempo, 508697
1, 239029, Tempo, 531122
1, 239321, Tempo, 555620
1, 243217, End_track
2, 0, Start_track
2, 0, Unknown_meta_event, 9, 26, 50, 45, 32, 84, 65, 83, 67, 65, 77, 32, 85, 83, 45, 49, 50, 50, 32, 77, 75, 73, 73, 32, 77, 73, 68, 73
2, 0, Title_t, "Klavier"
2, 0, Program_c, 0, 0
2, 0, Control_c, 0, 7, 111
2, 0, Control_c, 0, 10, 64
2, 0, Control_c, 0, 7, 120
2, 10, Note_on_c, 0, 62, 72
2, 10, Note_on_c, 0, 69, 86
2, 515, Note_off_c, 0, 62, 0
2, 545, Note_off_c, 0, 69, 0
2, 546, Note_on_c, 0, 65, 67
2, 546, Note_on_c, 0, 74, 81
2, 1023, Note_off_c, 0, 65, 0
2, 1053, Note_off_c, 0, 74, 0
2, 1054, Note_on_c, 0, 69, 68
2, 1054, Note_on_c, 0, 77, 82
2, 1528, Note_off_c, 0, 69, 0
2, 1558, Note_off_c, 0, 77, 0
2, 1559, Note_on_c, 0, 74, 67
2, 1559, Note_on_c, 0, 81, 81
2, 2578, Note_off_c, 0, 74, 0
2, 2578, Note_off_c, 0, 81, 0
2, 2579, Note_on_c, 0, 69, 67
2, 2579, Note_on_c, 0, 77, 81
2, 3053, Note_off_c, 0, 69, 0
2, 3083, Note_off_c, 0, 77, 0
2, 3084, Note_on_c, 0, 74, 68
2, 3084, Note_on_c, 0, 81, 82
2, 3558, Note_off_c, 0, 74, 0
2, 3588, Note_off_c, 0, 81, 0
2, 3589, Note_on_c, 0, 69, 75
2, 4095, Note_off_c, 0, 69, 0
2, 4100, Note_on_c, 0, 61, 72
2, 4100, Note_on_c, 0, 69, 86
2, 4611, Note_off_c, 0, 61, 0
2, 4641, Note_off_c, 0, 69, 0
2, 4642, Note_on_c, 0, 65, 67
2, 4642, Note_on_c, 0, 73, 81
2, 5119, Note_off_c, 0, 65, 0
2, 5149, Note_off_c, 0, 73, 0
2, 5150, Note_on_c, 0, 69, 68
2, 5150, Note_on_c, 0, 77, 82
2, 5624, Note_off_c, 0, 69, 0
2, 5654, Note_off_c, 0, 77, 0
2, 5655, Note_on_c, 0, 73, 67
2, 5655, Note_on_c, 0, 81, 81
2, 6674, Note_off_c, 0, 73, 0
2, 6674, Note_off_c, 0, 81, 0
2, 6675, Note_on_c, 0, 69, 67
2, 6675, Note_on_c, 0, 77, 81
2, 7149, Note_off_c, 0, 69, 0
2, 7179, Note_off_c, 0, 77, 0
2, 7180, Note_on_c, 0, 73, 68
2, 7180, Note_on_c, 0, 81, 82
2, 7654, Note_off_c, 0, 73, 0
2, 7684, Note_off_c, 0, 81, 0
2, 7685, Note_on_c, 0, 69, 75
2, 8191, Note_off_c, 0, 69, 0
2, 8196, Note_on_c, 0, 60, 72
2, 8196, Note_on_c, 0, 69, 86
2, 8707, Note_off_c, 0, 60, 0
2, 8737, Note_off_c, 0, 69, 0
2, 8738, Note_on_c, 0, 64, 67
2, 8738, Note_on_c, 0, 72, 81
2, 9215, Note_off_c, 0, 64, 0
2, 9245, Note_off_c, 0, 72, 0
2, 9246, Note_on_c, 0, 69, 68
2, 9246, Note_on_c, 0, 77, 82
2, 9720, Note_off_c, 0, 69, 0
2, 9750, Note_off_c, 0, 77, 0
2, 9751, Note_on_c, 0, 72, 67
2, 9751, Note_on_c, 0, 81, 81
2, 10770, Note_off_c, 0, 72, 0
2, 10770, Note_off_c, 0, 81, 0
2, 10771, Note_on_c, 0, 69, 67
2, 10771, Note_on_c, 0, 77, 81
2, 11245, Note_off_c, 0, 69, 0
2, 11275, Note_off_c, 0, 77, 0
2, 11276, Note_on_c, 0, 72, 68
2, 11276, Note_on_c, 0, 81, 82
2, 11750, Note_off_c, 0, 72, 0
2, 11780, Note_off_c, 0, 81, 0
2, 11781, Note_on_c, 0, 69, 75
2, 12257, Note_off_c, 0, 69, 0
2, 12292, Note_on_c, 0, 62, 91
2, 12292, Note_on_c, 0, 71, 105
2, 12803, Note_off_c, 0, 62, 0
2, 12833, Note_off_c, 0, 71, 0
2, 12834, Note_on_c, 0, 59, 75
2, 13311, Note_off_c, 0, 59, 0
2, 13342, Note_on_c, 0, 67, 87
2, 13342, Note_on_c, 0, 74, 101
2, 13816, Note_off_c, 0, 67, 0
2, 13846, Note_off_c, 0, 74, 0
2, 13847, Note_on_c, 0, 62, 75
2, 14326, Note_off_c, 0, 62, 0
2, 14357, Note_on_c, 0, 71, 89
2, 14357, Note_on_c, 0, 79, 103
2, 14836, Note_off_c, 0, 71, 0
2, 14866, Note_off_c, 0, 79, 0
2, 14867, Note_on_c, 0, 67, 75
2, 15341, Note_off_c, 0, 67, 0
2, 15372, Note_on_c, 0, 74, 87
2, 15372, Note_on_c, 0, 83, 101
2, 15846, Note_off_c, 0, 74, 0
2, 15876, Note_off_c, 0, 83, 0
2, 15877, Note_on_c, 0, 71, 75
2, 16353, Note_off_c, 0, 71, 0
2, 16388, Note_on_c, 0, 62, 91
2, 16388, Note_on_c, 0, 74, 105
2, 16930, Note_on_c, 0, 70, 75
2, 17407, Note_off_c, 0, 70, 0
2, 17438, Note_on_c, 0, 65, 76
2, 17912, Note_off_c, 0, 65, 0
2, 17942, Note_off_c, 0, 62, 0
2, 17942, Note_off_c, 0, 74, 0
2, 17943, Note_on_c, 0, 62, 75
2, 18422, Note_off_c, 0, 62, 0
2, 18453, Note_on_c, 0, 64, 89
2, 18453, Note_on_c, 0, 76, 103
2, 18963, Note_on_c, 0, 70, 75
2, 19437, Note_off_c, 0, 70, 0
2, 19468, Note_on_c, 0, 65, 76
2, 19942, Note_off_c, 0, 65, 0
2, 19972, Note_off_c, 0, 64, 0
2, 19972, Note_off_c, 0, 76, 0
2, 19973, Note_on_c, 0, 64, 75
2, 20449, Note_off_c, 0, 64, 0
2, 20484, Note_on_c, 0, 65, 91
2, 20484, Note_on_c, 0, 77, 105
2, 21026, Note_on_c, 0, 72, 75
2, 21503, Note_off_c, 0, 72, 0
2, 21534, Note_on_c, 0, 69, 76
2, 22008, Note_off_c, 0, 69, 0
2, 22038, Note_off_c, 0, 65, 0
2, 22038, Note_off_c, 0, 77, 0
2, 22039, Note_on_c, 0, 65, 75
2, 22518, Note_off_c, 0, 65, 0
2, 22549, Note_on_c, 0, 67, 89
2, 22549, Note_on_c, 0, 79, 103
2, 23059, Note_on_c, 0, 72, 75
2, 23533, Note_off_c, 0, 72, 0
2, 23564, Note_on_c, 0, 69, 76
2, 24038, Note_off_c, 0, 69, 0
2, 24068, Note_off_c, 0, 67, 0
2, 24068, Note_off_c, 0, 79, 0
2, 24069, Note_on_c, 0, 67, 75
2, 24545, Note_off_c, 0, 67, 0
2, 24580, Note_on_c, 0, 69, 91
2, 24580, Note_on_c, 0, 81, 105
2, 25122, Note_on_c, 0, 74, 75
2, 25599, Note_off_c, 0, 74, 0
2, 25630, Note_on_c, 0, 70, 76
2, 26104, Note_off_c, 0, 70, 0
2, 26134, Note_off_c, 0, 69, 0
2, 26134, Note_off_c, 0, 81, 0
2, 26135, Note_on_c, 0, 69, 75
2, 26614, Note_off_c, 0, 69, 0
2, 26645, Note_on_c, 0, 70, 89
2, 26645, Note_on_c, 0, 82, 103
2, 27155, Note_on_c, 0, 79, 75
2, 27629, Note_off_c, 0, 79, 0
2, 27660, Note_on_c, 0, 74, 76
2, 28134, Note_off_c, 0, 74, 0
2, 28164, Note_off_c, 0, 70, 0
2, 28164, Note_off_c, 0, 82, 0
2, 28165, Note_on_c, 0, 70, 75
2, 28641, Note_off_c, 0, 70, 0
2, 28676, Note_on_c, 0, 73, 91
2, 28676, Note_on_c, 0, 85, 105
2, 29218, Note_on_c, 0, 81, 75
2, 29695, Note_off_c, 0, 81, 0
2, 29726, Note_on_c, 0, 76, 76
2, 30200, Note_off_c, 0, 76, 0
2, 30230, Note_off_c, 0, 73, 0
2, 30230, Note_off_c, 0, 85, 0
2, 30231, Note_on_c, 0, 73, 75
2, 30710, Note_off_c, 0, 73, 0
2, 30741, Note_on_c, 0, 76, 89
2, 30741, Note_on_c, 0, 88, 103
2, 31251, Note_on_c, 0, 85, 75
2, 31725, Note_off_c, 0, 85, 0
2, 31756, Note_on_c, 0, 81, 76
2, 32260, Note_off_c, 0, 76, 0
2, 32260, Note_off_c, 0, 88, 0
2, 32602, Note_on_c, 0, 58, 72
2, 32687, Note_on_c, 0, 62, 72
2, 32767, Note_off_c, 0, 81, 0
2, 32772, Note_on_c, 0, 69, 86
2, 33821, Note_off_c, 0, 58, 0
2, 33821, Note_off_c, 0, 62, 0
2, 33821, Note_off_c, 0, 69, 0
2, 33822, Note_on_c, 0, 65, 76
2, 34326, Note_off_c, 0, 65, 0
2, 34327, Note_on_c, 0, 65, 75
2, 35346, Note_off_c, 0, 65, 0
2, 35347, Note_on_c, 0, 62, 75
2, 35821, Note_off_c, 0, 62, 0
2, 35852, Note_on_c, 0, 65, 76
2, 36326, Note_off_c, 0, 65, 0
2, 36357, Note_on_c, 0, 64, 75
2, 37379, Note_off_c, 0, 64, 0
2, 37410, Note_on_c, 0, 65, 75
2, 37887, Note_off_c, 0, 65, 0
2, 37918, Note_on_c, 0, 67, 76
2, 39947, Note_off_c, 0, 67, 0
2, 39948, Note_on_c, 0, 62, 64
2, 40452, Note_off_c, 0, 62, 0
2, 40453, Note_on_c, 0, 62, 63
2, 40964, Note_on_c, 0, 60, 72
2, 40964, Note_on_c, 0, 64, 86
2, 40990, Note_off_c, 0, 62, 0
2, 42013, Note_off_c, 0, 60, 0
2, 42013, Note_off_c, 0, 64, 0
2, 42014, Note_on_c, 0, 60, 76
2, 42488, Note_off_c, 0, 60, 0
2, 42519, Note_on_c, 0, 67, 75
2, 43538, Note_off_c, 0, 67, 0
2, 43539, Note_on_c, 0, 60, 75
2, 44013, Note_off_c, 0, 60, 0
2, 44044, Note_on_c, 0, 64, 76
2, 44548, Note_off_c, 0, 64, 0
2, 44549, Note_on_c, 0, 64, 75
2, 45025, Note_off_c, 0, 64, 0
2, 45060, Note_on_c, 0, 62, 80
2, 47124, Note_off_c, 0, 62, 0
2, 47125, Note_on_c, 0, 62, 78
2, 48139, Note_off_c, 0, 62, 0
2, 48140, Note_on_c, 0, 65, 76
2, 49151, Note_off_c, 0, 65, 0
2, 49156, Note_on_c, 0, 58, 72
2, 49156, Note_on_c, 0, 62, 72
2, 49156, Note_on_c, 0, 67, 86
2, 50205, Note_off_c, 0, 58, 0
2, 50205, Note_off_c, 0, 62, 0
2, 50205, Note_off_c, 0, 67, 0
2, 50206, Note_on_c, 0, 69, 76
2, 50680, Note_off_c, 0, 69, 0
2, 50711, Note_on_c, 0, 67, 75
2, 52235, Note_off_c, 0, 67, 0
2, 52236, Note_on_c, 0, 67, 64
2, 52740, Note_off_c, 0, 67, 0
2, 52741, Note_on_c, 0, 67, 63
2, 53252, Note_on_c, 0, 60, 72
2, 53252, Note_on_c, 0, 69, 86
2, 53278, Note_off_c, 0, 67, 0
2, 54301, Note_off_c, 0, 60, 0
2, 54301, Note_off_c, 0, 69, 0
2, 54302, Note_on_c, 0, 64, 76
2, 54806, Note_off_c, 0, 64, 0
2, 54807, Note_on_c, 0, 64, 75
2, 55826, Note_off_c, 0, 64, 0
2, 55827, Note_on_c, 0, 60, 75
2, 56301, Note_off_c, 0, 60, 0
2, 56332, Note_on_c, 0, 67, 76
2, 56836, Note_off_c, 0, 67, 0
2, 56837, Note_on_c, 0, 67, 75
2, 57313, Note_off_c, 0, 67, 0
2, 57348, Note_on_c, 0, 65, 80
2, 57859, Note_off_c, 0, 65, 0
2, 57890, Note_on_c, 0, 60, 86
2, 57890, Note_on_c, 0, 72, 100
2, 58367, Note_off_c, 0, 60, 0
2, 58397, Note_off_c, 0, 72, 0
2, 58398, Note_on_c, 0, 61, 87
2, 58398, Note_on_c, 0, 73, 101
2, 58872, Note_off_c, 0, 61, 0
2, 58902, Note_off_c, 0, 73, 0
2, 58903, Note_on_c, 0, 62, 86
2, 58903, Note_on_c, 0, 74, 100
2, 59382, Note_off_c, 0, 62, 0
2, 59412, Note_off_c, 0, 74, 0
2, 59923, Note_on_c, 0, 69, 86
2, 59923, Note_on_c, 0, 81, 100
2, 60171, Note_off_c, 0, 69, 0
2, 60171, Note_off_c, 0, 81, 0
2, 60428, Note_on_c, 0, 67, 87
2, 60428, Note_on_c, 0, 79, 101
2, 60676, Note_off_c, 0, 67, 0
2, 60676, Note_off_c, 0, 79, 0
2, 60933, Note_on_c, 0, 65, 86
2, 60933, Note_on_c, 0, 77, 100
2, 62494, Note_off_c, 0, 65, 0
2, 62494, Note_off_c, 0, 77, 0
2, 62495, Note_on_c, 0, 65, 86
2, 62495, Note_on_c, 0, 77, 100
2, 62972, Note_off_c, 0, 65, 0
2, 63002, Note_off_c, 0, 77, 0
2, 63003, Note_on_c, 0, 67, 86
2, 63003, Note_on_c, 0, 79, 100
2, 63988, Note_off_c, 0, 67, 0
2, 64018, Note_off_c, 0, 79, 0
2, 64019, Note_on_c, 0, 60, 86
2, 64019, Note_on_c, 0, 64, 86
2, 64019, Note_on_c, 0, 72, 100
2, 64534, Note_off_c, 0, 60, 0
2, 64534, Note_off_c, 0, 64, 0
2, 64534, Note_off_c, 0, 72, 0
2, 64535, Note_on_c, 0, 60, 86
2, 64535, Note_on_c, 0, 64, 86
2, 64535, Note_on_c, 0, 72, 96
2, 66028, Note_off_c, 0, 60, 0
2, 66028, Note_off_c, 0, 64, 0
2, 66058, Note_off_c, 0, 72, 0
2, 67418, Note_on_c, 0, 69, 72
2, 67503, Note_on_c, 0, 74, 72
2, 67588, Note_on_c, 0, 81, 99
2, 68637, Note_off_c, 0, 69, 0
2, 68637, Note_off_c, 0, 74, 0
2, 68637, Note_off_c, 0, 81, 0
2, 68638, Note_on_c, 0, 65, 81
2, 68638, Note_on_c, 0, 77, 95
2, 69142, Note_off_c, 0, 65, 0
2, 69142, Note_off_c, 0, 77, 0
2, 69143, Note_on_c, 0, 65, 80
2, 69143, Note_on_c, 0, 77, 94
2, 70162, Note_off_c, 0, 65, 0
2, 70162, Note_off_c, 0, 77, 0
2, 70163, Note_on_c, 0, 62, 80
2, 70163, Note_on_c, 0, 74, 94
2, 70637, Note_off_c, 0, 62, 0
2, 70667, Note_off_c, 0, 74, 0
2, 70668, Note_on_c, 0, 65, 81
2, 70668, Note_on_c, 0, 77, 95
2, 71142, Note_off_c, 0, 65, 0
2, 71172, Note_off_c, 0, 77, 0
2, 71173, Note_on_c, 0, 64, 80
2, 71173, Note_on_c, 0, 76, 94
2, 72195, Note_off_c, 0, 64, 0
2, 72225, Note_off_c, 0, 76, 0
2, 72226, Note_on_c, 0, 65, 80
2, 72226, Note_on_c, 0, 77, 94
2, 72703, Note_off_c, 0, 65, 0
2, 72733, Note_off_c, 0, 77, 0
2, 72734, Note_on_c, 0, 67, 81
2, 72734, Note_on_c, 0, 79, 95
2, 74763, Note_off_c, 0, 67, 0
2, 74763, Note_off_c, 0, 79, 0
2, 74764, Note_on_c, 0, 62, 91
2, 74764, Note_on_c, 0, 74, 105
2, 75268, Note_off_c, 0, 62, 0
2, 75268, Note_off_c, 0, 74, 0
2, 75269, Note_on_c, 0, 62, 90
2, 75269, Note_on_c, 0, 74, 104
2, 75775, Note_off_c, 0, 74, 0
2, 75780, Note_on_c, 0, 64, 85
2, 75780, Note_on_c, 0, 76, 99
2, 75806, Note_off_c, 0, 62, 0
2, 76829, Note_off_c, 0, 64, 0
2, 76829, Note_off_c, 0, 76, 0
2, 76830, Note_on_c, 0, 60, 81
2, 76830, Note_on_c, 0, 72, 95
2, 77304, Note_off_c, 0, 60, 0
2, 77334, Note_off_c, 0, 72, 0
2, 77335, Note_on_c, 0, 67, 80
2, 77335, Note_on_c, 0, 79, 94
2, 78354, Note_off_c, 0, 67, 0
2, 78354, Note_off_c, 0, 79, 0
2, 78355, Note_on_c, 0, 69, 80
2, 78355, Note_on_c, 0, 81, 94
2, 78829, Note_off_c, 0, 69, 0
2, 78859, Note_off_c, 0, 81, 0
2, 78860, Note_on_c, 0, 67, 81
2, 78860, Note_on_c, 0, 79, 95
2, 79364, Note_off_c, 0, 67, 0
2, 79364, Note_off_c, 0, 79, 0
2, 79365, Note_on_c, 0, 67, 80
2, 79365, Note_on_c, 0, 79, 94
2, 79841, Note_off_c, 0, 67, 0
2, 79871, Note_off_c, 0, 79, 0
2, 79876, Note_on_c, 0, 65, 85
2, 79876, Note_on_c, 0, 69, 85
2, 79876, Note_on_c, 0, 77, 99
2, 81940, Note_off_c, 0, 65, 0
2, 81940, Note_off_c, 0, 69, 0
2, 81940, Note_off_c, 0, 77, 0
2, 81941, Note_on_c, 0, 62, 83
2, 81941, Note_on_c, 0, 74, 97
2, 82955, Note_off_c, 0, 62, 0
2, 82955, Note_off_c, 0, 74, 0
2, 82956, Note_on_c, 0, 69, 81
2, 82956, Note_on_c, 0, 81, 95
2, 83802, Note_on_c, 0, 70, 85
2, 83887, Note_on_c, 0, 74, 85
2, 83967, Note_off_c, 0, 69, 0
2, 83967, Note_off_c, 0, 81, 0
2, 83972, Note_on_c, 0, 82, 99
2, 85021, Note_off_c, 0, 70, 0
2, 85021, Note_off_c, 0, 74, 0
2, 85021, Note_off_c, 0, 82, 0
2, 85022, Note_on_c, 0, 65, 81
2, 85022, Note_on_c, 0, 70, 81
2, 85022, Note_on_c, 0, 77, 95
2, 85526, Note_off_c, 0, 65, 0
2, 85526, Note_off_c, 0, 70, 0
2, 85526, Note_off_c, 0, 77, 0
2, 85527, Note_on_c, 0, 65, 80
2, 85527, Note_on_c, 0, 70, 80
2, 85527, Note_on_c, 0, 77, 94
2, 87051, Note_off_c, 0, 65, 0
2, 87051, Note_off_c, 0, 70, 0
2, 87051, Note_off_c, 0, 77, 0
2, 87052, Note_on_c, 0, 62, 81
2, 87052, Note_on_c, 0, 74, 95
2, 87526, Note_off_c, 0, 62, 0
2, 87556, Note_off_c, 0, 74, 0
2, 87557, Note_on_c, 0, 65, 80
2, 87557, Note_on_c, 0, 77, 94
2, 88033, Note_off_c, 0, 65, 0
2, 88063, Note_off_c, 0, 77, 0
2, 88068, Note_on_c, 0, 64, 85
2, 88068, Note_on_c, 0, 76, 99
2, 89117, Note_off_c, 0, 64, 0
2, 89117, Note_off_c, 0, 76, 0
2, 89118, Note_on_c, 0, 65, 81
2, 89118, Note_on_c, 0, 77, 95
2, 89592, Note_off_c, 0, 65, 0
2, 89622, Note_off_c, 0, 77, 0
2, 89623, Note_on_c, 0, 67, 80
2, 89623, Note_on_c, 0, 79, 94
2, 90642, Note_off_c, 0, 67, 0
2, 90642, Note_off_c, 0, 79, 0
2, 90643, Note_on_c, 0, 60, 80
2, 90643, Note_on_c, 0, 72, 94
2, 91117, Note_off_c, 0, 60, 0
2, 91147, Note_off_c, 0, 72, 0
2, 91148, Note_on_c, 0, 64, 81
2, 91148, Note_on_c, 0, 76, 95
2, 91622, Note_off_c, 0, 64, 0
2, 91652, Note_off_c, 0, 76, 0
2, 91653, Note_on_c, 0, 65, 80
2, 91653, Note_on_c, 0, 77, 94
2, 93718, Note_off_c, 0, 65, 0
2, 93718, Note_off_c, 0, 77, 0
2, 93719, Note_on_c, 0, 65, 80
2, 93719, Note_on_c, 0, 77, 94
2, 93921, Note_off_c, 0, 65, 0
2, 93921, Note_off_c, 0, 77, 0
2, 94229, Note_on_c, 0, 67, 83
2, 94229, Note_on_c, 0, 79, 97
2, 94431, Note_off_c, 0, 67, 0
2, 94431, Note_off_c, 0, 79, 0
2, 94739, Note_on_c, 0, 64, 80
2, 94739, Note_on_c, 0, 76, 94
2, 94936, Note_off_c, 0, 64, 0
2, 94936, Note_off_c, 0, 76, 0
2, 95244, Note_on_c, 0, 60, 81
2, 95244, Note_on_c, 0, 72, 95
2, 95441, Note_off_c, 0, 60, 0
2, 95441, Note_off_c, 0, 72, 0
2, 95749, Note_on_c, 0, 62, 80
2, 95749, Note_on_c, 0, 74, 94
2, 97814, Note_off_c, 0, 62, 0
2, 97814, Note_off_c, 0, 74, 0
2, 97815, Note_on_c, 0, 62, 80
2, 97815, Note_on_c, 0, 74, 94
2, 98017, Note_off_c, 0, 62, 0
2, 98017, Note_off_c, 0, 74, 0
2, 98325, Note_on_c, 0, 69, 83
2, 98325, Note_on_c, 0, 81, 97
2, 98527, Note_off_c, 0, 69, 0
2, 98527, Note_off_c, 0, 81, 0
2, 98835, Note_on_c, 0, 65, 80
2, 98835, Note_on_c, 0, 77, 94
2, 99032, Note_off_c, 0, 65, 0
2, 99032, Note_off_c, 0, 77, 0
2, 99340, Note_on_c, 0, 67, 81
2, 99340, Note_on_c, 0, 79, 95
2, 99537, Note_off_c, 0, 67, 0
2, 99537, Note_off_c, 0, 79, 0
2, 99845, Note_on_c, 0, 65, 80
2, 99845, Note_on_c, 0, 77, 94
2, 101405, Note_off_c, 0, 65, 0
2, 101405, Note_off_c, 0, 77, 0
2, 101406, Note_on_c, 0, 62, 81
2, 101406, Note_on_c, 0, 65, 81
2, 101406, Note_on_c, 0, 74, 95
2, 102229, Note_on_c, 0, 70, 83
2, 102293, Note_on_c, 0, 74, 83
2, 102357, Note_on_c, 0, 77, 83
2, 102420, Note_off_c, 0, 62, 0
2, 102420, Note_off_c, 0, 65, 0
2, 102420, Note_off_c, 0, 74, 0
2, 102421, Note_on_c, 0, 82, 97
2, 102900, Note_off_c, 0, 70, 0
2, 102930, Note_off_c, 0, 74, 0
2, 102930, Note_off_c, 0, 77, 0
2, 102930, Note_off_c, 0, 82, 0
2, 102931, Note_on_c, 0, 69, 80
2, 102931, Note_on_c, 0, 74, 80
2, 102931, Note_on_c, 0, 81, 94
2, 103940, Note_off_c, 0, 69, 0
2, 103940, Note_off_c, 0, 74, 0
2, 103940, Note_off_c, 0, 81, 0
2, 103941, Note_on_c, 0, 67, 80
2, 103941, Note_on_c, 0, 72, 80
2, 103941, Note_on_c, 0, 79, 94
2, 104963, Note_off_c, 0, 67, 0
2, 104963, Note_off_c, 0, 72, 0
2, 104993, Note_off_c, 0, 79, 0
2, 104994, Note_on_c, 0, 65, 80
2, 104994, Note_on_c, 0, 77, 94
2, 105471, Note_off_c, 0, 65, 0
2, 105501, Note_off_c, 0, 77, 0
2, 105502, Note_on_c, 0, 67, 81
2, 105502, Note_on_c, 0, 79, 95
2, 106006, Note_off_c, 0, 67, 0
2, 106006, Note_off_c, 0, 79, 0
2, 106007, Note_on_c, 0, 67, 80
2, 106007, Note_on_c, 0, 79, 94
2, 106516, Note_off_c, 0, 67, 0
2, 106516, Note_off_c, 0, 79, 0
2, 106517, Note_on_c, 0, 64, 83
2, 106517, Note_on_c, 0, 67, 83
2, 106517, Note_on_c, 0, 76, 97
2, 108036, Note_off_c, 0, 64, 0
2, 108036, Note_off_c, 0, 67, 0
2, 108036, Note_off_c, 0, 76, 0
2, 108037, Note_on_c, 0, 60, 80
2, 108037, Note_on_c, 0, 64, 80
2, 108037, Note_on_c, 0, 72, 94
2, 108543, Note_off_c, 0, 60, 0
2, 108543, Note_off_c, 0, 64, 0
2, 108543, Note_off_c, 0, 72, 0
2, 108548, Note_on_c, 0, 60, 85
2, 108548, Note_on_c, 0, 64, 85
2, 108548, Note_on_c, 0, 72, 99
2, 109597, Note_off_c, 0, 60, 0
2, 109597, Note_off_c, 0, 64, 0
2, 109597, Note_off_c, 0, 72, 0
2, 109598, Note_on_c, 0, 70, 81
2, 109598, Note_on_c, 0, 82, 95
2, 110072, Note_off_c, 0, 70, 0
2, 110102, Note_off_c, 0, 82, 0
2, 110103, Note_on_c, 0, 69, 80
2, 110103, Note_on_c, 0, 81, 94
2, 111122, Note_off_c, 0, 69, 0
2, 111122, Note_off_c, 0, 81, 0
2, 111123, Note_on_c, 0, 64, 80
2, 111123, Note_on_c, 0, 76, 94
2, 111597, Note_off_c, 0, 64, 0
2, 111627, Note_off_c, 0, 76, 0
2, 111628, Note_on_c, 0, 67, 81
2, 111628, Note_on_c, 0, 79, 95
2, 112132, Note_off_c, 0, 67, 0
2, 112132, Note_off_c, 0, 79, 0
2, 112133, Note_on_c, 0, 67, 80
2, 112133, Note_on_c, 0, 79, 94
2, 112609, Note_off_c, 0, 67, 0
2, 112639, Note_off_c, 0, 79, 0
2, 112644, Note_on_c, 0, 65, 85
2, 112644, Note_on_c, 0, 69, 85
2, 112644, Note_on_c, 0, 77, 99
2, 114708, Note_off_c, 0, 65, 0
2, 114708, Note_off_c, 0, 69, 0
2, 114708, Note_off_c, 0, 77, 0
2, 115219, Note_on_c, 0, 69, 80
2, 115219, Note_on_c, 0, 81, 94
2, 115693, Note_off_c, 0, 69, 0
2, 115723, Note_off_c, 0, 81, 0
2, 115724, Note_on_c, 0, 67, 81
2, 115724, Note_on_c, 0, 79, 95
2, 116198, Note_off_c, 0, 67, 0
2, 116228, Note_off_c, 0, 79, 0
2, 116229, Note_on_c, 0, 65, 80
2, 116229, Note_on_c, 0, 77, 94
2, 117251, Note_off_c, 0, 65, 0
2, 117281, Note_off_c, 0, 77, 0
2, 117282, Note_on_c, 0, 62, 80
2, 117282, Note_on_c, 0, 74, 94
2, 117789, Note_off_c, 0, 62, 0
2, 117789, Note_off_c, 0, 74, 0
2, 117790, Note_on_c, 0, 62, 81
2, 117790, Note_on_c, 0, 74, 91
2, 119314, Note_off_c, 0, 62, 0
2, 119314, Note_off_c, 0, 74, 0
2, 119315, Note_on_c, 0, 62, 80
2, 119315, Note_on_c, 0, 74, 94
2, 119789, Note_off_c, 0, 62, 0
2, 119819, Note_off_c, 0, 74, 0
2, 119820, Note_on_c, 0, 69, 81
2, 119820, Note_on_c, 0, 81, 95
2, 120294, Note_off_c, 0, 69, 0
2, 120324, Note_off_c, 0, 81, 0
2, 120325, Note_on_c, 0, 67, 80
2, 120325, Note_on_c, 0, 79, 94
2, 121347, Note_off_c, 0, 67, 0
2, 121377, Note_off_c, 0, 79, 0
2, 121378, Note_on_c, 0, 69, 80
2, 121378, Note_on_c, 0, 81, 94
2, 121855, Note_off_c, 0, 69, 0
2, 121885, Note_off_c, 0, 81, 0
2, 121886, Note_on_c, 0, 64, 81
2, 121886, Note_on_c, 0, 76, 95
2, 123915, Note_off_c, 0, 64, 0
2, 123915, Note_off_c, 0, 76, 0
2, 123916, Note_on_c, 0, 60, 69
2, 123916, Note_on_c, 0, 72, 83
2, 124420, Note_off_c, 0, 60, 0
2, 124420, Note_off_c, 0, 72, 0
2, 124421, Note_on_c, 0, 60, 68
2, 124421, Note_on_c, 0, 72, 82
2, 124927, Note_off_c, 0, 72, 0
2, 124932, Note_on_c, 0, 69, 85
2, 124932, Note_on_c, 0, 81, 99
2, 124958, Note_off_c, 0, 60, 0
2, 125981, Note_off_c, 0, 69, 0
2, 125981, Note_off_c, 0, 81, 0
2, 125982, Note_on_c, 0, 69, 81
2, 125982, Note_on_c, 0, 81, 95
2, 126456, Note_off_c, 0, 69, 0
2, 126486, Note_off_c, 0, 81, 0
2, 126487, Note_on_c, 0, 67, 80
2, 126487, Note_on_c, 0, 79, 94
2, 127506, Note_off_c, 0, 67, 0
2, 127506, Note_off_c, 0, 79, 0
2, 127507, Note_on_c, 0, 60, 80
2, 127507, Note_on_c, 0, 72, 94
2, 128011, Note_off_c, 0, 60, 0
2, 128011, Note_off_c, 0, 72, 0
2, 128012, Note_on_c, 0, 60, 81
2, 128012, Note_on_c, 0, 72, 95
2, 128486, Note_off_c, 0, 60, 0
2, 128516, Note_off_c, 0, 72, 0
2, 128517, Note_on_c, 0, 62, 80
2, 128517, Note_on_c, 0, 74, 94
2, 130582, Note_off_c, 0, 62, 0
2, 130582, Note_off_c, 0, 74, 0
2, 130583, Note_on_c, 0, 62, 80
2, 130583, Note_on_c, 0, 74, 94
2, 130785, Note_off_c, 0, 62, 0
2, 130785, Note_off_c, 0, 74, 0
2, 131093, Note_on_c, 0, 69, 83
2, 131093, Note_on_c, 0, 81, 97
2, 131295, Note_off_c, 0, 69, 0
2, 131295, Note_off_c, 0, 81, 0
2, 131603, Note_on_c, 0, 65, 80
2, 131603, Note_on_c, 0, 77, 94
2, 131800, Note_off_c, 0, 65, 0
2, 131800, Note_off_c, 0, 77, 0
2, 132108, Note_on_c, 0, 67, 81
2, 132108, Note_on_c, 0, 79, 95
2, 132305, Note_off_c, 0, 67, 0
2, 132305, Note_off_c, 0, 79, 0
2, 132613, Note_on_c, 0, 65, 80
2, 132613, Note_on_c, 0, 77, 94
2, 134173, Note_off_c, 0, 65, 0
2, 134173, Note_off_c, 0, 77, 0
2, 134174, Note_on_c, 0, 62, 81
2, 134174, Note_on_c, 0, 65, 81
2, 134174, Note_on_c, 0, 74, 95
2, 135188, Note_off_c, 0, 62, 0
2, 135188, Note_off_c, 0, 65, 0
2, 135188, Note_off_c, 0, 74, 0
2, 135189, Note_on_c, 0, 70, 83
2, 135189, Note_on_c, 0, 74, 83
2, 135189, Note_on_c, 0, 77, 83
2, 135189, Note_on_c, 0, 82, 97
2, 135668, Note_off_c, 0, 70, 0
2, 135698, Note_off_c, 0, 74, 0
2, 135698, Note_off_c, 0, 77, 0
2, 135698, Note_off_c, 0, 82, 0
2, 135699, Note_on_c, 0, 69, 80
2, 135699, Note_on_c, 0, 74, 80
2, 135699, Note_on_c, 0, 81, 94
2, 136708, Note_off_c, 0, 69, 0
2, 136708, Note_off_c, 0, 74, 0
2, 136708, Note_off_c, 0, 81, 0
2, 136709, Note_on_c, 0, 67, 80
2, 136709, Note_on_c, 0, 72, 80
2, 136709, Note_on_c, 0, 79, 94
2, 137731, Note_off_c, 0, 67, 0
2, 137731, Note_off_c, 0, 72, 0
2, 137761, Note_off_c, 0, 79, 0
2, 137762, Note_on_c, 0, 65, 80
2, 137762, Note_on_c, 0, 77, 94
2, 138239, Note_off_c, 0, 65, 0
2, 138269, Note_off_c, 0, 77, 0
2, 138270, Note_on_c, 0, 67, 81
2, 138270, Note_on_c, 0, 79, 95
2, 138774, Note_off_c, 0, 67, 0
2, 138774, Note_off_c, 0, 79, 0
2, 138775, Note_on_c, 0, 67, 80
2, 138775, Note_on_c, 0, 79, 94
2, 139284, Note_off_c, 0, 67, 0
2, 139284, Note_off_c, 0, 79, 0
2, 139285, Note_on_c, 0, 64, 83
2, 139285, Note_on_c, 0, 67, 83
2, 139285, Note_on_c, 0, 76, 97
2, 140804, Note_off_c, 0, 64, 0
2, 140804, Note_off_c, 0, 67, 0
2, 140804, Note_off_c, 0, 76, 0
2, 140805, Note_on_c, 0, 60, 80
2, 140805, Note_on_c, 0, 64, 80
2, 140805, Note_on_c, 0, 72, 94
2, 141311, Note_off_c, 0, 60, 0
2, 141311, Note_off_c, 0, 64, 0
2, 141311, Note_off_c, 0, 72, 0
2, 141316, Note_on_c, 0, 60, 85
2, 141316, Note_on_c, 0, 64, 85
2, 141316, Note_on_c, 0, 72, 99
2, 142365, Note_off_c, 0, 60, 0
2, 142365, Note_off_c, 0, 64, 0
2, 142365, Note_off_c, 0, 72, 0
2, 142366, Note_on_c, 0, 70, 81
2, 142366, Note_on_c, 0, 82, 95
2, 142840, Note_off_c, 0, 70, 0
2, 142870, Note_off_c, 0, 82, 0
2, 142871, Note_on_c, 0, 69, 80
2, 142871, Note_on_c, 0, 81, 94
2, 143890, Note_off_c, 0, 69, 0
2, 143890, Note_off_c, 0, 81, 0
2, 143891, Note_on_c, 0, 64, 80
2, 143891, Note_on_c, 0, 76, 94
2, 144365, Note_off_c, 0, 64, 0
2, 144395, Note_off_c, 0, 76, 0
2, 144396, Note_on_c, 0, 67, 81
2, 144396, Note_on_c, 0, 79, 95
2, 144900, Note_off_c, 0, 67, 0
2, 144900, Note_off_c, 0, 79, 0
2, 144901, Note_on_c, 0, 67, 80
2, 144901, Note_on_c, 0, 79, 94
2, 145377, Note_off_c, 0, 67, 0
2, 145407, Note_off_c, 0, 79, 0
2, 145412, Note_on_c, 0, 65, 85
2, 145412, Note_on_c, 0, 69, 85
2, 145412, Note_on_c, 0, 77, 99
2, 147476, Note_off_c, 0, 65, 0
2, 147476, Note_off_c, 0, 69, 0
2, 147476, Note_off_c, 0, 77, 0
2, 147987, Note_on_c, 0, 62, 80
2, 147987, Note_on_c, 0, 74, 94
2, 148461, Note_off_c, 0, 62, 0
2, 148491, Note_off_c, 0, 74, 0
2, 148492, Note_on_c, 0, 64, 80
2, 148492, Note_on_c, 0, 76, 94
2, 148966, Note_off_c, 0, 64, 0
2, 148996, Note_off_c, 0, 76, 0
2, 148997, Note_on_c, 0, 65, 80
2, 148997, Note_on_c, 0, 77, 94
2, 150557, Note_off_c, 0, 65, 0
2, 150557, Note_off_c, 0, 77, 0
2, 150558, Note_on_c, 0, 67, 81
2, 150558, Note_on_c, 0, 79, 95
2, 151032, Note_off_c, 0, 67, 0
2, 151062, Note_off_c, 0, 79, 0
2, 151063, Note_on_c, 0, 65, 81
2, 151063, Note_on_c, 0, 77, 95
2, 152082, Note_off_c, 0, 65, 0
2, 152082, Note_off_c, 0, 77, 0
2, 152083, Note_on_c, 0, 64, 82
2, 152083, Note_on_c, 0, 76, 96
2, 152557, Note_off_c, 0, 64, 0
2, 152587, Note_off_c, 0, 76, 0
2, 152588, Note_on_c, 0, 65, 82
2, 152588, Note_on_c, 0, 77, 96
2, 153062, Note_off_c, 0, 65, 0
2, 153092, Note_off_c, 0, 77, 0
2, 153093, Note_on_c, 0, 67, 83
2, 153093, Note_on_c, 0, 79, 97
2, 154653, Note_off_c, 0, 67, 0
2, 154653, Note_off_c, 0, 79, 0
2, 154654, Note_on_c, 0, 69, 83
2, 154654, Note_on_c, 0, 81, 97
2, 155128, Note_off_c, 0, 69, 0
2, 155158, Note_off_c, 0, 81, 0
2, 155159, Note_on_c, 0, 67, 84
2, 155159, Note_on_c, 0, 79, 98
2, 156683, Note_off_c, 0, 67, 0
2, 156683, Note_off_c, 0, 79, 0
2, 156684, Note_on_c, 0, 70, 85
2, 156684, Note_on_c, 0, 82, 99
2, 157158, Note_off_c, 0, 70, 0
2, 157188, Note_off_c, 0, 82, 0
2, 157189, Note_on_c, 0, 69, 85
2, 157189, Note_on_c, 0, 81, 99
2, 158211, Note_off_c, 0, 69, 0
2, 158241, Note_off_c, 0, 81, 0
2, 158242, Note_on_c, 0, 67, 86
2, 158242, Note_on_c, 0, 79, 100
2, 158719, Note_off_c, 0, 67, 0
2, 158749, Note_off_c, 0, 79, 0
2, 158750, Note_on_c, 0, 69, 86
2, 158750, Note_on_c, 0, 81, 100
2, 159224, Note_off_c, 0, 69, 0
2, 159254, Note_off_c, 0, 81, 0
2, 159255, Note_on_c, 0, 70, 86
2, 159255, Note_on_c, 0, 74, 86
2, 159255, Note_on_c, 0, 82, 100
2, 161284, Note_off_c, 0, 70, 0
2, 161284, Note_off_c, 0, 74, 0
2, 161284, Note_off_c, 0, 82, 0
2, 161285, Note_on_c, 0, 70, 97
2, 161285, Note_on_c, 0, 74, 97
2, 161285, Note_on_c, 0, 82, 107
2, 162337, Note_off_c, 0, 82, 0
2, 162338, Note_on_c, 0, 72, 88
2, 162338, Note_on_c, 0, 84, 102
2, 162368, Note_off_c, 0, 70, 0
2, 162368, Note_off_c, 0, 74, 0
2, 163350, Note_off_c, 0, 72, 0
2, 163350, Note_off_c, 0, 84, 0
2, 163351, Note_on_c, 0, 69, 89
2, 163351, Note_on_c, 0, 81, 103
2, 164370, Note_off_c, 0, 69, 0
2, 164370, Note_off_c, 0, 81, 0
2, 164371, Note_on_c, 0, 67, 89
2, 164371, Note_on_c, 0, 79, 103
2, 164845, Note_off_c, 0, 67, 0
2, 164875, Note_off_c, 0, 79, 0
2, 164876, Note_on_c, 0, 69, 89
2, 164876, Note_on_c, 0, 81, 103
2, 166941, Note_off_c, 0, 69, 0
2, 166941, Note_off_c, 0, 81, 0
2, 166942, Note_on_c, 0, 69, 91
2, 166942, Note_on_c, 0, 81, 101
2, 167446, Note_off_c, 0, 69, 0
2, 167446, Note_off_c, 0, 81, 0
2, 167447, Note_on_c, 0, 69, 91
2, 167447, Note_on_c, 0, 81, 105
2, 167926, Note_off_c, 0, 69, 0
2, 167956, Note_off_c, 0, 81, 0
2, 167957, Note_on_c, 0, 68, 91
2, 167957, Note_on_c, 0, 80, 105
2, 168436, Note_off_c, 0, 68, 0
2, 168466, Note_off_c, 0, 80, 0
2, 168467, Note_on_c, 0, 69, 92
2, 168467, Note_on_c, 0, 81, 106
2, 168941, Note_off_c, 0, 69, 0
2, 168971, Note_off_c, 0, 81, 0
2, 168972, Note_on_c, 0, 71, 92
2, 168972, Note_on_c, 0, 83, 106
2, 169983, Note_off_c, 0, 71, 0
2, 169983, Note_off_c, 0, 83, 0
2, 169988, Note_on_c, 0, 72, 98
2, 169988, Note_on_c, 0, 76, 98
2, 169988, Note_on_c, 0, 84, 112
2, 170499, Note_off_c, 0, 72, 0
2, 170499, Note_off_c, 0, 76, 0
2, 170529, Note_off_c, 0, 84, 0
2, 170530, Note_on_c, 0, 71, 93
2, 170530, Note_on_c, 0, 83, 107
2, 171007, Note_off_c, 0, 71, 0
2, 171037, Note_off_c, 0, 83, 0
2, 171038, Note_on_c, 0, 67, 94
2, 171038, Note_on_c, 0, 79, 108
2, 171542, Note_off_c, 0, 67, 0
2, 171542, Note_off_c, 0, 79, 0
2, 171543, Note_on_c, 0, 67, 93
2, 171543, Note_on_c, 0, 79, 107
2, 172562, Note_off_c, 0, 67, 0
2, 172562, Note_off_c, 0, 79, 0
2, 172563, Note_on_c, 0, 64, 93
2, 172563, Note_on_c, 0, 76, 107
2, 173037, Note_off_c, 0, 64, 0
2, 173067, Note_off_c, 0, 76, 0
2, 173068, Note_on_c, 0, 71, 94
2, 173068, Note_on_c, 0, 83, 108
2, 173572, Note_off_c, 0, 71, 0
2, 173572, Note_off_c, 0, 83, 0
2, 173573, Note_on_c, 0, 71, 93
2, 173573, Note_on_c, 0, 83, 107
2, 174049, Note_off_c, 0, 71, 0
2, 174079, Note_off_c, 0, 83, 0
2, 174084, Note_on_c, 0, 69, 98
2, 174084, Note_on_c, 0, 72, 98
2, 174084, Note_on_c, 0, 77, 98
2, 174084, Note_on_c, 0, 81, 112
2, 176148, Note_off_c, 0, 69, 0
2, 176148, Note_off_c, 0, 72, 0
2, 176148, Note_off_c, 0, 77, 0
2, 176148, Note_off_c, 0, 81, 0
2, 176659, Note_on_c, 0, 64, 93
2, 176659, Note_on_c, 0, 76, 107
2, 177133, Note_off_c, 0, 64, 0
2, 177163, Note_off_c, 0, 76, 0
2, 177164, Note_on_c, 0, 67, 94
2, 177164, Note_on_c, 0, 79, 108
2, 177638, Note_off_c, 0, 67, 0
2, 177668, Note_off_c, 0, 79, 0
2, 177669, Note_on_c, 0, 65, 93
2, 177669, Note_on_c, 0, 77, 107
2, 178145, Note_off_c, 0, 65, 0
2, 178175, Note_off_c, 0, 77, 0
2, 178180, Note_on_c, 0, 69, 98
2, 178180, Note_on_c, 0, 74, 112
2, 179229, Note_off_c, 0, 69, 0
2, 179229, Note_off_c, 0, 74, 0
2, 179230, Note_on_c, 0, 69, 94
2, 179230, Note_on_c, 0, 74, 94
2, 179230, Note_on_c, 0, 81, 108
2, 179704, Note_off_c, 0, 69, 0
2, 179704, Note_off_c, 0, 74, 0
2, 179734, Note_off_c, 0, 81, 0
2, 179735, Note_on_c, 0, 67, 93
2, 179735, Note_on_c, 0, 71, 93
2, 179735, Note_on_c, 0, 79, 107
2, 180754, Note_off_c, 0, 67, 0
2, 180754, Note_off_c, 0, 71, 0
2, 180754, Note_off_c, 0, 79, 0
2, 180755, Note_on_c, 0, 62, 93
2, 180755, Note_on_c, 0, 74, 107
2, 181764, Note_off_c, 0, 62, 0
2, 181764, Note_off_c, 0, 74, 0
2, 181765, Note_on_c, 0, 62, 93
2, 181765, Note_on_c, 0, 74, 103
2, 182787, Note_off_c, 0, 62, 0
2, 182817, Note_off_c, 0, 74, 0
2, 182818, Note_on_c, 0, 64, 93
2, 182818, Note_on_c, 0, 67, 93
2, 182818, Note_on_c, 0, 76, 107
2, 183325, Note_off_c, 0, 64, 0
2, 183325, Note_off_c, 0, 67, 0
2, 183325, Note_off_c, 0, 76, 0
2, 183326, Note_on_c, 0, 64, 94
2, 183326, Note_on_c, 0, 67, 105
2, 183326, Note_on_c, 0, 76, 100
2, 185355, Note_off_c, 0, 64, 0
2, 185355, Note_off_c, 0, 67, 0
2, 185355, Note_off_c, 0, 76, 0
2, 185861, Note_on_c, 0, 64, 93
2, 185861, Note_on_c, 0, 76, 107
2, 186337, Note_off_c, 0, 64, 0
2, 186367, Note_off_c, 0, 76, 0
2, 186372, Note_on_c, 0, 72, 98
2, 186372, Note_on_c, 0, 84, 112
2, 186883, Note_off_c, 0, 72, 0
2, 186913, Note_off_c, 0, 84, 0
2, 186914, Note_on_c, 0, 71, 93
2, 186914, Note_on_c, 0, 83, 107
2, 187391, Note_off_c, 0, 71, 0
2, 187421, Note_off_c, 0, 83, 0
2, 187422, Note_on_c, 0, 74, 94
2, 187422, Note_on_c, 0, 86, 108
2, 187896, Note_off_c, 0, 74, 0
2, 187926, Note_off_c, 0, 86, 0
2, 187927, Note_on_c, 0, 72, 93
2, 187927, Note_on_c, 0, 84, 107
2, 188946, Note_off_c, 0, 72, 0
2, 188946, Note_off_c, 0, 84, 0
2, 188947, Note_on_c, 0, 67, 93
2, 188947, Note_on_c, 0, 79, 107
2, 189421, Note_off_c, 0, 67, 0
2, 189451, Note_off_c, 0, 79, 0
2, 189452, Note_on_c, 0, 71, 94
2, 189452, Note_on_c, 0, 83, 108
2, 189956, Note_off_c, 0, 71, 0
2, 189956, Note_off_c, 0, 83, 0
2, 189957, Note_on_c, 0, 71, 93
2, 189957, Note_on_c, 0, 83, 107
2, 190433, Note_off_c, 0, 71, 0
2, 190463, Note_off_c, 0, 83, 0
2, 190468, Note_on_c, 0, 69, 98
2, 190468, Note_on_c, 0, 72, 98
2, 190468, Note_on_c, 0, 77, 98
2, 190468, Note_on_c, 0, 81, 112
2, 192532, Note_off_c, 0, 69, 0
2, 192532, Note_off_c, 0, 72, 0
2, 192532, Note_off_c, 0, 77, 0
2, 192532, Note_off_c, 0, 81, 0
2, 193043, Note_on_c, 0, 69, 93
2, 193043, Note_on_c, 0, 81, 107
2, 193517, Note_off_c, 0, 69, 0
2, 193547, Note_off_c, 0, 81, 0
2, 193548, Note_on_c, 0, 67, 94
2, 193548, Note_on_c, 0, 79, 108
2, 194022, Note_off_c, 0, 67, 0
2, 194052, Note_off_c, 0, 79, 0
2, 194053, Note_on_c, 0, 69, 93
2, 194053, Note_on_c, 0, 81, 107
2, 194529, Note_off_c, 0, 69, 0
2, 194559, Note_off_c, 0, 81, 0
2, 194564, Note_on_c, 0, 74, 98
2, 194564, Note_on_c, 0, 77, 112
2, 195613, Note_off_c, 0, 74, 0
2, 195613, Note_off_c, 0, 77, 0
2, 195614, Note_on_c, 0, 69, 94
2, 195614, Note_on_c, 0, 74, 94
2, 195614, Note_on_c, 0, 81, 108
2, 196088, Note_off_c, 0, 69, 0
2, 196118, Note_off_c, 0, 74, 0
2, 196118, Note_off_c, 0, 81, 0
2, 196119, Note_on_c, 0, 71, 93
2, 196119, Note_on_c, 0, 74, 93
2, 196119, Note_on_c, 0, 83, 107
2, 197138, Note_off_c, 0, 71, 0
2, 197138, Note_off_c, 0, 74, 0
2, 197138, Note_off_c, 0, 83, 0
2, 197139, Note_on_c, 0, 67, 93
2, 197139, Note_on_c, 0, 79, 107
2, 198148, Note_off_c, 0, 67, 0
2, 198148, Note_off_c, 0, 79, 0
2, 198149, Note_on_c, 0, 69, 93
2, 198149, Note_on_c, 0, 72, 93
2, 198149, Note_on_c, 0, 76, 93
2, 198149, Note_on_c, 0, 81, 107
2, 199709, Note_off_c, 0, 69, 0
2, 199709, Note_off_c, 0, 72, 0
2, 199709, Note_off_c, 0, 76, 0
2, 199709, Note_off_c, 0, 81, 0
2, 199710, Note_on_c, 0, 69, 94
2, 199710, Note_on_c, 0, 72, 94
2, 199710, Note_on_c, 0, 81, 104
2, 200214, Note_off_c, 0, 69, 0
2, 200214, Note_off_c, 0, 72, 0
2, 200214, Note_off_c, 0, 81, 0
2, 200215, Note_on_c, 0, 69, 93
2, 200215, Note_on_c, 0, 72, 93
2, 200215, Note_on_c, 0, 81, 107
2, 200694, Note_off_c, 0, 69, 0
2, 200694, Note_off_c, 0, 72, 0
2, 200724, Note_off_c, 0, 81, 0
2, 200725, Note_on_c, 0, 68, 96
2, 200725, Note_on_c, 0, 80, 110
2, 201204, Note_off_c, 0, 68, 0
2, 201234, Note_off_c, 0, 80, 0
2, 201235, Note_on_c, 0, 69, 93
2, 201235, Note_on_c, 0, 81, 107
2, 201709, Note_off_c, 0, 69, 0
2, 201739, Note_off_c, 0, 81, 0
2, 201740, Note_on_c, 0, 71, 94
2, 201740, Note_on_c, 0, 83, 108
2, 202751, Note_off_c, 0, 71, 0
2, 202751, Note_off_c, 0, 83, 0
2, 202756, Note_on_c, 0, 72, 98
2, 202756, Note_on_c, 0, 76, 98
2, 202756, Note_on_c, 0, 84, 112
2, 203267, Note_off_c, 0, 72, 0
2, 203267, Note_off_c, 0, 76, 0
2, 203297, Note_off_c, 0, 84, 0
2, 203298, Note_on_c, 0, 71, 93
2, 203298, Note_on_c, 0, 83, 107
2, 203775, Note_off_c, 0, 71, 0
2, 203805, Note_off_c, 0, 83, 0
2, 203806, Note_on_c, 0, 67, 94
2, 203806, Note_on_c, 0, 79, 108
2, 204310, Note_off_c, 0, 67, 0
2, 204310, Note_off_c, 0, 79, 0
2, 204311, Note_on_c, 0, 67, 93
2, 204311, Note_on_c, 0, 79, 107
2, 205330, Note_off_c, 0, 67, 0
2, 205330, Note_off_c, 0, 79, 0
2, 205331, Note_on_c, 0, 64, 93
2, 205331, Note_on_c, 0, 76, 107
2, 205805, Note_off_c, 0, 64, 0
2, 205835, Note_off_c, 0, 76, 0
2, 205836, Note_on_c, 0, 71, 94
2, 205836, Note_on_c, 0, 83, 108
2, 206340, Note_off_c, 0, 71, 0
2, 206340, Note_off_c, 0, 83, 0
2, 206341, Note_on_c, 0, 71, 93
2, 206341, Note_on_c, 0, 83, 107
2, 206817, Note_off_c, 0, 71, 0
2, 206847, Note_off_c, 0, 83, 0
2, 206852, Note_on_c, 0, 69, 98
2, 206852, Note_on_c, 0, 72, 98
2, 206852, Note_on_c, 0, 77, 98
2, 206852, Note_on_c, 0, 81, 112
2, 208916, Note_off_c, 0, 69, 0
2, 208916, Note_off_c, 0, 72, 0
2, 208916, Note_off_c, 0, 77, 0
2, 208916, Note_off_c, 0, 81, 0
2, 209427, Note_on_c, 0, 64, 93
2, 209427, Note_on_c, 0, 76, 107
2, 209901, Note_off_c, 0, 64, 0
2, 209931, Note_off_c, 0, 76, 0
2, 209932, Note_on_c, 0, 67, 94
2, 209932, Note_on_c, 0, 79, 108
2, 210406, Note_off_c, 0, 67, 0
2, 210436, Note_off_c, 0, 79, 0
2, 210437, Note_on_c, 0, 65, 93
2, 210437, Note_on_c, 0, 77, 107
2, 210913, Note_off_c, 0, 65, 0
2, 210943, Note_off_c, 0, 77, 0
2, 210948, Note_on_c, 0, 69, 98
2, 210948, Note_on_c, 0, 74, 112
2, 211997, Note_off_c, 0, 69, 0
2, 211997, Note_off_c, 0, 74, 0
2, 211998, Note_on_c, 0, 69, 94
2, 211998, Note_on_c, 0, 81, 108
2, 212472, Note_off_c, 0, 69, 0
2, 212502, Note_off_c, 0, 81, 0
2, 212503, Note_on_c, 0, 71, 93
2, 212503, Note_on_c, 0, 83, 107
2, 213522, Note_off_c, 0, 71, 0
2, 213522, Note_off_c, 0, 83, 0
2, 213523, Note_on_c, 0, 67, 93
2, 213523, Note_on_c, 0, 79, 107
2, 214532, Note_off_c, 0, 67, 0
2, 214532, Note_off_c, 0, 79, 0
2, 214533, Note_on_c, 0, 71, 93
2, 214533, Note_on_c, 0, 83, 107
2, 215555, Note_off_c, 0, 71, 0
2, 215585, Note_off_c, 0, 83, 0
2, 215586, Note_on_c, 0, 72, 93
2, 215586, Note_on_c, 0, 84, 107
2, 216063, Note_off_c, 0, 72, 0
2, 216093, Note_off_c, 0, 84, 0
2, 216094, Note_on_c, 0, 71, 94
2, 216094, Note_on_c, 0, 83, 108
2, 218123, Note_off_c, 0, 71, 0
2, 218123, Note_off_c, 0, 83, 0
2, 218629, Note_on_c, 0, 64, 93
2, 218629, Note_on_c, 0, 76, 107
2, 219105, Note_off_c, 0, 64, 0
2, 219135, Note_off_c, 0, 76, 0
2, 219140, Note_on_c, 0, 72, 98
2, 219140, Note_on_c, 0, 76, 98
2, 219140, Note_on_c, 0, 84, 112
2, 219651, Note_off_c, 0, 72, 0
2, 219681, Note_off_c, 0, 76, 0
2, 219681, Note_off_c, 0, 84, 0
2, 219682, Note_on_c, 0, 71, 93
2, 219682, Note_on_c, 0, 76, 93
2, 219682, Note_on_c, 0, 83, 107
2, 220159, Note_off_c, 0, 71, 0
2, 220159, Note_off_c, 0, 76, 0
2, 220189, Note_off_c, 0, 83, 0
2, 220190, Note_on_c, 0, 74, 94
2, 220190, Note_on_c, 0, 86, 108
2, 220664, Note_off_c, 0, 74, 0
2, 220694, Note_off_c, 0, 86, 0
2, 220695, Note_on_c, 0, 72, 93
2, 220695, Note_on_c, 0, 84, 107
2, 221714, Note_off_c, 0, 72, 0
2, 221714, Note_off_c, 0, 84, 0
2, 221715, Note_on_c, 0, 64, 93
2, 221715, Note_on_c, 0, 76, 107
2, 222189, Note_off_c, 0, 64, 0
2, 222219, Note_off_c, 0, 76, 0
2, 222220, Note_on_c, 0, 71, 94
2, 222220, Note_on_c, 0, 83, 108
2, 222694, Note_off_c, 0, 71, 0
2, 222724, Note_off_c, 0, 83, 0
2, 222725, Note_on_c, 0, 72, 93
2, 222725, Note_on_c, 0, 84, 107
2, 225300, Note_off_c, 0, 72, 0
2, 225300, Note_off_c, 0, 84, 0
2, 225811, Note_on_c, 0, 72, 93
2, 225811, Note_on_c, 0, 84, 107
2, 226285, Note_off_c, 0, 72, 0
2, 226315, Note_off_c, 0, 84, 0
2, 226316, Note_on_c, 0, 71, 94
2, 226316, Note_on_c, 0, 83, 108
2, 226790, Note_off_c, 0, 71, 0
2, 226820, Note_off_c, 0, 83, 0
2, 226821, Note_on_c, 0, 69, 93
2, 226821, Note_on_c, 0, 81, 107
2, 227297, Note_off_c, 0, 69, 0
2, 227327, Note_off_c, 0, 81, 0
2, 227332, Note_on_c, 0, 74, 98
2, 227332, Note_on_c, 0, 77, 112
2, 228381, Note_off_c, 0, 74, 0
2, 228381, Note_off_c, 0, 77, 0
2, 228382, Note_on_c, 0, 69, 94
2, 228382, Note_on_c, 0, 74, 94
2, 228382, Note_on_c, 0, 81, 108
2, 228856, Note_off_c, 0, 69, 0
2, 228886, Note_off_c, 0, 74, 0
2, 228886, Note_off_c, 0, 81, 0
2, 228887, Note_on_c, 0, 74, 93
2, 228887, Note_on_c, 0, 86, 107
2, 229906, Note_off_c, 0, 74, 0
2, 229906, Note_off_c, 0, 86, 0
2, 229907, Note_on_c, 0, 67, 93
2, 229907, Note_on_c, 0, 79, 107
2, 230916, Note_off_c, 0, 67, 0
2, 230916, Note_off_c, 0, 79, 0
2, 230917, Note_on_c, 0, 67, 93
2, 230917, Note_on_c, 0, 79, 103
2, 231939, Note_off_c, 0, 67, 0
2, 231969, Note_off_c, 0, 79, 0
2, 231970, Note_on_c, 0, 71, 93
2, 231970, Note_on_c, 0, 83, 107
2, 232447, Note_off_c, 0, 71, 0
2, 232477, Note_off_c, 0, 83, 0
2, 232478, Note_on_c, 0, 69, 93
2, 232478, Note_on_c, 0, 81, 107
2, 235519, Note_off_c, 0, 69, 0
2, 235519, Note_off_c, 0, 81, 0
2, 235524, Note_on_c, 0, 60, 98
2, 235524, Note_on_c, 0, 72, 112
2, 236035, Note_off_c, 0, 60, 0
2, 236065, Note_off_c, 0, 72, 0
2, 236066, Note_on_c, 0, 64, 101
2, 236543, Note_off_c, 0, 64, 0
2, 236574, Note_on_c, 0, 60, 94
2, 236574, Note_on_c, 0, 72, 108
2, 237048, Note_off_c, 0, 60, 0
2, 237078, Note_off_c, 0, 72, 0
2, 237079, Note_on_c, 0, 62, 93
2, 237079, Note_on_c, 0, 74, 107
2, 237484, Note_off_c, 0, 62, 0
2, 237484, Note_off_c, 0, 74, 0
2, 238099, Note_on_c, 0, 62, 93
2, 238099, Note_on_c, 0, 74, 107
2, 238494, Note_off_c, 0, 62, 0
2, 238494, Note_off_c, 0, 74, 0
2, 239109, Note_on_c, 0, 64, 93
2, 239109, Note_on_c, 0, 69, 93
2, 239109, Note_on_c, 0, 72, 93
2, 239109, Note_on_c, 0, 76, 107
2, 243217, Note_off_c, 0, 64, 0
2, 243217, Note_off_c, 0, 69, 0
2, 243217, Note_off_c, 0, 72, 0
2, 243217, Note_off_c, 0, 76, 0
2, 243217, End_track
3, 0, Start_track
3, 0, Unknown_meta_event, 9, 26, 50, 45, 32, 84, 65, 83, 67, 65, 77, 32, 85, 83, 45, 49, 50, 50, 32, 77, 75, 73, 73, 32, 77, 73, 68, 73
3, 0, Title_t, "Instrument3"
3, 0, Program_c, 0, 0
3, 0, Control_c, 0, 7, 111
3, 0, Control_c, 0, 10, 64
3, 0, Control_c, 0, 7, 112
3, 10, Note_on_c, 0, 38, 55
3, 10, Note_on_c, 0, 50, 70
3, 4095, Note_off_c, 0, 38, 0
3, 4095, Note_off_c, 0, 50, 0
3, 4100, Note_on_c, 0, 37, 55
3, 4100, Note_on_c, 0, 49, 70
3, 8191, Note_off_c, 0, 37, 0
3, 8191, Note_off_c, 0, 49, 0
3, 8196, Note_on_c, 0, 36, 54
3, 8196, Note_on_c, 0, 48, 70
3, 12287, Note_off_c, 0, 36, 0
3, 12287, Note_off_c, 0, 48, 0
3, 12292, Note_on_c, 0, 35, 54
3, 12292, Note_on_c, 0, 47, 70
3, 16383, Note_off_c, 0, 35, 0
3, 16383, Note_off_c, 0, 47, 0
3, 16388, Note_on_c, 0, 34, 47
3, 16388, Note_on_c, 0, 46, 63
3, 16929, Note_off_c, 0, 46, 0
3, 16930, Note_on_c, 0, 46, 52
3, 16960, Note_off_c, 0, 34, 0
3, 17438, Note_on_c, 0, 53, 53
3, 17468, Note_off_c, 0, 46, 0
3, 17943, Note_on_c, 0, 50, 52
3, 17973, Note_off_c, 0, 53, 0
3, 18453, Note_on_c, 0, 46, 55
3, 18483, Note_off_c, 0, 50, 0
3, 18963, Note_on_c, 0, 41, 52
3, 18993, Note_off_c, 0, 46, 0
3, 19468, Note_on_c, 0, 34, 51
3, 19498, Note_off_c, 0, 41, 0
3, 19973, Note_on_c, 0, 41, 52
3, 20003, Note_off_c, 0, 34, 0
3, 20484, Note_on_c, 0, 33, 70
3, 20510, Note_off_c, 0, 41, 0
3, 21026, Note_on_c, 0, 41, 52
3, 21056, Note_off_c, 0, 33, 0
3, 21534, Note_on_c, 0, 45, 53
3, 21564, Note_off_c, 0, 41, 0
3, 22039, Note_on_c, 0, 41, 52
3, 22069, Note_off_c, 0, 45, 0
3, 22549, Note_on_c, 0, 48, 55
3, 22579, Note_off_c, 0, 41, 0
3, 23059, Note_on_c, 0, 53, 52
3, 23089, Note_off_c, 0, 48, 0
3, 23564, Note_on_c, 0, 57, 53
3, 23594, Note_off_c, 0, 53, 0
3, 24069, Note_on_c, 0, 48, 52
3, 24099, Note_off_c, 0, 57, 0
3, 24580, Note_on_c, 0, 31, 70
3, 24606, Note_off_c, 0, 48, 0
3, 25122, Note_on_c, 0, 43, 52
3, 25152, Note_off_c, 0, 31, 0
3, 25630, Note_on_c, 0, 46, 53
3, 25660, Note_off_c, 0, 43, 0
3, 26135, Note_on_c, 0, 50, 52
3, 26165, Note_off_c, 0, 46, 0
3, 26645, Note_on_c, 0, 55, 55
3, 26675, Note_off_c, 0, 50, 0
3, 27155, Note_on_c, 0, 50, 52
3, 27185, Note_off_c, 0, 55, 0
3, 27660, Note_on_c, 0, 46, 53
3, 27690, Note_off_c, 0, 50, 0
3, 28165, Note_on_c, 0, 43, 52
3, 28195, Note_off_c, 0, 46, 0
3, 28676, Note_on_c, 0, 33, 62
3, 28676, Note_on_c, 0, 45, 79
3, 28702, Note_off_c, 0, 43, 0
3, 29217, Note_off_c, 0, 45, 0
3, 29218, Note_on_c, 0, 45, 52
3, 29248, Note_off_c, 0, 33, 0
3, 29726, Note_on_c, 0, 52, 53
3, 29756, Note_off_c, 0, 45, 0
3, 30231, Note_on_c, 0, 49, 52
3, 30261, Note_off_c, 0, 52, 0
3, 30741, Note_on_c, 0, 33, 44
3, 30741, Note_on_c, 0, 45, 61
3, 30771, Note_off_c, 0, 49, 0
3, 31250, Note_off_c, 0, 45, 0
3, 31251, Note_on_c, 0, 40, 51
3, 31281, Note_off_c, 0, 33, 0
3, 31756, Note_on_c, 0, 37, 52
3, 31786, Note_off_c, 0, 40, 0
3, 32261, Note_on_c, 0, 33, 49
3, 32291, Note_off_c, 0, 37, 0
3, 32772, Note_on_c, 0, 31, 54
3, 32798, Note_off_c, 0, 33, 0
3, 33314, Note_on_c, 0, 43, 52
3, 33344, Note_off_c, 0, 31, 0
3, 33822, Note_on_c, 0, 46, 53
3, 33852, Note_off_c, 0, 43, 0
3, 34327, Note_on_c, 0, 50, 52
3, 34357, Note_off_c, 0, 46, 0
3, 34837, Note_on_c, 0, 55, 55
3, 34867, Note_off_c, 0, 50, 0
3, 35347, Note_on_c, 0, 58, 52
3, 35377, Note_off_c, 0, 55, 0
3, 35882, Note_off_c, 0, 58, 0
3, 36868, Note_on_c, 0, 36, 67
3, 37379, Note_off_c, 0, 36, 0
3, 37410, Note_on_c, 0, 43, 64
3, 37887, Note_off_c, 0, 43, 0
3, 37918, Note_on_c, 0, 48, 65
3, 38392, Note_off_c, 0, 48, 0
3, 38423, Note_on_c, 0, 52, 64
3, 38902, Note_off_c, 0, 52, 0
3, 38933, Note_on_c, 0, 55, 67
3, 39412, Note_off_c, 0, 55, 0
3, 39443, Note_on_c, 0, 60, 64
3, 39917, Note_off_c, 0, 60, 0
3, 40964, Note_on_c, 0, 33, 66
3, 41475, Note_off_c, 0, 33, 0
3, 41506, Note_on_c, 0, 40, 63
3, 41983, Note_off_c, 0, 40, 0
3, 42014, Note_on_c, 0, 45, 65
3, 42488, Note_off_c, 0, 45, 0
3, 42519, Note_on_c, 0, 48, 64
3, 42998, Note_off_c, 0, 48, 0
3, 43029, Note_on_c, 0, 52, 67
3, 43508, Note_off_c, 0, 52, 0
3, 43539, Note_on_c, 0, 57, 64
3, 44013, Note_off_c, 0, 57, 0
3, 45060, Note_on_c, 0, 38, 56
3, 45602, Note_on_c, 0, 45, 52
3, 45632, Note_off_c, 0, 38, 0
3, 46110, Note_on_c, 0, 50, 53
3, 46140, Note_off_c, 0, 45, 0
3, 46615, Note_on_c, 0, 53, 52
3, 46645, Note_off_c, 0, 50, 0
3, 47125, Note_on_c, 0, 57, 55
3, 47155, Note_off_c, 0, 53, 0
3, 47635, Note_on_c, 0, 53, 52
3, 47665, Note_off_c, 0, 57, 0
3, 48140, Note_on_c, 0, 50, 53
3, 48170, Note_off_c, 0, 53, 0
3, 48645, Note_on_c, 0, 45, 52
3, 48675, Note_off_c, 0, 50, 0
3, 49156, Note_on_c, 0, 31, 54
3, 49182, Note_off_c, 0, 45, 0
3, 49698, Note_on_c, 0, 43, 52
3, 49728, Note_off_c, 0, 31, 0
3, 50206, Note_on_c, 0, 46, 53
3, 50236, Note_off_c, 0, 43, 0
3, 50711, Note_on_c, 0, 50, 52
3, 50741, Note_off_c, 0, 46, 0
3, 51221, Note_on_c, 0, 55, 55
3, 51251, Note_off_c, 0, 50, 0
3, 51731, Note_on_c, 0, 58, 52
3, 51761, Note_off_c, 0, 55, 0
3, 52266, Note_off_c, 0, 58, 0
3, 53252, Note_on_c, 0, 33, 66
3, 53763, Note_off_c, 0, 33, 0
3, 53794, Note_on_c, 0, 40, 63
3, 54271, Note_off_c, 0, 40, 0
3, 54302, Note_on_c, 0, 45, 65
3, 54776, Note_off_c, 0, 45, 0
3, 54807, Note_on_c, 0, 48, 64
3, 55286, Note_off_c, 0, 48, 0
3, 55317, Note_on_c, 0, 52, 67
3, 55796, Note_off_c, 0, 52, 0
3, 57348, Note_on_c, 0, 38, 60
3, 57348, Note_on_c, 0, 50, 75
3, 57859, Note_off_c, 0, 38, 0
3, 57889, Note_off_c, 0, 50, 0
3, 57890, Note_on_c, 0, 36, 70
3, 57890, Note_on_c, 0, 48, 86
3, 58367, Note_off_c, 0, 36, 0
3, 58397, Note_off_c, 0, 48, 0
3, 58398, Note_on_c, 0, 37, 72
3, 58398, Note_on_c, 0, 49, 87
3, 58872, Note_off_c, 0, 37, 0
3, 58902, Note_off_c, 0, 49, 0
3, 58903, Note_on_c, 0, 38, 71
3, 58903, Note_on_c, 0, 50, 86
3, 59382, Note_off_c, 0, 38, 0
3, 59412, Note_off_c, 0, 50, 0
3, 59923, Note_on_c, 0, 26, 67
3, 59923, Note_on_c, 0, 38, 85
3, 60171, Note_off_c, 0, 26, 0
3, 60171, Note_off_c, 0, 38, 0
3, 60428, Note_on_c, 0, 28, 69
3, 60428, Note_on_c, 0, 40, 86
3, 60676, Note_off_c, 0, 28, 0
3, 60676, Note_off_c, 0, 40, 0
3, 60933, Note_on_c, 0, 29, 68
3, 60933, Note_on_c, 0, 41, 86
3, 63002, Note_off_c, 0, 29, 0
3, 63002, Note_off_c, 0, 41, 0
3, 63003, Note_on_c, 0, 48, 60
3, 63003, Note_on_c, 0, 60, 74
3, 63509, Note_off_c, 0, 60, 0
3, 63510, Note_on_c, 0, 55, 68
3, 63540, Note_off_c, 0, 48, 0
3, 64019, Note_on_c, 0, 52, 68
3, 64049, Note_off_c, 0, 55, 0
3, 64535, Note_on_c, 0, 48, 68
3, 64565, Note_off_c, 0, 52, 0
3, 65051, Note_on_c, 0, 43, 68
3, 65081, Note_off_c, 0, 48, 0
3, 65557, Note_on_c, 0, 40, 67
3, 65587, Note_off_c, 0, 43, 0
3, 66059, Note_on_c, 0, 36, 66
3, 66089, Note_off_c, 0, 40, 0
3, 66561, Note_on_c, 0, 31, 65
3, 66591, Note_off_c, 0, 36, 0
3, 67068, Note_on_c, 0, 24, 62
3, 67098, Note_off_c, 0, 31, 0
3, 67588, Note_on_c, 0, 31, 54
3, 67614, Note_off_c, 0, 24, 0
3, 68130, Note_on_c, 0, 43, 52
3, 68160, Note_off_c, 0, 31, 0
3, 68638, Note_on_c, 0, 46, 53
3, 68668, Note_off_c, 0, 43, 0
3, 69143, Note_on_c, 0, 50, 52
3, 69173, Note_off_c, 0, 46, 0
3, 69653, Note_on_c, 0, 55, 55
3, 69683, Note_off_c, 0, 50, 0
3, 70163, Note_on_c, 0, 58, 52
3, 70193, Note_off_c, 0, 55, 0
3, 70698, Note_off_c, 0, 58, 0
3, 71684, Note_on_c, 0, 36, 67
3, 72195, Note_off_c, 0, 36, 0
3, 72226, Note_on_c, 0, 43, 64
3, 72703, Note_off_c, 0, 43, 0
3, 72734, Note_on_c, 0, 48, 65
3, 73208, Note_off_c, 0, 48, 0
3, 73239, Note_on_c, 0, 52, 64
3, 73718, Note_off_c, 0, 52, 0
3, 73749, Note_on_c, 0, 55, 67
3, 74228, Note_off_c, 0, 55, 0
3, 74259, Note_on_c, 0, 60, 64
3, 74733, Note_off_c, 0, 60, 0
3, 75780, Note_on_c, 0, 33, 66
3, 76291, Note_off_c, 0, 33, 0
3, 76322, Note_on_c, 0, 40, 63
3, 76799, Note_off_c, 0, 40, 0
3, 76830, Note_on_c, 0, 45, 65
3, 77304, Note_off_c, 0, 45, 0
3, 77335, Note_on_c, 0, 48, 64
3, 77814, Note_off_c, 0, 48, 0
3, 77845, Note_on_c, 0, 52, 67
3, 78324, Note_off_c, 0, 52, 0
3, 78355, Note_on_c, 0, 57, 64
3, 78829, Note_off_c, 0, 57, 0
3, 79876, Note_on_c, 0, 38, 56
3, 80418, Note_on_c, 0, 45, 52
3, 80448, Note_off_c, 0, 38, 0
3, 80926, Note_on_c, 0, 50, 53
3, 80956, Note_off_c, 0, 45, 0
3, 81431, Note_on_c, 0, 53, 52
3, 81461, Note_off_c, 0, 50, 0
3, 81941, Note_on_c, 0, 57, 55
3, 81971, Note_off_c, 0, 53, 0
3, 82451, Note_on_c, 0, 53, 52
3, 82481, Note_off_c, 0, 57, 0
3, 82956, Note_on_c, 0, 50, 53
3, 82986, Note_off_c, 0, 53, 0
3, 83461, Note_on_c, 0, 45, 52
3, 83491, Note_off_c, 0, 50, 0
3, 83972, Note_on_c, 0, 31, 54
3, 83998, Note_off_c, 0, 45, 0
3, 84514, Note_on_c, 0, 43, 52
3, 84544, Note_off_c, 0, 31, 0
3, 85022, Note_on_c, 0, 46, 53
3, 85052, Note_off_c, 0, 43, 0
3, 85527, Note_on_c, 0, 50, 52
3, 85557, Note_off_c, 0, 46, 0
3, 86037, Note_on_c, 0, 55, 55
3, 86067, Note_off_c, 0, 50, 0
3, 86547, Note_on_c, 0, 58, 52
3, 86577, Note_off_c, 0, 55, 0
3, 87082, Note_off_c, 0, 58, 0
3, 88068, Note_on_c, 0, 36, 67
3, 88579, Note_off_c, 0, 36, 0
3, 88610, Note_on_c, 0, 43, 64
3, 89087, Note_off_c, 0, 43, 0
3, 89118, Note_on_c, 0, 48, 65
3, 89592, Note_off_c, 0, 48, 0
3, 89623, Note_on_c, 0, 52, 64
3, 90102, Note_off_c, 0, 52, 0
3, 90133, Note_on_c, 0, 55, 67
3, 90612, Note_off_c, 0, 55, 0
3, 92164, Note_on_c, 0, 38, 60
3, 92164, Note_on_c, 0, 50, 75
3, 92675, Note_off_c, 0, 38, 0
3, 92705, Note_off_c, 0, 50, 0
3, 92706, Note_on_c, 0, 45, 64
3, 93183, Note_off_c, 0, 45, 0
3, 93214, Note_on_c, 0, 38, 64
3, 93688, Note_off_c, 0, 38, 0
3, 93719, Note_on_c, 0, 50, 64
3, 94198, Note_off_c, 0, 50, 0
3, 94229, Note_on_c, 0, 33, 56
3, 94229, Note_on_c, 0, 45, 73
3, 94708, Note_off_c, 0, 33, 0
3, 94738, Note_off_c, 0, 45, 0
3, 94739, Note_on_c, 0, 40, 63
3, 95243, Note_off_c, 0, 40, 0
3, 95244, Note_on_c, 0, 33, 54
3, 95244, Note_on_c, 0, 40, 70
3, 95718, Note_off_c, 0, 33, 0
3, 95748, Note_off_c, 0, 40, 0
3, 95749, Note_on_c, 0, 26, 51
3, 95749, Note_on_c, 0, 38, 69
3, 96801, Note_off_c, 0, 26, 0
3, 96801, Note_off_c, 0, 38, 0
3, 96802, Note_on_c, 0, 26, 51
3, 96802, Note_on_c, 0, 38, 65
3, 97309, Note_off_c, 0, 26, 0
3, 97309, Note_off_c, 0, 38, 0
3, 97310, Note_on_c, 0, 26, 52
3, 97310, Note_on_c, 0, 38, 70
3, 98324, Note_off_c, 0, 26, 0
3, 98324, Note_off_c, 0, 38, 0
3, 98325, Note_on_c, 0, 38, 58
3, 98325, Note_on_c, 0, 50, 73
3, 98527, Note_off_c, 0, 38, 0
3, 98527, Note_off_c, 0, 50, 0
3, 99340, Note_on_c, 0, 36, 55
3, 99340, Note_on_c, 0, 48, 71
3, 99537, Note_off_c, 0, 36, 0
3, 99537, Note_off_c, 0, 48, 0
3, 99845, Note_on_c, 0, 34, 54
3, 99845, Note_on_c, 0, 46, 70
3, 100321, Note_off_c, 0, 34, 0
3, 100351, Note_off_c, 0, 46, 0
3, 100356, Note_on_c, 0, 46, 69
3, 100867, Note_off_c, 0, 46, 0
3, 100898, Note_on_c, 0, 50, 64
3, 101375, Note_off_c, 0, 50, 0
3, 101406, Note_on_c, 0, 53, 65
3, 101880, Note_off_c, 0, 53, 0
3, 101911, Note_on_c, 0, 50, 64
3, 102390, Note_off_c, 0, 50, 0
3, 102421, Note_on_c, 0, 41, 67
3, 102900, Note_off_c, 0, 41, 0
3, 102931, Note_on_c, 0, 34, 62
3, 103405, Note_off_c, 0, 34, 0
3, 103436, Note_on_c, 0, 41, 65
3, 104447, Note_off_c, 0, 41, 0
3, 104452, Note_on_c, 0, 36, 55
3, 104994, Note_on_c, 0, 43, 52
3, 105024, Note_off_c, 0, 36, 0
3, 105502, Note_on_c, 0, 48, 53
3, 105532, Note_off_c, 0, 43, 0
3, 106007, Note_on_c, 0, 52, 52
3, 106037, Note_off_c, 0, 48, 0
3, 106517, Note_on_c, 0, 55, 55
3, 106547, Note_off_c, 0, 52, 0
3, 107027, Note_on_c, 0, 60, 52
3, 107057, Note_off_c, 0, 55, 0
3, 107532, Note_on_c, 0, 55, 53
3, 107562, Note_off_c, 0, 60, 0
3, 108037, Note_on_c, 0, 52, 52
3, 108067, Note_off_c, 0, 55, 0
3, 108548, Note_on_c, 0, 33, 54
3, 108574, Note_off_c, 0, 52, 0
3, 109090, Note_on_c, 0, 40, 51
3, 109120, Note_off_c, 0, 33, 0
3, 109598, Note_on_c, 0, 45, 53
3, 109628, Note_off_c, 0, 40, 0
3, 110103, Note_on_c, 0, 48, 52
3, 110133, Note_off_c, 0, 45, 0
3, 110613, Note_on_c, 0, 52, 55
3, 110643, Note_off_c, 0, 48, 0
3, 111123, Note_on_c, 0, 57, 52
3, 111153, Note_off_c, 0, 52, 0
3, 111658, Note_off_c, 0, 57, 0
3, 112644, Note_on_c, 0, 38, 56
3, 113186, Note_on_c, 0, 45, 52
3, 113216, Note_off_c, 0, 38, 0
3, 113694, Note_on_c, 0, 50, 53
3, 113724, Note_off_c, 0, 45, 0
3, 114199, Note_on_c, 0, 53, 52
3, 114229, Note_off_c, 0, 50, 0
3, 114709, Note_on_c, 0, 57, 55
3, 114739, Note_off_c, 0, 53, 0
3, 115219, Note_on_c, 0, 53, 52
3, 115249, Note_off_c, 0, 57, 0
3, 115724, Note_on_c, 0, 50, 53
3, 115754, Note_off_c, 0, 53, 0
3, 116229, Note_on_c, 0, 45, 52
3, 116259, Note_off_c, 0, 50, 0
3, 116740, Note_on_c, 0, 31, 54
3, 116766, Note_off_c, 0, 45, 0
3, 117282, Note_on_c, 0, 43, 52
3, 117312, Note_off_c, 0, 31, 0
3, 117790, Note_on_c, 0, 46, 53
3, 117820, Note_off_c, 0, 43, 0
3, 118295, Note_on_c, 0, 50, 52
3, 118325, Note_off_c, 0, 46, 0
3, 118805, Note_on_c, 0, 55, 55
3, 118835, Note_off_c, 0, 50, 0
3, 119315, Note_on_c, 0, 58, 52
3, 119345, Note_off_c, 0, 55, 0
3, 119850, Note_off_c, 0, 58, 0
3, 120836, Note_on_c, 0, 33, 66
3, 121347, Note_off_c, 0, 33, 0
3, 121378, Note_on_c, 0, 40, 63
3, 121855, Note_off_c, 0, 40, 0
3, 121886, Note_on_c, 0, 45, 65
3, 122360, Note_off_c, 0, 45, 0
3, 122391, Note_on_c, 0, 48, 64
3, 122870, Note_off_c, 0, 48, 0
3, 122901, Note_on_c, 0, 52, 67
3, 123380, Note_off_c, 0, 52, 0
3, 123411, Note_on_c, 0, 57, 64
3, 123885, Note_off_c, 0, 57, 0
3, 124932, Note_on_c, 0, 34, 59
3, 124932, Note_on_c, 0, 46, 75
3, 125443, Note_off_c, 0, 34, 0
3, 125473, Note_off_c, 0, 46, 0
3, 125474, Note_on_c, 0, 46, 64
3, 125951, Note_off_c, 0, 46, 0
3, 125982, Note_on_c, 0, 53, 65
3, 126456, Note_off_c, 0, 53, 0
3, 126487, Note_on_c, 0, 36, 54
3, 126487, Note_on_c, 0, 48, 70
3, 128011, Note_off_c, 0, 36, 0
3, 128011, Note_off_c, 0, 48, 0
3, 128012, Note_on_c, 0, 48, 57
3, 128012, Note_on_c, 0, 60, 71
3, 128486, Note_off_c, 0, 48, 0
3, 128516, Note_off_c, 0, 60, 0
3, 128517, Note_on_c, 0, 38, 55
3, 128517, Note_on_c, 0, 50, 70
3, 129569, Note_off_c, 0, 38, 0
3, 129569, Note_off_c, 0, 50, 0
3, 129570, Note_on_c, 0, 26, 51
3, 129570, Note_on_c, 0, 38, 69
3, 130077, Note_off_c, 0, 26, 0
3, 130077, Note_off_c, 0, 38, 0
3, 130078, Note_on_c, 0, 26, 52
3, 130078, Note_on_c, 0, 38, 70
3, 131092, Note_off_c, 0, 26, 0
3, 131092, Note_off_c, 0, 38, 0
3, 131093, Note_on_c, 0, 38, 58
3, 131093, Note_on_c, 0, 50, 73
3, 131295, Note_off_c, 0, 38, 0
3, 131295, Note_off_c, 0, 50, 0
3, 132108, Note_on_c, 0, 36, 55
3, 132108, Note_on_c, 0, 48, 71
3, 132305, Note_off_c, 0, 36, 0
3, 132305, Note_off_c, 0, 48, 0
3, 132613, Note_on_c, 0, 34, 54
3, 132613, Note_on_c, 0, 46, 70
3, 133089, Note_off_c, 0, 34, 0
3, 133119, Note_off_c, 0, 46, 0
3, 133124, Note_on_c, 0, 46, 69
3, 133635, Note_off_c, 0, 46, 0
3, 133666, Note_on_c, 0, 50, 64
3, 134143, Note_off_c, 0, 50, 0
3, 134174, Note_on_c, 0, 53, 65
3, 134648, Note_off_c, 0, 53, 0
3, 134679, Note_on_c, 0, 50, 64
3, 135158, Note_off_c, 0, 50, 0
3, 135189, Note_on_c, 0, 41, 67
3, 135668, Note_off_c, 0, 41, 0
3, 135699, Note_on_c, 0, 34, 62
3, 136173, Note_off_c, 0, 34, 0
3, 136204, Note_on_c, 0, 41, 65
3, 137215, Note_off_c, 0, 41, 0
3, 137220, Note_on_c, 0, 36, 55
3, 137762, Note_on_c, 0, 43, 52
3, 137792, Note_off_c, 0, 36, 0
3, 138270, Note_on_c, 0, 48, 53
3, 138300, Note_off_c, 0, 43, 0
3, 138775, Note_on_c, 0, 52, 52
3, 138805, Note_off_c, 0, 48, 0
3, 139285, Note_on_c, 0, 55, 55
3, 139315, Note_off_c, 0, 52, 0
3, 139795, Note_on_c, 0, 60, 52
3, 139825, Note_off_c, 0, 55, 0
3, 140300, Note_on_c, 0, 55, 53
3, 140330, Note_off_c, 0, 60, 0
3, 140805, Note_on_c, 0, 52, 52
3, 140835, Note_off_c, 0, 55, 0
3, 141316, Note_on_c, 0, 33, 54
3, 141342, Note_off_c, 0, 52, 0
3, 141858, Note_on_c, 0, 40, 51
3, 141888, Note_off_c, 0, 33, 0
3, 142366, Note_on_c, 0, 45, 53
3, 142396, Note_off_c, 0, 40, 0
3, 142871, Note_on_c, 0, 48, 52
3, 142901, Note_off_c, 0, 45, 0
3, 143381, Note_on_c, 0, 52, 55
3, 143411, Note_off_c, 0, 48, 0
3, 143891, Note_on_c, 0, 57, 52
3, 143921, Note_off_c, 0, 52, 0
3, 144396, Note_on_c, 0, 52, 65
3, 144426, Note_off_c, 0, 57, 0
3, 145407, Note_off_c, 0, 52, 0
3, 145412, Note_on_c, 0, 38, 68
3, 145923, Note_off_c, 0, 38, 0
3, 145954, Note_on_c, 0, 45, 64
3, 146431, Note_off_c, 0, 45, 0
3, 146462, Note_on_c, 0, 50, 65
3, 146936, Note_off_c, 0, 50, 0
3, 146967, Note_on_c, 0, 53, 64
3, 147446, Note_off_c, 0, 53, 0
3, 147477, Note_on_c, 0, 57, 67
3, 147956, Note_off_c, 0, 57, 0
3, 147987, Note_on_c, 0, 53, 64
3, 148461, Note_off_c, 0, 53, 0
3, 148492, Note_on_c, 0, 50, 65
3, 148966, Note_off_c, 0, 50, 0
3, 148997, Note_on_c, 0, 45, 64
3, 149473, Note_off_c, 0, 45, 0
3, 149508, Note_on_c, 0, 31, 58
3, 149508, Note_on_c, 0, 43, 75
3, 150019, Note_off_c, 0, 31, 0
3, 150049, Note_off_c, 0, 43, 0
3, 150050, Note_on_c, 0, 43, 64
3, 150527, Note_off_c, 0, 43, 0
3, 150558, Note_on_c, 0, 46, 57
3, 150558, Note_on_c, 0, 58, 71
3, 151032, Note_off_c, 0, 46, 0
3, 151062, Note_off_c, 0, 58, 0
3, 151063, Note_on_c, 0, 43, 64
3, 151542, Note_off_c, 0, 43, 0
3, 151573, Note_on_c, 0, 46, 59
3, 151573, Note_on_c, 0, 58, 73
3, 152052, Note_off_c, 0, 46, 0
3, 152082, Note_off_c, 0, 58, 0
3, 152083, Note_on_c, 0, 43, 64
3, 152557, Note_off_c, 0, 43, 0
3, 152588, Note_on_c, 0, 46, 57
3, 152588, Note_on_c, 0, 58, 71
3, 153062, Note_off_c, 0, 46, 0
3, 153092, Note_off_c, 0, 58, 0
3, 153093, Note_on_c, 0, 43, 64
3, 153569, Note_off_c, 0, 43, 0
3, 153604, Note_on_c, 0, 33, 58
3, 153604, Note_on_c, 0, 45, 75
3, 154115, Note_off_c, 0, 33, 0
3, 154145, Note_off_c, 0, 45, 0
3, 154146, Note_on_c, 0, 45, 64
3, 154623, Note_off_c, 0, 45, 0
3, 154654, Note_on_c, 0, 52, 57
3, 154654, Note_on_c, 0, 60, 71
3, 155128, Note_off_c, 0, 52, 0
3, 155158, Note_off_c, 0, 60, 0
3, 155159, Note_on_c, 0, 45, 64
3, 155638, Note_off_c, 0, 45, 0
3, 155669, Note_on_c, 0, 52, 59
3, 155669, Note_on_c, 0, 60, 73
3, 156148, Note_off_c, 0, 52, 0
3, 156178, Note_off_c, 0, 60, 0
3, 156179, Note_on_c, 0, 45, 64
3, 156653, Note_off_c, 0, 45, 0
3, 156684, Note_on_c, 0, 52, 57
3, 156684, Note_on_c, 0, 60, 71
3, 157158, Note_off_c, 0, 52, 0
3, 157188, Note_off_c, 0, 60, 0
3, 157189, Note_on_c, 0, 34, 54
3, 157189, Note_on_c, 0, 46, 70
3, 158749, Note_off_c, 0, 34, 0
3, 158749, Note_off_c, 0, 46, 0
3, 158750, Note_on_c, 0, 46, 65
3, 159224, Note_off_c, 0, 46, 0
3, 159255, Note_on_c, 0, 33, 53
3, 159255, Note_on_c, 0, 45, 70
3, 160274, Note_off_c, 0, 33, 0
3, 160274, Note_off_c, 0, 45, 0
3, 160275, Note_on_c, 0, 45, 64
3, 160749, Note_off_c, 0, 45, 0
3, 160780, Note_on_c, 0, 49, 57
3, 160780, Note_on_c, 0, 52, 57
3, 160780, Note_on_c, 0, 57, 71
3, 161254, Note_off_c, 0, 49, 0
3, 161254, Note_off_c, 0, 52, 0
3, 161284, Note_off_c, 0, 57, 0
3, 161285, Note_on_c, 0, 34, 54
3, 161285, Note_on_c, 0, 46, 70
3, 162307, Note_off_c, 0, 34, 0
3, 162337, Note_off_c, 0, 46, 0
3, 162338, Note_on_c, 0, 46, 64
3, 163350, Note_off_c, 0, 46, 0
3, 163351, Note_on_c, 0, 36, 54
3, 163351, Note_on_c, 0, 48, 70
3, 164875, Note_off_c, 0, 36, 0
3, 164875, Note_off_c, 0, 48, 0
3, 164876, Note_on_c, 0, 48, 57
3, 164876, Note_on_c, 0, 55, 57
3, 164876, Note_on_c, 0, 60, 71
3, 165887, Note_off_c, 0, 48, 0
3, 165887, Note_off_c, 0, 55, 0
3, 165887, Note_off_c, 0, 60, 0
3, 165892, Note_on_c, 0, 33, 58
3, 165892, Note_on_c, 0, 45, 75
3, 166941, Note_off_c, 0, 33, 0
3, 166941, Note_off_c, 0, 45, 0
3, 166942, Note_on_c, 0, 43, 57
3, 166942, Note_on_c, 0, 55, 71
3, 167416, Note_off_c, 0, 43, 0
3, 167446, Note_off_c, 0, 55, 0
3, 167447, Note_on_c, 0, 41, 56
3, 167447, Note_on_c, 0, 53, 70
3, 167926, Note_off_c, 0, 41, 0
3, 167956, Note_off_c, 0, 53, 0
3, 167957, Note_on_c, 0, 40, 58
3, 167957, Note_on_c, 0, 52, 73
3, 168436, Note_off_c, 0, 40, 0
3, 168466, Note_off_c, 0, 52, 0
3, 168467, Note_on_c, 0, 38, 55
3, 168467, Note_on_c, 0, 50, 70
3, 168941, Note_off_c, 0, 38, 0
3, 168971, Note_off_c, 0, 50, 0
3, 168972, Note_on_c, 0, 36, 55
3, 168972, Note_on_c, 0, 48, 71
3, 169446, Note_off_c, 0, 36, 0
3, 169476, Note_off_c, 0, 48, 0
3, 169477, Note_on_c, 0, 35, 54
3, 169477, Note_on_c, 0, 47, 70
3, 169953, Note_off_c, 0, 35, 0
3, 169983, Note_off_c, 0, 47, 0
3, 169988, Note_on_c, 0, 33, 58
3, 169988, Note_on_c, 0, 45, 75
3, 170499, Note_off_c, 0, 33, 0
3, 170529, Note_off_c, 0, 45, 0
3, 170530, Note_on_c, 0, 45, 64
3, 171007, Note_off_c, 0, 45, 0
3, 171038, Note_on_c, 0, 52, 57
3, 171038, Note_on_c, 0, 60, 71
3, 171512, Note_off_c, 0, 52, 0
3, 171542, Note_off_c, 0, 60, 0
3, 171543, Note_on_c, 0, 31, 53
3, 171543, Note_on_c, 0, 43, 70
3, 172562, Note_off_c, 0, 31, 0
3, 172562, Note_off_c, 0, 43, 0
3, 172563, Note_on_c, 0, 43, 64
3, 173037, Note_off_c, 0, 43, 0
3, 173068, Note_on_c, 0, 52, 57
3, 173068, Note_on_c, 0, 59, 71
3, 174079, Note_off_c, 0, 52, 0
3, 174079, Note_off_c, 0, 59, 0
3, 174084, Note_on_c, 0, 29, 57
3, 174084, Note_on_c, 0, 41, 75
3, 174595, Note_off_c, 0, 29, 0
3, 174625, Note_off_c, 0, 41, 0
3, 174626, Note_on_c, 0, 41, 64
3, 175103, Note_off_c, 0, 41, 0
3, 175134, Note_on_c, 0, 53, 65
3, 175638, Note_off_c, 0, 53, 0
3, 175639, Note_on_c, 0, 53, 64
3, 176118, Note_off_c, 0, 53, 0
3, 176149, Note_on_c, 0, 57, 59
3, 176149, Note_on_c, 0, 60, 73
3, 176628, Note_off_c, 0, 57, 0
3, 176658, Note_off_c, 0, 60, 0
3, 176659, Note_on_c, 0, 53, 64
3, 177163, Note_off_c, 0, 53, 0
3, 177164, Note_on_c, 0, 41, 57
3, 177164, Note_on_c, 0, 53, 71
3, 177638, Note_off_c, 0, 41, 0
3, 177668, Note_off_c, 0, 53, 0
3, 177669, Note_on_c, 0, 48, 64
3, 178145, Note_off_c, 0, 48, 0
3, 178180, Note_on_c, 0, 26, 56
3, 178180, Note_on_c, 0, 38, 74
3, 178691, Note_off_c, 0, 26, 0
3, 178721, Note_off_c, 0, 38, 0
3, 178722, Note_on_c, 0, 50, 64
3, 179199, Note_off_c, 0, 50, 0
3, 179230, Note_on_c, 0, 57, 57
3, 179230, Note_on_c, 0, 62, 71
3, 179704, Note_off_c, 0, 57, 0
3, 179734, Note_off_c, 0, 62, 0
3, 179735, Note_on_c, 0, 31, 53
3, 179735, Note_on_c, 0, 43, 70
3, 180754, Note_off_c, 0, 31, 0
3, 180754, Note_off_c, 0, 43, 0
3, 180755, Note_on_c, 0, 43, 56
3, 180755, Note_on_c, 0, 50, 56
3, 180755, Note_on_c, 0, 55, 70
3, 181764, Note_off_c, 0, 43, 0
3, 181764, Note_off_c, 0, 50, 0
3, 181764, Note_off_c, 0, 55, 0
3, 181765, Note_on_c, 0, 36, 54
3, 181765, Note_on_c, 0, 48, 70
3, 183325, Note_off_c, 0, 36, 0
3, 183325, Note_off_c, 0, 48, 0
3, 183326, Note_on_c, 0, 48, 57
3, 183326, Note_on_c, 0, 55, 71
3, 184340, Note_off_c, 0, 48, 0
3, 184340, Note_off_c, 0, 55, 0
3, 184341, Note_on_c, 0, 40, 58
3, 184341, Note_on_c, 0, 52, 73
3, 185355, Note_off_c, 0, 40, 0
3, 185355, Note_off_c, 0, 52, 0
3, 185356, Note_on_c, 0, 28, 53
3, 185356, Note_on_c, 0, 40, 70
3, 186367, Note_off_c, 0, 28, 0
3, 186367, Note_off_c, 0, 40, 0
3, 186372, Note_on_c, 0, 33, 58
3, 186372, Note_on_c, 0, 45, 75
3, 186883, Note_off_c, 0, 33, 0
3, 186913, Note_off_c, 0, 45, 0
3, 186914, Note_on_c, 0, 45, 64
3, 187391, Note_off_c, 0, 45, 0
3, 187422, Note_on_c, 0, 52, 57
3, 187422, Note_on_c, 0, 60, 71
3, 187896, Note_off_c, 0, 52, 0
3, 187926, Note_off_c, 0, 60, 0
3, 187927, Note_on_c, 0, 31, 53
3, 187927, Note_on_c, 0, 43, 70
3, 188946, Note_off_c, 0, 31, 0
3, 188946, Note_off_c, 0, 43, 0
3, 188947, Note_on_c, 0, 43, 64
3, 189421, Note_off_c, 0, 43, 0
3, 189452, Note_on_c, 0, 52, 57
3, 189452, Note_on_c, 0, 59, 71
3, 190463, Note_off_c, 0, 52, 0
3, 190463, Note_off_c, 0, 59, 0
3, 190468, Note_on_c, 0, 29, 57
3, 190468, Note_on_c, 0, 41, 75
3, 190979, Note_off_c, 0, 29, 0
3, 191009, Note_off_c, 0, 41, 0
3, 191010, Note_on_c, 0, 41, 64
3, 191487, Note_off_c, 0, 41, 0
3, 191518, Note_on_c, 0, 53, 65
3, 192022, Note_off_c, 0, 53, 0
3, 192023, Note_on_c, 0, 53, 64
3, 192502, Note_off_c, 0, 53, 0
3, 192533, Note_on_c, 0, 57, 59
3, 192533, Note_on_c, 0, 60, 73
3, 193012, Note_off_c, 0, 57, 0
3, 193042, Note_off_c, 0, 60, 0
3, 193043, Note_on_c, 0, 53, 64
3, 193547, Note_off_c, 0, 53, 0
3, 193548, Note_on_c, 0, 41, 57
3, 193548, Note_on_c, 0, 53, 71
3, 194022, Note_off_c, 0, 41, 0
3, 194052, Note_off_c, 0, 53, 0
3, 194053, Note_on_c, 0, 48, 64
3, 194529, Note_off_c, 0, 48, 0
3, 194564, Note_on_c, 0, 26, 56
3, 194564, Note_on_c, 0, 38, 74
3, 195075, Note_off_c, 0, 26, 0
3, 195105, Note_off_c, 0, 38, 0
3, 195106, Note_on_c, 0, 50, 64
3, 195583, Note_off_c, 0, 50, 0
3, 195614, Note_on_c, 0, 57, 57
3, 195614, Note_on_c, 0, 62, 71
3, 196088, Note_off_c, 0, 57, 0
3, 196118, Note_off_c, 0, 62, 0
3, 196119, Note_on_c, 0, 31, 53
3, 196119, Note_on_c, 0, 43, 70
3, 197138, Note_off_c, 0, 31, 0
3, 197138, Note_off_c, 0, 43, 0
3, 197139, Note_on_c, 0, 43, 56
3, 197139, Note_on_c, 0, 50, 56
3, 197139, Note_on_c, 0, 55, 70
3, 198148, Note_off_c, 0, 43, 0
3, 198148, Note_off_c, 0, 50, 0
3, 198148, Note_off_c, 0, 55, 0
3, 198149, Note_on_c, 0, 33, 53
3, 198149, Note_on_c, 0, 45, 70
3, 199171, Note_off_c, 0, 33, 0
3, 199201, Note_off_c, 0, 45, 0
3, 199202, Note_on_c, 0, 45, 56
3, 199202, Note_on_c, 0, 57, 70
3, 199679, Note_off_c, 0, 45, 0
3, 199709, Note_off_c, 0, 57, 0
3, 199710, Note_on_c, 0, 43, 57
3, 199710, Note_on_c, 0, 55, 71
3, 200184, Note_off_c, 0, 43, 0
3, 200214, Note_off_c, 0, 55, 0
3, 200215, Note_on_c, 0, 41, 56
3, 200215, Note_on_c, 0, 53, 70
3, 200694, Note_off_c, 0, 41, 0
3, 200724, Note_off_c, 0, 53, 0
3, 200725, Note_on_c, 0, 40, 58
3, 200725, Note_on_c, 0, 52, 73
3, 201204, Note_off_c, 0, 40, 0
3, 201234, Note_off_c, 0, 52, 0
3, 201235, Note_on_c, 0, 38, 55
3, 201235, Note_on_c, 0, 50, 70
3, 201709, Note_off_c, 0, 38, 0
3, 201739, Note_off_c, 0, 50, 0
3, 201740, Note_on_c, 0, 36, 55
3, 201740, Note_on_c, 0, 48, 71
3, 202214, Note_off_c, 0, 36, 0
3, 202244, Note_off_c, 0, 48, 0
3, 202245, Note_on_c, 0, 35, 54
3, 202245, Note_on_c, 0, 47, 70
3, 202721, Note_off_c, 0, 35, 0
3, 202751, Note_off_c, 0, 47, 0
3, 202756, Note_on_c, 0, 33, 58
3, 202756, Note_on_c, 0, 45, 75
3, 203267, Note_off_c, 0, 33, 0
3, 203297, Note_off_c, 0, 45, 0
3, 203298, Note_on_c, 0, 45, 64
3, 203775, Note_off_c, 0, 45, 0
3, 203806, Note_on_c, 0, 52, 57
3, 203806, Note_on_c, 0, 60, 71
3, 204280, Note_off_c, 0, 52, 0
3, 204310, Note_off_c, 0, 60, 0
3, 204311, Note_on_c, 0, 31, 53
3, 204311, Note_on_c, 0, 43, 70
3, 205330, Note_off_c, 0, 31, 0
3, 205330, Note_off_c, 0, 43, 0
3, 205331, Note_on_c, 0, 43, 64
3, 205805, Note_off_c, 0, 43, 0
3, 205836, Note_on_c, 0, 52, 57
3, 205836, Note_on_c, 0, 59, 71
3, 206847, Note_off_c, 0, 52, 0
3, 206847, Note_off_c, 0, 59, 0
3, 206852, Note_on_c, 0, 29, 57
3, 206852, Note_on_c, 0, 41, 75
3, 207363, Note_off_c, 0, 29, 0
3, 207393, Note_off_c, 0, 41, 0
3, 207394, Note_on_c, 0, 41, 64
3, 207871, Note_off_c, 0, 41, 0
3, 207902, Note_on_c, 0, 53, 65
3, 208406, Note_off_c, 0, 53, 0
3, 208407, Note_on_c, 0, 53, 64
3, 208886, Note_off_c, 0, 53, 0
3, 208917, Note_on_c, 0, 57, 59
3, 208917, Note_on_c, 0, 60, 73
3, 209396, Note_off_c, 0, 57, 0
3, 209426, Note_off_c, 0, 60, 0
3, 209427, Note_on_c, 0, 53, 64
3, 209931, Note_off_c, 0, 53, 0
3, 209932, Note_on_c, 0, 41, 57
3, 209932, Note_on_c, 0, 53, 71
3, 210406, Note_off_c, 0, 41, 0
3, 210436, Note_off_c, 0, 53, 0
3, 210437, Note_on_c, 0, 48, 64
3, 210913, Note_off_c, 0, 48, 0
3, 210948, Note_on_c, 0, 26, 56
3, 210948, Note_on_c, 0, 38, 74
3, 211459, Note_off_c, 0, 26, 0
3, 211489, Note_off_c, 0, 38, 0
3, 211490, Note_on_c, 0, 50, 64
3, 211967, Note_off_c, 0, 50, 0
3, 211998, Note_on_c, 0, 57, 57
3, 211998, Note_on_c, 0, 62, 71
3, 212472, Note_off_c, 0, 57, 0
3, 212502, Note_off_c, 0, 62, 0
3, 212503, Note_on_c, 0, 31, 53
3, 212503, Note_on_c, 0, 43, 70
3, 213522, Note_off_c, 0, 31, 0
3, 213522, Note_off_c, 0, 43, 0
3, 213523, Note_on_c, 0, 43, 56
3, 213523, Note_on_c, 0, 50, 56
3, 213523, Note_on_c, 0, 55, 70
3, 214532, Note_off_c, 0, 43, 0
3, 214532, Note_off_c, 0, 50, 0
3, 214532, Note_off_c, 0, 55, 0
3, 214533, Note_on_c, 0, 36, 54
3, 214533, Note_on_c, 0, 48, 70
3, 216093, Note_off_c, 0, 36, 0
3, 216093, Note_off_c, 0, 48, 0
3, 216094, Note_on_c, 0, 48, 57
3, 216094, Note_on_c, 0, 60, 71
3, 216568, Note_off_c, 0, 48, 0
3, 216598, Note_off_c, 0, 60, 0
3, 216599, Note_on_c, 0, 55, 64
3, 217078, Note_off_c, 0, 55, 0
3, 217109, Note_on_c, 0, 40, 58
3, 217109, Note_on_c, 0, 52, 73
3, 217588, Note_off_c, 0, 40, 0
3, 217618, Note_off_c, 0, 52, 0
3, 217619, Note_on_c, 0, 44, 56
3, 217619, Note_on_c, 0, 47, 70
3, 218093, Note_off_c, 0, 44, 0
3, 218123, Note_off_c, 0, 47, 0
3, 218124, Note_on_c, 0, 28, 53
3, 218124, Note_on_c, 0, 40, 70
3, 218598, Note_off_c, 0, 28, 0
3, 218628, Note_off_c, 0, 40, 0
3, 218629, Note_on_c, 0, 32, 53
3, 218629, Note_on_c, 0, 35, 68
3, 219105, Note_off_c, 0, 32, 0
3, 219135, Note_off_c, 0, 35, 0
3, 219140, Note_on_c, 0, 33, 58
3, 219140, Note_on_c, 0, 45, 75
3, 219651, Note_off_c, 0, 33, 0
3, 219681, Note_off_c, 0, 45, 0
3, 219682, Note_on_c, 0, 45, 64
3, 220159, Note_off_c, 0, 45, 0
3, 220190, Note_on_c, 0, 52, 57
3, 220190, Note_on_c, 0, 60, 71
3, 220664, Note_off_c, 0, 52, 0
3, 220694, Note_off_c, 0, 60, 0
3, 220695, Note_on_c, 0, 31, 53
3, 220695, Note_on_c, 0, 43, 70
3, 221714, Note_off_c, 0, 31, 0
3, 221714, Note_off_c, 0, 43, 0
3, 221715, Note_on_c, 0, 43, 64
3, 222189, Note_off_c, 0, 43, 0
3, 222220, Note_on_c, 0, 52, 57
3, 222220, Note_on_c, 0, 59, 71
3, 223231, Note_off_c, 0, 52, 0
3, 223231, Note_off_c, 0, 59, 0
3, 223236, Note_on_c, 0, 29, 57
3, 223236, Note_on_c, 0, 41, 75
3, 223747, Note_off_c, 0, 29, 0
3, 223777, Note_off_c, 0, 41, 0
3, 223778, Note_on_c, 0, 41, 64
3, 224255, Note_off_c, 0, 41, 0
3, 224286, Note_on_c, 0, 53, 65
3, 224790, Note_off_c, 0, 53, 0
3, 224791, Note_on_c, 0, 53, 64
3, 225270, Note_off_c, 0, 53, 0
3, 225301, Note_on_c, 0, 57, 59
3, 225301, Note_on_c, 0, 60, 73
3, 225780, Note_off_c, 0, 57, 0
3, 225810, Note_off_c, 0, 60, 0
3, 225811, Note_on_c, 0, 53, 64
3, 226315, Note_off_c, 0, 53, 0
3, 226316, Note_on_c, 0, 41, 57
3, 226316, Note_on_c, 0, 53, 71
3, 226790, Note_off_c, 0, 41, 0
3, 226820, Note_off_c, 0, 53, 0
3, 226821, Note_on_c, 0, 48, 64
3, 227297, Note_off_c, 0, 48, 0
3, 227332, Note_on_c, 0, 26, 56
3, 227332, Note_on_c, 0, 38, 74
3, 227843, Note_off_c, 0, 26, 0
3, 227873, Note_off_c, 0, 38, 0
3, 227874, Note_on_c, 0, 50, 64
3, 228351, Note_off_c, 0, 50, 0
3, 228382, Note_on_c, 0, 57, 57
3, 228382, Note_on_c, 0, 62, 71
3, 228856, Note_off_c, 0, 57, 0
3, 228886, Note_off_c, 0, 62, 0
3, 228887, Note_on_c, 0, 31, 53
3, 228887, Note_on_c, 0, 43, 70
3, 229906, Note_off_c, 0, 31, 0
3, 229906, Note_off_c, 0, 43, 0
3, 229907, Note_on_c, 0, 43, 56
3, 229907, Note_on_c, 0, 50, 56
3, 229907, Note_on_c, 0, 55, 70
3, 230916, Note_off_c, 0, 43, 0
3, 230916, Note_off_c, 0, 50, 0
3, 230916, Note_off_c, 0, 55, 0
3, 230917, Note_on_c, 0, 33, 53
3, 230917, Note_on_c, 0, 45, 70
3, 231939, Note_off_c, 0, 33, 0
3, 231969, Note_off_c, 0, 45, 0
3, 231970, Note_on_c, 0, 45, 64
3, 232447, Note_off_c, 0, 45, 0
3, 232478, Note_on_c, 0, 52, 57
3, 232478, Note_on_c, 0, 57, 71
3, 232952, Note_off_c, 0, 52, 0
3, 232982, Note_off_c, 0, 57, 0
3, 232983, Note_on_c, 0, 45, 64
3, 233462, Note_off_c, 0, 45, 0
3, 233493, Note_on_c, 0, 52, 59
3, 233493, Note_on_c, 0, 59, 73
3, 233972, Note_off_c, 0, 52, 0
3, 234002, Note_off_c, 0, 59, 0
3, 234003, Note_on_c, 0, 45, 64
3, 234477, Note_off_c, 0, 45, 0
3, 234508, Note_on_c, 0, 52, 57
3, 234508, Note_on_c, 0, 60, 71
3, 234982, Note_off_c, 0, 52, 0
3, 235012, Note_off_c, 0, 60, 0
3, 235013, Note_on_c, 0, 45, 64
3, 235519, Note_off_c, 0, 45, 0
3, 235524, Note_on_c, 0, 33, 58
3, 235524, Note_on_c, 0, 45, 75
3, 236035, Note_off_c, 0, 33, 0
3, 236065, Note_off_c, 0, 45, 0
3, 236066, Note_on_c, 0, 40, 63
3, 236543, Note_off_c, 0, 40, 0
3, 236574, Note_on_c, 0, 33, 54
3, 236574, Note_on_c, 0, 45, 71
3, 237048, Note_off_c, 0, 33, 0
3, 237078, Note_off_c, 0, 45, 0
3, 237079, Note_on_c, 0, 31, 53
3, 237079, Note_on_c, 0, 43, 70
3, 237484, Note_off_c, 0, 31, 0
3, 237484, Note_off_c, 0, 43, 0
3, 238099, Note_on_c, 0, 31, 53
3, 238099, Note_on_c, 0, 43, 70
3, 238494, Note_off_c, 0, 31, 0
3, 238494, Note_off_c, 0, 43, 0
3, 239109, Note_on_c, 0, 29, 52
3, 239109, Note_on_c, 0, 41, 70
3, 243217, Note_off_c, 0, 29, 0
3, 243217, Note_off_c, 0, 41, 0
3, 243217, End_track
0, 0, End_of_file
