0, 0, Header, 1, 3, 960
1, 0, Start_track
1, 0, Time_signature, 3, 2, 24, 8
1, 0, Key_signature, 2, "major"
1, 0, Tempo, 545454
1, 11520, Tempo, 545454
1, 11520, Tempo, 545454
1, 11521, End_track
2, 0, Start_track
2, 0, Control_c, 0, 0, 0
2, 0, Control_c, 0, 32, 0
2, 0, Program_c, 0, 1
2, 0, Control_c, 0, 121, 0
2, 0, Control_c, 0, 64, 0
2, 0, Control_c, 0, 91, 48
2, 0, Control_c, 0, 10, 64
2, 0, Control_c, 0, 7, 100
2, 23040, Note_on_c, 0, 54, 76
2, 23040, Note_on_c, 0, 59, 76
2, 23520, Note_off_c, 0, 54, 0
2, 23520, Note_off_c, 0, 59, 0
2, 23520, Note_on_c, 0, 59, 74
2, 24000, Note_off_c, 0, 59, 0
2, 24000, Note_on_c, 0, 59, 67
2, 24480, Note_off_c, 0, 59, 0
2, 24480, Note_on_c, 0, 50, 88
2, 24480, Note_on_c, 0, 55, 88
2, 24480, Note_on_c, 0, 59, 88
2, 24960, Note_off_c, 0, 50, 0
2, 24960, Note_off_c, 0, 55, 0
2, 24960, Note_off_c, 0, 59, 0
2, 24960, Note_on_c, 0, 59, 71
2, 25440, Note_off_c, 0, 59, 0
2, 25440, Note_on_c, 0, 59, 73
2, 25920, Note_off_c, 0, 59, 0
2, 25920, Note_on_c, 0, 52, 89
2, 25920, Note_on_c, 0, 57, 89
2, 25920, Note_on_c, 0, 59, 89
2, 26400, Note_off_c, 0, 52, 0
2, 26400, Note_off_c, 0, 57, 0
2, 26400, Note_off_c, 0, 59, 0
2, 26400, Note_on_c, 0, 59, 74
2, 26880, Note_off_c, 0, 59, 0
2, 26880, Note_on_c, 0, 59, 72
2, 27360, Note_off_c, 0, 59, 0
2, 27360, Note_on_c, 0, 52, 85
2, 27360, Note_on_c, 0, 59, 85
2, 27840, Note_off_c, 0, 52, 0
2, 27840, Note_off_c, 0, 59, 0
2, 27840, Note_on_c, 0, 59, 71
2, 28320, Note_off_c, 0, 59, 0
2, 28320, Note_on_c, 0, 61, 75
2, 28560, Note_off_c, 0, 61, 0
2, 28560, Note_on_c, 0, 62, 77
2, 28800, Note_off_c, 0, 62, 0
2, 28800, Note_on_c, 0, 54, 86
2, 28800, Note_on_c, 0, 59, 86
2, 29280, Note_off_c, 0, 54, 0
2, 29280, Note_off_c, 0, 59, 0
2, 29280, Note_on_c, 0, 59, 69
2, 29760, Note_off_c, 0, 59, 0
2, 29760, Note_on_c, 0, 59, 71
2, 30240, Note_off_c, 0, 59, 0
2, 30240, Note_on_c, 0, 50, 91
2, 30240, Note_on_c, 0, 55, 91
2, 30240, Note_on_c, 0, 59, 91
2, 30720, Note_off_c, 0, 50, 0
2, 30720, Note_off_c, 0, 55, 0
2, 30720, Note_off_c, 0, 59, 0
2, 30720, Note_on_c, 0, 59, 70
2, 31200, Note_off_c, 0, 59, 0
2, 31200, Note_on_c, 0, 59, 73
2, 31680, Note_off_c, 0, 59, 0
2, 31680, Note_on_c, 0, 52, 94
2, 31680, Note_on_c, 0, 57, 94
2, 31680, Note_on_c, 0, 59, 94
2, 32160, Note_off_c, 0, 52, 0
2, 32160, Note_off_c, 0, 57, 0
2, 32160, Note_off_c, 0, 59, 0
2, 32160, Note_on_c, 0, 59, 72
2, 32640, Note_off_c, 0, 59, 0
2, 32640, Note_on_c, 0, 59, 78
2, 33120, Note_off_c, 0, 59, 0
2, 33120, Note_on_c, 0, 52, 93
2, 33120, Note_on_c, 0, 59, 93
2, 33600, Note_off_c, 0, 52, 0
2, 33600, Note_off_c, 0, 59, 0
2, 33600, Note_on_c, 0, 59, 82
2, 34080, Note_off_c, 0, 59, 0
2, 34080, Note_on_c, 0, 61, 81
2, 34320, Note_off_c, 0, 61, 0
2, 34320, Note_on_c, 0, 62, 81
2, 34560, Note_off_c, 0, 62, 0
2, 34560, Note_on_c, 0, 54, 93
2, 34560, Note_on_c, 0, 59, 93
2, 35040, Note_off_c, 0, 54, 0
2, 35040, Note_off_c, 0, 59, 0
2, 35040, Note_on_c, 0, 59, 80
2, 35520, Note_off_c, 0, 59, 0
2, 35520, Note_on_c, 0, 59, 78
2, 36000, Note_off_c, 0, 59, 0
2, 36000, Note_on_c, 0, 50, 96
2, 36000, Note_on_c, 0, 55, 96
2, 36000, Note_on_c, 0, 59, 96
2, 36480, Note_off_c, 0, 50, 0
2, 36480, Note_off_c, 0, 55, 0
2, 36480, Note_off_c, 0, 59, 0
2, 36480, Note_on_c, 0, 59, 82
2, 36960, Note_off_c, 0, 59, 0
2, 36960, Note_on_c, 0, 59, 83
2, 37440, Note_off_c, 0, 59, 0
2, 37440, Note_on_c, 0, 52, 102
2, 37440, Note_on_c, 0, 57, 102
2, 37440, Note_on_c, 0, 59, 102
2, 37920, Note_off_c, 0, 52, 0
2, 37920, Note_off_c, 0, 57, 0
2, 37920, Note_off_c, 0, 59, 0
2, 37920, Note_on_c, 0, 59, 88
2, 38400, Note_off_c, 0, 59, 0
2, 38400, Note_on_c, 0, 59, 80
2, 38880, Note_off_c, 0, 59, 0
2, 38880, Note_on_c, 0, 52, 103
2, 38880, Note_on_c, 0, 59, 103
2, 39360, Note_off_c, 0, 52, 0
2, 39360, Note_off_c, 0, 59, 0
2, 39360, Note_on_c, 0, 59, 82
2, 39840, Note_off_c, 0, 59, 0
2, 39840, Note_on_c, 0, 61, 93
2, 40080, Note_off_c, 0, 61, 0
2, 40080, Note_on_c, 0, 62, 88
2, 40320, Note_off_c, 0, 62, 0
2, 40320, Note_on_c, 0, 54, 98
2, 40320, Note_on_c, 0, 59, 98
2, 40800, Note_off_c, 0, 54, 0
2, 40800, Note_off_c, 0, 59, 0
2, 40800, Note_on_c, 0, 59, 86
2, 41280, Note_off_c, 0, 59, 0
2, 41280, Note_on_c, 0, 59, 81
2, 41760, Note_off_c, 0, 59, 0
2, 41760, Note_on_c, 0, 50, 109
2, 41760, Note_on_c, 0, 55, 109
2, 41760, Note_on_c, 0, 59, 109
2, 42240, Note_off_c, 0, 50, 0
2, 42240, Note_off_c, 0, 55, 0
2, 42240, Note_off_c, 0, 59, 0
2, 42240, Note_on_c, 0, 59, 88
2, 42720, Note_off_c, 0, 59, 0
2, 42720, Note_on_c, 0, 59, 86
2, 43200, Note_off_c, 0, 59, 0
2, 43200, Note_on_c, 0, 52, 108
2, 43200, Note_on_c, 0, 59, 108
2, 43680, Note_off_c, 0, 52, 0
2, 43680, Note_off_c, 0, 59, 0
2, 43680, Note_on_c, 0, 59, 85
2, 44160, Note_off_c, 0, 59, 0
2, 44160, Note_on_c, 0, 61, 96
2, 44400, Note_off_c, 0, 61, 0
2, 44400, Note_on_c, 0, 62, 95
2, 44640, Note_off_c, 0, 62, 0
2, 44640, Note_on_c, 0, 59, 88
2, 45120, Note_off_c, 0, 59, 0
2, 45120, Note_on_c, 0, 61, 97
2, 45360, Note_off_c, 0, 61, 0
2, 45360, Note_on_c, 0, 62, 95
2, 45600, Note_off_c, 0, 62, 0
2, 45600, Note_on_c, 0, 59, 90
2, 46080, Note_off_c, 0, 59, 0
2, 46080, Note_on_c, 0, 54, 89
2, 46080, Note_on_c, 0, 59, 89
2, 48960, Note_off_c, 0, 54, 0
2, 48960, Note_off_c, 0, 59, 0
2, 48960, Note_on_c, 0, 52, 114
2, 48960, Note_on_c, 0, 64, 114
2, 51840, Note_off_c, 0, 52, 0
2, 51840, Note_off_c, 0, 64, 0
2, 51840, Note_on_c, 0, 59, 118
2, 51840, Note_on_c, 0, 62, 118
2, 51840, Note_on_c, 0, 71, 118
2, 54720, Note_off_c, 0, 59, 0
2, 54720, Note_off_c, 0, 62, 0
2, 54720, Note_off_c, 0, 71, 0
2, 54720, Note_on_c, 0, 61, 90
2, 54720, Note_on_c, 0, 64, 90
2, 54720, Note_on_c, 0, 69, 90
2, 57600, Note_off_c, 0, 61, 0
2, 57600, Note_off_c, 0, 64, 0
2, 57600, Note_off_c, 0, 69, 0
2, 57600, Note_on_c, 0, 54, 87
2, 57600, Note_on_c, 0, 59, 87
2, 60480, Note_off_c, 0, 54, 0
2, 60480, Note_off_c, 0, 59, 0
2, 60480, Note_on_c, 0, 52, 109
2, 60480, Note_on_c, 0, 64, 109
2, 63360, Note_off_c, 0, 52, 0
2, 63360, Note_off_c, 0, 64, 0
2, 63360, Note_on_c, 0, 59, 113
2, 63360, Note_on_c, 0, 62, 113
2, 63360, Note_on_c, 0, 71, 113
2, 66240, Note_off_c, 0, 59, 0
2, 66240, Note_off_c, 0, 62, 0
2, 66240, Note_off_c, 0, 71, 0
2, 66240, Note_on_c, 0, 61, 112
2, 66240, Note_on_c, 0, 64, 112
2, 66240, Note_on_c, 0, 73, 112
2, 68640, Note_off_c, 0, 61, 0
2, 68640, Note_off_c, 0, 64, 0
2, 68640, Note_off_c, 0, 73, 0
2, 68640, Note_on_c, 0, 62, 102
2, 68640, Note_on_c, 0, 74, 102
2, 68880, Note_off_c, 0, 62, 0
2, 68880, Note_off_c, 0, 74, 0
2, 68880, Note_on_c, 0, 61, 92
2, 68880, Note_on_c, 0, 73, 92
2, 69120, Note_off_c, 0, 61, 0
2, 69120, Note_off_c, 0, 73, 0
2, 69120, Note_on_c, 0, 62, 124
2, 69120, Note_on_c, 0, 74, 124
2, 70080, Note_off_c, 0, 62, 0
2, 70080, Note_off_c, 0, 74, 0
2, 70080, Note_on_c, 0, 62, 97
2, 70080, Note_on_c, 0, 74, 97
2, 70320, Note_off_c, 0, 62, 0
2, 70320, Note_off_c, 0, 74, 0
2, 70320, Note_on_c, 0, 61, 94
2, 70320, Note_on_c, 0, 73, 94
2, 70560, Note_off_c, 0, 61, 0
2, 70560, Note_off_c, 0, 73, 0
2, 70560, Note_on_c, 0, 62, 121
2, 70560, Note_on_c, 0, 74, 121
2, 71520, Note_off_c, 0, 62, 0
2, 71520, Note_off_c, 0, 74, 0
2, 71520, Note_on_c, 0, 61, 95
2, 71520, Note_on_c, 0, 73, 95
2, 71760, Note_off_c, 0, 61, 0
2, 71760, Note_off_c, 0, 73, 0
2, 71760, Note_on_c, 0, 62, 101
2, 71760, Note_on_c, 0, 74, 101
2, 72000, Note_off_c, 0, 62, 0
2, 72000, Note_off_c, 0, 74, 0
2, 72000, Note_on_c, 0, 64, 125
2, 72000, Note_on_c, 0, 76, 125
2, 72480, Note_off_c, 0, 64, 0
2, 72480, Note_off_c, 0, 76, 0
2, 72480, Note_on_c, 0, 62, 92
2, 72480, Note_on_c, 0, 74, 92
2, 72960, Note_off_c, 0, 62, 0
2, 72960, Note_off_c, 0, 74, 0
2, 72960, Note_on_c, 0, 61, 92
2, 72960, Note_on_c, 0, 73, 92
2, 73440, Note_off_c, 0, 61, 0
2, 73440, Note_off_c, 0, 73, 0
2, 73440, Note_on_c, 0, 59, 110
2, 73440, Note_on_c, 0, 62, 110
2, 73440, Note_on_c, 0, 71, 110
2, 74400, Note_off_c, 0, 59, 0
2, 74400, Note_off_c, 0, 62, 0
2, 74400, Note_off_c, 0, 71, 0
2, 74400, Note_on_c, 0, 59, 98
2, 74400, Note_on_c, 0, 62, 98
2, 74400, Note_on_c, 0, 71, 98
2, 74640, Note_off_c, 0, 59, 0
2, 74640, Note_off_c, 0, 62, 0
2, 74640, Note_off_c, 0, 71, 0
2, 74640, Note_on_c, 0, 57, 91
2, 74640, Note_on_c, 0, 69, 91
2, 74880, Note_off_c, 0, 57, 0
2, 74880, Note_off_c, 0, 69, 0
2, 74880, Note_on_c, 0, 59, 125
2, 74880, Note_on_c, 0, 62, 125
2, 74880, Note_on_c, 0, 71, 125
2, 75840, Note_off_c, 0, 59, 0
2, 75840, Note_off_c, 0, 62, 0
2, 75840, Note_off_c, 0, 71, 0
2, 75840, Note_on_c, 0, 59, 95
2, 75840, Note_on_c, 0, 71, 95
2, 76080, Note_off_c, 0, 59, 0
2, 76080, Note_off_c, 0, 71, 0
2, 76080, Note_on_c, 0, 59, 89
2, 76080, Note_on_c, 0, 69, 89
2, 76320, Note_off_c, 0, 59, 0
2, 76320, Note_off_c, 0, 69, 0
2, 76320, Note_on_c, 0, 59, 124
2, 76320, Note_on_c, 0, 64, 124
2, 76320, Note_on_c, 0, 71, 124
2, 77280, Note_off_c, 0, 59, 0
2, 77280, Note_off_c, 0, 64, 0
2, 77280, Note_off_c, 0, 71, 0
2, 77280, Note_on_c, 0, 57, 91
2, 77280, Note_on_c, 0, 69, 91
2, 77520, Note_off_c, 0, 57, 0
2, 77520, Note_off_c, 0, 69, 0
2, 77520, Note_on_c, 0, 59, 98
2, 77520, Note_on_c, 0, 71, 98
2, 77760, Note_off_c, 0, 59, 0
2, 77760, Note_off_c, 0, 71, 0
2, 77760, Note_on_c, 0, 61, 125
2, 77760, Note_on_c, 0, 73, 125
2, 78240, Note_off_c, 0, 61, 0
2, 78240, Note_off_c, 0, 73, 0
2, 78240, Note_on_c, 0, 62, 104
2, 78240, Note_on_c, 0, 74, 104
2, 78720, Note_off_c, 0, 62, 0
2, 78720, Note_off_c, 0, 74, 0
2, 78720, Note_on_c, 0, 57, 84
2, 78720, Note_on_c, 0, 69, 84
2, 79200, Note_off_c, 0, 57, 0
2, 79200, Note_off_c, 0, 69, 0
2, 79200, Note_on_c, 0, 59, 123
2, 79200, Note_on_c, 0, 62, 123
2, 79200, Note_on_c, 0, 71, 123
2, 80160, Note_off_c, 0, 59, 0
2, 80160, Note_off_c, 0, 62, 0
2, 80160, Note_off_c, 0, 71, 0
2, 80160, Note_on_c, 0, 59, 101
2, 80160, Note_on_c, 0, 71, 101
2, 80400, Note_off_c, 0, 59, 0
2, 80400, Note_off_c, 0, 71, 0
2, 80400, Note_on_c, 0, 61, 102
2, 80400, Note_on_c, 0, 73, 102
2, 80640, Note_off_c, 0, 61, 0
2, 80640, Note_off_c, 0, 73, 0
2, 80640, Note_on_c, 0, 62, 100
2, 80640, Note_on_c, 0, 74, 100
2, 81120, Note_off_c, 0, 62, 0
2, 81120, Note_off_c, 0, 74, 0
2, 81120, Note_on_c, 0, 62, 96
2, 81120, Note_on_c, 0, 74, 96
2, 81600, Note_off_c, 0, 62, 0
2, 81600, Note_off_c, 0, 74, 0
2, 81600, Note_on_c, 0, 62, 98
2, 81600, Note_on_c, 0, 74, 98
2, 81840, Note_off_c, 0, 62, 0
2, 81840, Note_off_c, 0, 74, 0
2, 81840, Note_on_c, 0, 64, 105
2, 81840, Note_on_c, 0, 76, 105
2, 82080, Note_off_c, 0, 64, 0
2, 82080, Note_off_c, 0, 76, 0
2, 82080, Note_on_c, 0, 66, 127
2, 82080, Note_on_c, 0, 78, 127
2, 83040, Note_off_c, 0, 66, 0
2, 83040, Note_off_c, 0, 78, 0
2, 83040, Note_on_c, 0, 61, 89
2, 83040, Note_on_c, 0, 73, 89
2, 83280, Note_off_c, 0, 61, 0
2, 83280, Note_off_c, 0, 73, 0
2, 83280, Note_on_c, 0, 62, 102
2, 83280, Note_on_c, 0, 74, 102
2, 83520, Note_off_c, 0, 62, 0
2, 83520, Note_off_c, 0, 74, 0
2, 83520, Note_on_c, 0, 64, 104
2, 83520, Note_on_c, 0, 76, 104
2, 84000, Note_off_c, 0, 64, 0
2, 84000, Note_off_c, 0, 76, 0
2, 84000, Note_on_c, 0, 62, 87
2, 84000, Note_on_c, 0, 74, 87
2, 84480, Note_off_c, 0, 62, 0
2, 84480, Note_off_c, 0, 74, 0
2, 84480, Note_on_c, 0, 61, 88
2, 84480, Note_on_c, 0, 73, 88
2, 84960, Note_off_c, 0, 61, 0
2, 84960, Note_off_c, 0, 73, 0
2, 84960, Note_on_c, 0, 59, 110
2, 84960, Note_on_c, 0, 62, 110
2, 84960, Note_on_c, 0, 71, 110
2, 85920, Note_off_c, 0, 59, 0
2, 85920, Note_off_c, 0, 62, 0
2, 85920, Note_off_c, 0, 71, 0
2, 85920, Note_on_c, 0, 59, 98
2, 85920, Note_on_c, 0, 71, 98
2, 86160, Note_off_c, 0, 59, 0
2, 86160, Note_off_c, 0, 71, 0
2, 86160, Note_on_c, 0, 57, 89
2, 86160, Note_on_c, 0, 69, 89
2, 86400, Note_off_c, 0, 57, 0
2, 86400, Note_off_c, 0, 69, 0
2, 86400, Note_on_c, 0, 59, 125
2, 86400, Note_on_c, 0, 62, 125
2, 86400, Note_on_c, 0, 71, 125
2, 87360, Note_off_c, 0, 59, 0
2, 87360, Note_off_c, 0, 62, 0
2, 87360, Note_off_c, 0, 71, 0
2, 87360, Note_on_c, 0, 59, 97
2, 87360, Note_on_c, 0, 71, 97
2, 87600, Note_off_c, 0, 59, 0
2, 87600, Note_off_c, 0, 71, 0
2, 87600, Note_on_c, 0, 57, 93
2, 87600, Note_on_c, 0, 69, 93
2, 87840, Note_off_c, 0, 57, 0
2, 87840, Note_off_c, 0, 69, 0
2, 87840, Note_on_c, 0, 59, 125
2, 87840, Note_on_c, 0, 64, 125
2, 87840, Note_on_c, 0, 71, 125
2, 88800, Note_off_c, 0, 59, 0
2, 88800, Note_off_c, 0, 64, 0
2, 88800, Note_off_c, 0, 71, 0
2, 88800, Note_on_c, 0, 57, 88
2, 88800, Note_on_c, 0, 69, 88
2, 89040, Note_off_c, 0, 57, 0
2, 89040, Note_off_c, 0, 69, 0
2, 89040, Note_on_c, 0, 59, 106
2, 89040, Note_on_c, 0, 71, 106
2, 89280, Note_off_c, 0, 59, 0
2, 89280, Note_off_c, 0, 71, 0
2, 89280, Note_on_c, 0, 61, 124
2, 89280, Note_on_c, 0, 73, 124
2, 89760, Note_off_c, 0, 61, 0
2, 89760, Note_off_c, 0, 73, 0
2, 89760, Note_on_c, 0, 62, 108
2, 89760, Note_on_c, 0, 74, 108
2, 90240, Note_off_c, 0, 62, 0
2, 90240, Note_off_c, 0, 74, 0
2, 90240, Note_on_c, 0, 57, 87
2, 90240, Note_on_c, 0, 69, 87
2, 90720, Note_off_c, 0, 57, 0
2, 90720, Note_off_c, 0, 69, 0
2, 90720, Note_on_c, 0, 59, 124
2, 90720, Note_on_c, 0, 62, 124
2, 90720, Note_on_c, 0, 66, 124
2, 90720, Note_on_c, 0, 71, 124
2, 92160, Note_off_c, 0, 59, 0
2, 92160, Note_off_c, 0, 62, 0
2, 92160, Note_off_c, 0, 66, 0
2, 92160, Note_off_c, 0, 71, 0
2, 92160, Note_on_c, 0, 71, 76
2, 92160, Note_on_c, 0, 78, 76
2, 92640, Note_off_c, 0, 71, 0
2, 92640, Note_off_c, 0, 78, 0
2, 92640, Note_on_c, 0, 71, 66
2, 92640, Note_on_c, 0, 78, 66
2, 92880, Note_off_c, 0, 71, 0
2, 92880, Note_off_c, 0, 78, 0
2, 92880, Note_on_c, 0, 71, 61
2, 92880, Note_on_c, 0, 78, 61
2, 93120, Note_off_c, 0, 71, 0
2, 93120, Note_off_c, 0, 78, 0
2, 93120, Note_on_c, 0, 71, 58
2, 93120, Note_on_c, 0, 78, 58
2, 93360, Note_off_c, 0, 71, 0
2, 93360, Note_off_c, 0, 78, 0
2, 93360, Note_on_c, 0, 71, 63
2, 93360, Note_on_c, 0, 78, 63
2, 93600, Note_off_c, 0, 71, 0
2, 93600, Note_off_c, 0, 78, 0
2, 93600, Note_on_c, 0, 67, 58
2, 93600, Note_on_c, 0, 76, 58
2, 94080, Note_off_c, 0, 67, 0
2, 94080, Note_off_c, 0, 76, 0
2, 94080, Note_on_c, 0, 67, 60
2, 94080, Note_on_c, 0, 76, 60
2, 94560, Note_off_c, 0, 67, 0
2, 94560, Note_off_c, 0, 76, 0
2, 94560, Note_on_c, 0, 67, 58
2, 94560, Note_on_c, 0, 76, 58
2, 95040, Note_off_c, 0, 67, 0
2, 95040, Note_off_c, 0, 76, 0
2, 95040, Note_on_c, 0, 69, 54
2, 95040, Note_on_c, 0, 74, 54
2, 95520, Note_off_c, 0, 69, 0
2, 95520, Note_off_c, 0, 74, 0
2, 95520, Note_on_c, 0, 69, 59
2, 95520, Note_on_c, 0, 74, 59
2, 95760, Note_off_c, 0, 69, 0
2, 95760, Note_off_c, 0, 74, 0
2, 95760, Note_on_c, 0, 69, 65
2, 95760, Note_on_c, 0, 74, 65
2, 96000, Note_off_c, 0, 69, 0
2, 96000, Note_off_c, 0, 74, 0
2, 96000, Note_on_c, 0, 69, 57
2, 96000, Note_on_c, 0, 74, 57
2, 96240, Note_off_c, 0, 69, 0
2, 96240, Note_off_c, 0, 74, 0
2, 96240, Note_on_c, 0, 69, 59
2, 96240, Note_on_c, 0, 74, 59
2, 96480, Note_off_c, 0, 69, 0
2, 96480, Note_off_c, 0, 74, 0
2, 96480, Note_on_c, 0, 69, 57
2, 96480, Note_on_c, 0, 73, 57
2, 96960, Note_off_c, 0, 69, 0
2, 96960, Note_off_c, 0, 73, 0
2, 96960, Note_on_c, 0, 69, 62
2, 96960, Note_on_c, 0, 73, 62
2, 97440, Note_off_c, 0, 69, 0
2, 97440, Note_off_c, 0, 73, 0
2, 97440, Note_on_c, 0, 69, 61
2, 97440, Note_on_c, 0, 73, 61
2, 97920, Note_off_c, 0, 69, 0
2, 97920, Note_off_c, 0, 73, 0
2, 97920, Note_on_c, 0, 71, 64
2, 97920, Note_on_c, 0, 78, 64
2, 98400, Note_off_c, 0, 71, 0
2, 98400, Note_off_c, 0, 78, 0
2, 98400, Note_on_c, 0, 71, 62
2, 98400, Note_on_c, 0, 78, 62
2, 98640, Note_off_c, 0, 71, 0
2, 98640, Note_off_c, 0, 78, 0
2, 98640, Note_on_c, 0, 71, 62
2, 98640, Note_on_c, 0, 78, 62
2, 98880, Note_off_c, 0, 71, 0
2, 98880, Note_off_c, 0, 78, 0
2, 98880, Note_on_c, 0, 71, 63
2, 98880, Note_on_c, 0, 78, 63
2, 99120, Note_off_c, 0, 71, 0
2, 99120, Note_off_c, 0, 78, 0
2, 99120, Note_on_c, 0, 71, 58
2, 99120, Note_on_c, 0, 78, 58
2, 99360, Note_off_c, 0, 71, 0
2, 99360, Note_off_c, 0, 78, 0
2, 99360, Note_on_c, 0, 67, 55
2, 99360, Note_on_c, 0, 76, 55
2, 99840, Note_off_c, 0, 67, 0
2, 99840, Note_off_c, 0, 76, 0
2, 99840, Note_on_c, 0, 67, 68
2, 99840, Note_on_c, 0, 76, 68
2, 100320, Note_off_c, 0, 67, 0
2, 100320, Note_off_c, 0, 76, 0
2, 100320, Note_on_c, 0, 67, 59
2, 100320, Note_on_c, 0, 76, 59
2, 100800, Note_off_c, 0, 67, 0
2, 100800, Note_off_c, 0, 76, 0
2, 100800, Note_on_c, 0, 69, 58
2, 100800, Note_on_c, 0, 74, 58
2, 101280, Note_off_c, 0, 69, 0
2, 101280, Note_off_c, 0, 74, 0
2, 101280, Note_on_c, 0, 69, 60
2, 101280, Note_on_c, 0, 74, 60
2, 101520, Note_off_c, 0, 69, 0
2, 101520, Note_off_c, 0, 74, 0
2, 101520, Note_on_c, 0, 69, 63
2, 101520, Note_on_c, 0, 74, 63
2, 101760, Note_off_c, 0, 69, 0
2, 101760, Note_off_c, 0, 74, 0
2, 101760, Note_on_c, 0, 69, 59
2, 101760, Note_on_c, 0, 74, 59
2, 102000, Note_off_c, 0, 69, 0
2, 102000, Note_off_c, 0, 74, 0
2, 102000, Note_on_c, 0, 69, 59
2, 102000, Note_on_c, 0, 74, 59
2, 102240, Note_off_c, 0, 69, 0
2, 102240, Note_off_c, 0, 74, 0
2, 102240, Note_on_c, 0, 69, 57
2, 102240, Note_on_c, 0, 73, 57
2, 102720, Note_off_c, 0, 69, 0
2, 102720, Note_off_c, 0, 73, 0
2, 102720, Note_on_c, 0, 69, 61
2, 102720, Note_on_c, 0, 73, 61
2, 103200, Note_off_c, 0, 69, 0
2, 103200, Note_off_c, 0, 73, 0
2, 103200, Note_on_c, 0, 69, 58
2, 103200, Note_on_c, 0, 73, 58
2, 103680, Note_off_c, 0, 69, 0
2, 103680, Note_off_c, 0, 73, 0
2, 103680, Note_on_c, 0, 71, 73
2, 103680, Note_on_c, 0, 78, 73
2, 104160, Note_off_c, 0, 71, 0
2, 104160, Note_off_c, 0, 78, 0
2, 104160, Note_on_c, 0, 71, 61
2, 104160, Note_on_c, 0, 78, 61
2, 104400, Note_off_c, 0, 71, 0
2, 104400, Note_off_c, 0, 78, 0
2, 104400, Note_on_c, 0, 71, 66
2, 104400, Note_on_c, 0, 78, 66
2, 104640, Note_off_c, 0, 71, 0
2, 104640, Note_off_c, 0, 78, 0
2, 104640, Note_on_c, 0, 71, 59
2, 104640, Note_on_c, 0, 78, 59
2, 104880, Note_off_c, 0, 71, 0
2, 104880, Note_off_c, 0, 78, 0
2, 104880, Note_on_c, 0, 71, 65
2, 104880, Note_on_c, 0, 78, 65
2, 105120, Note_off_c, 0, 71, 0
2, 105120, Note_off_c, 0, 78, 0
2, 105120, Note_on_c, 0, 67, 60
2, 105120, Note_on_c, 0, 76, 60
2, 105600, Note_off_c, 0, 67, 0
2, 105600, Note_off_c, 0, 76, 0
2, 105600, Note_on_c, 0, 67, 60
2, 105600, Note_on_c, 0, 76, 60
2, 106080, Note_off_c, 0, 67, 0
2, 106080, Note_off_c, 0, 76, 0
2, 106080, Note_on_c, 0, 67, 63
2, 106080, Note_on_c, 0, 76, 63
2, 106560, Note_off_c, 0, 67, 0
2, 106560, Note_off_c, 0, 76, 0
2, 106560, Note_on_c, 0, 69, 57
2, 106560, Note_on_c, 0, 74, 57
2, 107040, Note_off_c, 0, 69, 0
2, 107040, Note_off_c, 0, 74, 0
2, 107040, Note_on_c, 0, 69, 59
2, 107040, Note_on_c, 0, 74, 59
2, 107280, Note_off_c, 0, 69, 0
2, 107280, Note_off_c, 0, 74, 0
2, 107280, Note_on_c, 0, 69, 60
2, 107280, Note_on_c, 0, 74, 60
2, 107520, Note_off_c, 0, 69, 0
2, 107520, Note_off_c, 0, 74, 0
2, 107520, Note_on_c, 0, 69, 57
2, 107520, Note_on_c, 0, 74, 57
2, 107760, Note_off_c, 0, 69, 0
2, 107760, Note_off_c, 0, 74, 0
2, 107760, Note_on_c, 0, 69, 61
2, 107760, Note_on_c, 0, 74, 61
2, 108000, Note_off_c, 0, 69, 0
2, 108000, Note_off_c, 0, 74, 0
2, 108000, Note_on_c, 0, 69, 58
2, 108000, Note_on_c, 0, 73, 58
2, 108480, Note_off_c, 0, 69, 0
2, 108480, Note_off_c, 0, 73, 0
2, 108480, Note_on_c, 0, 69, 57
2, 108480, Note_on_c, 0, 73, 57
2, 108960, Note_off_c, 0, 69, 0
2, 108960, Note_off_c, 0, 73, 0
2, 108960, Note_on_c, 0, 69, 56
2, 108960, Note_on_c, 0, 73, 56
2, 109440, Note_off_c, 0, 69, 0
2, 109440, Note_off_c, 0, 73, 0
2, 109440, Note_on_c, 0, 71, 71
2, 109440, Note_on_c, 0, 78, 71
2, 109920, Note_off_c, 0, 71, 0
2, 109920, Note_off_c, 0, 78, 0
2, 109920, Note_on_c, 0, 71, 64
2, 109920, Note_on_c, 0, 78, 64
2, 110160, Note_off_c, 0, 71, 0
2, 110160, Note_off_c, 0, 78, 0
2, 110160, Note_on_c, 0, 71, 62
2, 110160, Note_on_c, 0, 78, 62
2, 110400, Note_off_c, 0, 71, 0
2, 110400, Note_off_c, 0, 78, 0
2, 110400, Note_on_c, 0, 71, 65
2, 110400, Note_on_c, 0, 78, 65
2, 110640, Note_off_c, 0, 71, 0
2, 110640, Note_off_c, 0, 78, 0
2, 110640, Note_on_c, 0, 71, 61
2, 110640, Note_on_c, 0, 78, 61
2, 110880, Note_off_c, 0, 71, 0
2, 110880, Note_off_c, 0, 78, 0
2, 110880, Note_on_c, 0, 67, 60
2, 110880, Note_on_c, 0, 76, 60
2, 111360, Note_off_c, 0, 67, 0
2, 111360, Note_off_c, 0, 76, 0
2, 111360, Note_on_c, 0, 67, 58
2, 111360, Note_on_c, 0, 76, 58
2, 111840, Note_off_c, 0, 67, 0
2, 111840, Note_off_c, 0, 76, 0
2, 111840, Note_on_c, 0, 67, 66
2, 111840, Note_on_c, 0, 76, 66
2, 112320, Note_off_c, 0, 67, 0
2, 112320, Note_off_c, 0, 76, 0
2, 112320, Note_on_c, 0, 69, 64
2, 112320, Note_on_c, 0, 74, 64
2, 112800, Note_off_c, 0, 69, 0
2, 112800, Note_off_c, 0, 74, 0
2, 112800, Note_on_c, 0, 69, 64
2, 112800, Note_on_c, 0, 74, 64
2, 113040, Note_off_c, 0, 69, 0
2, 113040, Note_off_c, 0, 74, 0
2, 113040, Note_on_c, 0, 69, 57
2, 113040, Note_on_c, 0, 74, 57
2, 113280, Note_off_c, 0, 69, 0
2, 113280, Note_off_c, 0, 74, 0
2, 113280, Note_on_c, 0, 69, 56
2, 113280, Note_on_c, 0, 74, 56
2, 113520, Note_off_c, 0, 69, 0
2, 113520, Note_off_c, 0, 74, 0
2, 113520, Note_on_c, 0, 69, 64
2, 113520, Note_on_c, 0, 74, 64
2, 113760, Note_off_c, 0, 69, 0
2, 113760, Note_off_c, 0, 74, 0
2, 113760, Note_on_c, 0, 64, 61
2, 113760, Note_on_c, 0, 73, 61
2, 114240, Note_off_c, 0, 64, 0
2, 114240, Note_off_c, 0, 73, 0
2, 114240, Note_on_c, 0, 64, 60
2, 114240, Note_on_c, 0, 73, 60
2, 114720, Note_off_c, 0, 64, 0
2, 114720, Note_off_c, 0, 73, 0
2, 114720, Note_on_c, 0, 64, 64
2, 114720, Note_on_c, 0, 73, 64
2, 115200, Note_off_c, 0, 64, 0
2, 115200, Note_off_c, 0, 73, 0
2, 115200, Note_on_c, 0, 61, 71
2, 115200, Note_on_c, 0, 71, 85
2, 115680, Note_off_c, 0, 61, 0
2, 115680, Note_off_c, 0, 71, 0
2, 115680, Note_on_c, 0, 62, 97
2, 115680, Note_on_c, 0, 71, 94
2, 116160, Note_off_c, 0, 62, 0
2, 116160, Note_off_c, 0, 71, 0
2, 116160, Note_on_c, 0, 64, 101
2, 116160, Note_on_c, 0, 71, 96
2, 116640, Note_off_c, 0, 64, 0
2, 116640, Note_off_c, 0, 71, 0
2, 116640, Note_on_c, 0, 61, 89
2, 116640, Note_on_c, 0, 71, 101
2, 117120, Note_off_c, 0, 61, 0
2, 117120, Note_off_c, 0, 71, 0
2, 117120, Note_on_c, 0, 59, 92
2, 117120, Note_on_c, 0, 71, 96
2, 117600, Note_off_c, 0, 71, 0
2, 117600, Note_on_c, 0, 71, 98
2, 118080, Note_off_c, 0, 59, 0
2, 118080, Note_off_c, 0, 71, 0
2, 118080, Note_on_c, 0, 71, 99
2, 118560, Note_off_c, 0, 71, 0
2, 118560, Note_on_c, 0, 64, 90
2, 118560, Note_on_c, 0, 71, 92
2, 119040, Note_off_c, 0, 64, 0
2, 119040, Note_off_c, 0, 71, 0
2, 119040, Note_on_c, 0, 61, 88
2, 119040, Note_on_c, 0, 71, 96
2, 119520, Note_off_c, 0, 61, 0
2, 119520, Note_off_c, 0, 71, 0
2, 119520, Note_on_c, 0, 61, 96
2, 119520, Note_on_c, 0, 71, 98
2, 120000, Note_off_c, 0, 61, 0
2, 120000, Note_off_c, 0, 71, 0
2, 120000, Note_on_c, 0, 62, 101
2, 120000, Note_on_c, 0, 71, 98
2, 120480, Note_off_c, 0, 71, 0
2, 120480, Note_on_c, 0, 71, 99
2, 120960, Note_off_c, 0, 62, 0
2, 120960, Note_off_c, 0, 71, 0
2, 120960, Note_on_c, 0, 61, 92
2, 120960, Note_on_c, 0, 71, 99
2, 121440, Note_off_c, 0, 61, 0
2, 121440, Note_off_c, 0, 71, 0
2, 121440, Note_on_c, 0, 62, 101
2, 121440, Note_on_c, 0, 71, 102
2, 121920, Note_off_c, 0, 71, 0
2, 121920, Note_on_c, 0, 71, 98
2, 122400, Note_off_c, 0, 62, 0
2, 122400, Note_off_c, 0, 71, 0
2, 122400, Note_on_c, 0, 61, 94
2, 122400, Note_on_c, 0, 71, 100
2, 122880, Note_off_c, 0, 61, 0
2, 122880, Note_off_c, 0, 71, 0
2, 122880, Note_on_c, 0, 62, 100
2, 122880, Note_on_c, 0, 71, 99
2, 123360, Note_off_c, 0, 71, 0
2, 123360, Note_on_c, 0, 71, 98
2, 123840, Note_off_c, 0, 62, 0
2, 123840, Note_off_c, 0, 71, 0
2, 123840, Note_on_c, 0, 71, 94
2, 124320, Note_off_c, 0, 71, 0
2, 124320, Note_on_c, 0, 64, 88
2, 124320, Note_on_c, 0, 71, 101
2, 124800, Note_off_c, 0, 64, 0
2, 124800, Note_off_c, 0, 71, 0
2, 124800, Note_on_c, 0, 61, 91
2, 124800, Note_on_c, 0, 71, 101
2, 125280, Note_off_c, 0, 61, 0
2, 125280, Note_off_c, 0, 71, 0
2, 125280, Note_on_c, 0, 61, 93
2, 125280, Note_on_c, 0, 71, 101
2, 125760, Note_off_c, 0, 61, 0
2, 125760, Note_off_c, 0, 71, 0
2, 125760, Note_on_c, 0, 62, 105
2, 125760, Note_on_c, 0, 71, 101
2, 126240, Note_off_c, 0, 71, 0
2, 126240, Note_on_c, 0, 71, 101
2, 126720, Note_off_c, 0, 62, 0
2, 126720, Note_off_c, 0, 71, 0
2, 126720, Note_on_c, 0, 61, 93
2, 126720, Note_on_c, 0, 71, 96
2, 127200, Note_off_c, 0, 61, 0
2, 127200, Note_off_c, 0, 71, 0
2, 127200, Note_on_c, 0, 62, 101
2, 127200, Note_on_c, 0, 71, 97
2, 127680, Note_off_c, 0, 71, 0
2, 127680, Note_on_c, 0, 71, 96
2, 128160, Note_off_c, 0, 62, 0
2, 128160, Note_off_c, 0, 71, 0
2, 128160, Note_on_c, 0, 61, 92
2, 128160, Note_on_c, 0, 71, 97
2, 128640, Note_off_c, 0, 61, 0
2, 128640, Note_off_c, 0, 71, 0
2, 128640, Note_on_c, 0, 62, 106
2, 128640, Note_on_c, 0, 71, 100
2, 129120, Note_off_c, 0, 71, 0
2, 129120, Note_on_c, 0, 71, 102
2, 129600, Note_off_c, 0, 62, 0
2, 129600, Note_off_c, 0, 71, 0
2, 129600, Note_on_c, 0, 71, 98
2, 130080, Note_off_c, 0, 71, 0
2, 130080, Note_on_c, 0, 64, 89
2, 130080, Note_on_c, 0, 71, 101
2, 130560, Note_off_c, 0, 64, 0
2, 130560, Note_off_c, 0, 71, 0
2, 130560, Note_on_c, 0, 61, 87
2, 130560, Note_on_c, 0, 71, 99
2, 131040, Note_off_c, 0, 61, 0
2, 131040, Note_off_c, 0, 71, 0
2, 131040, Note_on_c, 0, 61, 98
2, 131040, Note_on_c, 0, 71, 96
2, 131520, Note_off_c, 0, 61, 0
2, 131520, Note_off_c, 0, 71, 0
2, 131520, Note_on_c, 0, 62, 103
2, 131520, Note_on_c, 0, 71, 98
2, 132000, Note_off_c, 0, 62, 0
2, 132000, Note_off_c, 0, 71, 0
2, 132000, Note_on_c, 0, 64, 103
2, 132000, Note_on_c, 0, 71, 97
2, 132480, Note_off_c, 0, 64, 0
2, 132480, Note_off_c, 0, 71, 0
2, 132480, Note_on_c, 0, 66, 115
2, 132480, Note_on_c, 0, 71, 115
2, 135360, Note_off_c, 0, 66, 0
2, 135360, Note_off_c, 0, 71, 0
2, 135360, Note_on_c, 0, 62, 89
2, 135360, Note_on_c, 0, 67, 89
2, 138240, Note_off_c, 0, 62, 0
2, 138240, Note_off_c, 0, 67, 0
2, 138240, Note_on_c, 0, 54, 92
2, 138240, Note_on_c, 0, 59, 92
2, 138240, Note_on_c, 0, 66, 92
2, 139680, Note_off_c, 0, 54, 0
2, 139680, Note_off_c, 0, 59, 0
2, 139680, Note_off_c, 0, 66, 0
2, 139680, Note_on_c, 0, 54, 102
2, 139680, Note_on_c, 0, 59, 102
2, 139680, Note_on_c, 0, 66, 102
2, 141120, Note_off_c, 0, 54, 0
2, 141120, Note_off_c, 0, 59, 0
2, 141120, Note_off_c, 0, 66, 0
2, 141120, Note_on_c, 0, 54, 101
2, 141120, Note_on_c, 0, 59, 101
2, 141120, Note_on_c, 0, 66, 101
2, 142560, Note_off_c, 0, 54, 0
2, 142560, Note_off_c, 0, 59, 0
2, 142560, Note_off_c, 0, 66, 0
2, 142560, Note_on_c, 0, 54, 102
2, 142560, Note_on_c, 0, 59, 102
2, 142560, Note_on_c, 0, 66, 102
2, 144000, Note_off_c, 0, 54, 0
2, 144000, Note_off_c, 0, 59, 0
2, 144000, Note_off_c, 0, 66, 0
2, 144000, Note_on_c, 0, 54, 102
2, 144000, Note_on_c, 0, 59, 102
2, 144000, Note_on_c, 0, 66, 102
2, 145440, Note_off_c, 0, 54, 0
2, 145440, Note_off_c, 0, 59, 0
2, 145440, Note_off_c, 0, 66, 0
2, 145440, Note_on_c, 0, 54, 104
2, 145440, Note_on_c, 0, 59, 104
2, 145440, Note_on_c, 0, 66, 104
2, 146880, Note_off_c, 0, 54, 0
2, 146880, Note_off_c, 0, 59, 0
2, 146880, Note_off_c, 0, 66, 0
2, 146880, Note_on_c, 0, 54, 101
2, 146880, Note_on_c, 0, 59, 101
2, 146880, Note_on_c, 0, 66, 101
2, 148320, Note_off_c, 0, 54, 0
2, 148320, Note_off_c, 0, 59, 0
2, 148320, Note_off_c, 0, 66, 0
2, 148320, Note_on_c, 0, 54, 97
2, 148320, Note_on_c, 0, 59, 97
2, 148320, Note_on_c, 0, 66, 97
2, 149760, Note_off_c, 0, 54, 0
2, 149760, Note_off_c, 0, 59, 0
2, 149760, Note_off_c, 0, 66, 0
2, 149760, Note_on_c, 0, 74, 79
2, 149760, Note_on_c, 0, 86, 79
2, 151200, Note_off_c, 0, 74, 0
2, 151200, Note_off_c, 0, 86, 0
2, 151200, Note_on_c, 0, 73, 58
2, 151200, Note_on_c, 0, 85, 58
2, 152640, Note_off_c, 0, 73, 0
2, 152640, Note_off_c, 0, 85, 0
2, 152640, Note_on_c, 0, 71, 60
2, 152640, Note_on_c, 0, 83, 60
2, 155520, Note_off_c, 0, 71, 0
2, 155520, Note_off_c, 0, 83, 0
2, 155520, Note_on_c, 0, 73, 68
2, 155520, Note_on_c, 0, 85, 68
2, 158400, Note_off_c, 0, 73, 0
2, 158400, Note_off_c, 0, 85, 0
2, 158400, Note_on_c, 0, 69, 59
2, 158400, Note_on_c, 0, 81, 59
2, 159840, Note_off_c, 0, 69, 0
2, 159840, Note_off_c, 0, 81, 0
2, 159840, Note_on_c, 0, 73, 65
2, 159840, Note_on_c, 0, 85, 65
2, 161280, Note_off_c, 0, 73, 0
2, 161280, Note_off_c, 0, 85, 0
2, 161280, Note_on_c, 0, 74, 66
2, 161280, Note_on_c, 0, 78, 66
2, 161280, Note_on_c, 0, 86, 66
2, 162720, Note_off_c, 0, 74, 0
2, 162720, Note_off_c, 0, 78, 0
2, 162720, Note_off_c, 0, 86, 0
2, 162720, Note_on_c, 0, 73, 62
2, 162720, Note_on_c, 0, 85, 62
2, 164160, Note_off_c, 0, 73, 0
2, 164160, Note_off_c, 0, 85, 0
2, 164160, Note_on_c, 0, 71, 58
2, 164160, Note_on_c, 0, 83, 58
2, 167040, Note_off_c, 0, 71, 0
2, 167040, Note_off_c, 0, 83, 0
2, 167040, Note_on_c, 0, 76, 68
2, 167040, Note_on_c, 0, 81, 68
2, 167040, Note_on_c, 0, 88, 68
2, 169920, Note_off_c, 0, 76, 0
2, 169920, Note_off_c, 0, 81, 0
2, 169920, Note_off_c, 0, 88, 0
2, 169920, Note_on_c, 0, 78, 64
2, 169920, Note_on_c, 0, 90, 64
2, 171360, Note_off_c, 0, 78, 0
2, 171360, Note_off_c, 0, 90, 0
2, 171360, Note_on_c, 0, 76, 59
2, 171360, Note_on_c, 0, 88, 59
2, 172800, Note_off_c, 0, 76, 0
2, 172800, Note_off_c, 0, 88, 0
2, 172800, Note_on_c, 0, 59, 53
2, 172800, Note_on_c, 0, 62, 53
2, 172800, Note_on_c, 0, 71, 53
2, 174240, Note_off_c, 0, 59, 0
2, 174240, Note_off_c, 0, 62, 0
2, 174240, Note_off_c, 0, 71, 0
2, 174240, Note_on_c, 0, 61, 72
2, 174240, Note_on_c, 0, 64, 72
2, 174240, Note_on_c, 0, 73, 72
2, 175680, Note_off_c, 0, 61, 0
2, 175680, Note_off_c, 0, 64, 0
2, 175680, Note_off_c, 0, 73, 0
2, 175680, Note_on_c, 0, 62, 74
2, 175680, Note_on_c, 0, 66, 74
2, 175680, Note_on_c, 0, 74, 74
2, 178560, Note_off_c, 0, 62, 0
2, 178560, Note_off_c, 0, 66, 0
2, 178560, Note_off_c, 0, 74, 0
2, 178560, Note_on_c, 0, 61, 64
2, 178560, Note_on_c, 0, 64, 64
2, 178560, Note_on_c, 0, 73, 64
2, 181440, Note_off_c, 0, 61, 0
2, 181440, Note_off_c, 0, 64, 0
2, 181440, Note_off_c, 0, 73, 0
2, 181440, Note_on_c, 0, 57, 64
2, 181440, Note_on_c, 0, 61, 64
2, 181440, Note_on_c, 0, 69, 64
2, 182880, Note_off_c, 0, 57, 0
2, 182880, Note_off_c, 0, 61, 0
2, 182880, Note_off_c, 0, 69, 0
2, 182880, Note_on_c, 0, 61, 78
2, 182880, Note_on_c, 0, 64, 78
2, 182880, Note_on_c, 0, 73, 78
2, 184320, Note_off_c, 0, 61, 0
2, 184320, Note_off_c, 0, 64, 0
2, 184320, Note_off_c, 0, 73, 0
2, 184320, Note_on_c, 0, 59, 67
2, 184320, Note_on_c, 0, 62, 67
2, 184320, Note_on_c, 0, 71, 67
2, 185760, Note_off_c, 0, 59, 0
2, 185760, Note_off_c, 0, 62, 0
2, 185760, Note_off_c, 0, 71, 0
2, 185760, Note_on_c, 0, 61, 75
2, 185760, Note_on_c, 0, 64, 75
2, 185760, Note_on_c, 0, 73, 75
2, 187200, Note_off_c, 0, 61, 0
2, 187200, Note_off_c, 0, 64, 0
2, 187200, Note_off_c, 0, 73, 0
2, 187200, Note_on_c, 0, 62, 80
2, 187200, Note_on_c, 0, 66, 80
2, 187200, Note_on_c, 0, 74, 80
2, 190080, Note_off_c, 0, 62, 0
2, 190080, Note_off_c, 0, 66, 0
2, 190080, Note_off_c, 0, 74, 0
2, 190080, Note_on_c, 0, 66, 82
2, 190080, Note_on_c, 0, 69, 82
2, 190080, Note_on_c, 0, 78, 82
2, 192960, Note_off_c, 0, 66, 0
2, 192960, Note_off_c, 0, 69, 0
2, 192960, Note_off_c, 0, 78, 0
2, 192960, Note_on_c, 0, 69, 97
2, 192960, Note_on_c, 0, 73, 97
2, 192960, Note_on_c, 0, 81, 97
2, 194400, Note_off_c, 0, 69, 0
2, 194400, Note_off_c, 0, 73, 0
2, 194400, Note_off_c, 0, 81, 0
2, 194400, Note_on_c, 0, 73, 102
2, 194400, Note_on_c, 0, 78, 102
2, 194400, Note_on_c, 0, 85, 102
2, 195840, Note_off_c, 0, 73, 0
2, 195840, Note_off_c, 0, 78, 0
2, 195840, Note_off_c, 0, 85, 0
2, 195840, Note_on_c, 0, 71, 74
2, 196320, Note_off_c, 0, 71, 0
2, 196320, Note_on_c, 0, 71, 92
2, 196560, Note_off_c, 0, 71, 0
2, 196560, Note_on_c, 0, 71, 102
2, 196800, Note_off_c, 0, 71, 0
2, 196800, Note_on_c, 0, 71, 98
2, 197040, Note_off_c, 0, 71, 0
2, 197040, Note_on_c, 0, 71, 95
2, 197280, Note_off_c, 0, 71, 0
2, 197280, Note_on_c, 0, 67, 97
2, 197280, Note_on_c, 0, 71, 97
2, 197760, Note_off_c, 0, 67, 0
2, 197760, Note_off_c, 0, 71, 0
2, 197760, Note_on_c, 0, 67, 99
2, 197760, Note_on_c, 0, 71, 99
2, 198000, Note_off_c, 0, 67, 0
2, 198000, Note_off_c, 0, 71, 0
2, 198000, Note_on_c, 0, 67, 100
2, 198000, Note_on_c, 0, 71, 100
2, 198240, Note_off_c, 0, 67, 0
2, 198240, Note_off_c, 0, 71, 0
2, 198240, Note_on_c, 0, 67, 93
2, 198240, Note_on_c, 0, 71, 93
2, 198480, Note_off_c, 0, 67, 0
2, 198480, Note_off_c, 0, 71, 0
2, 198480, Note_on_c, 0, 67, 96
2, 198480, Note_on_c, 0, 71, 96
2, 198720, Note_off_c, 0, 67, 0
2, 198720, Note_off_c, 0, 71, 0
2, 198720, Note_on_c, 0, 69, 104
2, 198720, Note_on_c, 0, 71, 104
2, 199200, Note_off_c, 0, 69, 0
2, 199200, Note_off_c, 0, 71, 0
2, 199200, Note_on_c, 0, 71, 98
2, 199680, Note_off_c, 0, 71, 0
2, 199680, Note_on_c, 0, 69, 102
2, 199680, Note_on_c, 0, 71, 102
2, 200160, Note_off_c, 0, 69, 0
2, 200160, Note_off_c, 0, 71, 0
2, 200160, Note_on_c, 0, 64, 97
2, 200160, Note_on_c, 0, 71, 97
2, 200640, Note_off_c, 0, 64, 0
2, 200640, Note_off_c, 0, 71, 0
2, 200640, Note_on_c, 0, 64, 97
2, 200640, Note_on_c, 0, 71, 97
2, 201120, Note_off_c, 0, 64, 0
2, 201120, Note_off_c, 0, 71, 0
2, 201120, Note_on_c, 0, 64, 100
2, 201120, Note_on_c, 0, 71, 100
2, 201600, Note_off_c, 0, 64, 0
2, 201600, Note_off_c, 0, 71, 0
2, 201600, Note_on_c, 0, 71, 99
2, 202080, Note_off_c, 0, 71, 0
2, 202080, Note_on_c, 0, 71, 96
2, 202320, Note_off_c, 0, 71, 0
2, 202320, Note_on_c, 0, 71, 90
2, 202560, Note_off_c, 0, 71, 0
2, 202560, Note_on_c, 0, 71, 97
2, 202800, Note_off_c, 0, 71, 0
2, 202800, Note_on_c, 0, 71, 97
2, 203040, Note_off_c, 0, 71, 0
2, 203040, Note_on_c, 0, 67, 97
2, 203040, Note_on_c, 0, 71, 97
2, 203520, Note_off_c, 0, 67, 0
2, 203520, Note_off_c, 0, 71, 0
2, 203520, Note_on_c, 0, 67, 97
2, 203520, Note_on_c, 0, 71, 97
2, 203760, Note_off_c, 0, 67, 0
2, 203760, Note_off_c, 0, 71, 0
2, 203760, Note_on_c, 0, 67, 97
2, 203760, Note_on_c, 0, 71, 97
2, 204000, Note_off_c, 0, 67, 0
2, 204000, Note_off_c, 0, 71, 0
2, 204000, Note_on_c, 0, 67, 102
2, 204000, Note_on_c, 0, 71, 102
2, 204240, Note_off_c, 0, 67, 0
2, 204240, Note_off_c, 0, 71, 0
2, 204240, Note_on_c, 0, 67, 98
2, 204240, Note_on_c, 0, 71, 98
2, 204480, Note_off_c, 0, 67, 0
2, 204480, Note_off_c, 0, 71, 0
2, 204480, Note_on_c, 0, 69, 98
2, 204480, Note_on_c, 0, 71, 98
2, 204960, Note_off_c, 0, 69, 0
2, 204960, Note_off_c, 0, 71, 0
2, 204960, Note_on_c, 0, 71, 102
2, 205440, Note_off_c, 0, 71, 0
2, 205440, Note_on_c, 0, 69, 100
2, 205440, Note_on_c, 0, 71, 100
2, 205920, Note_off_c, 0, 69, 0
2, 205920, Note_off_c, 0, 71, 0
2, 205920, Note_on_c, 0, 64, 93
2, 205920, Note_on_c, 0, 71, 93
2, 206400, Note_off_c, 0, 64, 0
2, 206400, Note_off_c, 0, 71, 0
2, 206400, Note_on_c, 0, 64, 97
2, 206400, Note_on_c, 0, 71, 97
2, 206880, Note_off_c, 0, 64, 0
2, 206880, Note_off_c, 0, 71, 0
2, 206880, Note_on_c, 0, 64, 97
2, 206880, Note_on_c, 0, 71, 97
2, 207360, Note_off_c, 0, 64, 0
2, 207360, Note_off_c, 0, 71, 0
2, 207360, Note_on_c, 0, 71, 109
2, 207360, Note_on_c, 0, 74, 109
2, 207840, Note_off_c, 0, 71, 0
2, 207840, Note_off_c, 0, 74, 0
2, 207840, Note_on_c, 0, 71, 96
2, 207840, Note_on_c, 0, 74, 96
2, 208080, Note_off_c, 0, 71, 0
2, 208080, Note_off_c, 0, 74, 0
2, 208080, Note_on_c, 0, 71, 97
2, 208080, Note_on_c, 0, 74, 97
2, 208320, Note_off_c, 0, 71, 0
2, 208320, Note_off_c, 0, 74, 0
2, 208320, Note_on_c, 0, 71, 98
2, 208320, Note_on_c, 0, 74, 98
2, 208560, Note_off_c, 0, 71, 0
2, 208560, Note_off_c, 0, 74, 0
2, 208560, Note_on_c, 0, 71, 97
2, 208560, Note_on_c, 0, 74, 97
2, 208800, Note_off_c, 0, 71, 0
2, 208800, Note_off_c, 0, 74, 0
2, 208800, Note_on_c, 0, 71, 97
2, 208800, Note_on_c, 0, 74, 97
2, 209280, Note_off_c, 0, 71, 0
2, 209280, Note_off_c, 0, 74, 0
2, 209280, Note_on_c, 0, 71, 97
2, 209280, Note_on_c, 0, 74, 97
2, 209520, Note_off_c, 0, 71, 0
2, 209520, Note_off_c, 0, 74, 0
2, 209520, Note_on_c, 0, 71, 100
2, 209520, Note_on_c, 0, 74, 100
2, 209760, Note_off_c, 0, 71, 0
2, 209760, Note_off_c, 0, 74, 0
2, 209760, Note_on_c, 0, 71, 98
2, 209760, Note_on_c, 0, 74, 98
2, 210000, Note_off_c, 0, 71, 0
2, 210000, Note_off_c, 0, 74, 0
2, 210000, Note_on_c, 0, 71, 95
2, 210000, Note_on_c, 0, 74, 95
2, 210240, Note_off_c, 0, 71, 0
2, 210240, Note_off_c, 0, 74, 0
2, 210240, Note_on_c, 0, 69, 97
2, 210240, Note_on_c, 0, 73, 97
2, 210720, Note_off_c, 0, 69, 0
2, 210720, Note_off_c, 0, 73, 0
2, 210720, Note_on_c, 0, 69, 100
2, 210720, Note_on_c, 0, 73, 100
2, 211200, Note_off_c, 0, 69, 0
2, 211200, Note_off_c, 0, 73, 0
2, 211200, Note_on_c, 0, 69, 100
2, 211200, Note_on_c, 0, 73, 100
2, 211680, Note_off_c, 0, 69, 0
2, 211680, Note_off_c, 0, 73, 0
2, 211680, Note_on_c, 0, 64, 88
2, 211680, Note_on_c, 0, 71, 88
2, 212160, Note_off_c, 0, 64, 0
2, 212160, Note_off_c, 0, 71, 0
2, 212160, Note_on_c, 0, 64, 96
2, 212160, Note_on_c, 0, 71, 96
2, 212640, Note_off_c, 0, 64, 0
2, 212640, Note_off_c, 0, 71, 0
2, 212640, Note_on_c, 0, 64, 95
2, 212640, Note_on_c, 0, 71, 95
2, 213120, Note_off_c, 0, 64, 0
2, 213120, Note_off_c, 0, 71, 0
2, 213120, Note_on_c, 0, 71, 107
2, 213120, Note_on_c, 0, 74, 107
2, 213600, Note_off_c, 0, 71, 0
2, 213600, Note_off_c, 0, 74, 0
2, 213600, Note_on_c, 0, 71, 100
2, 213600, Note_on_c, 0, 74, 100
2, 213840, Note_off_c, 0, 71, 0
2, 213840, Note_off_c, 0, 74, 0
2, 213840, Note_on_c, 0, 71, 100
2, 213840, Note_on_c, 0, 74, 100
2, 214080, Note_off_c, 0, 71, 0
2, 214080, Note_off_c, 0, 74, 0
2, 214080, Note_on_c, 0, 71, 99
2, 214080, Note_on_c, 0, 74, 99
2, 214320, Note_off_c, 0, 71, 0
2, 214320, Note_off_c, 0, 74, 0
2, 214320, Note_on_c, 0, 71, 104
2, 214320, Note_on_c, 0, 74, 104
2, 214560, Note_off_c, 0, 71, 0
2, 214560, Note_off_c, 0, 74, 0
2, 214560, Note_on_c, 0, 71, 105
2, 214560, Note_on_c, 0, 74, 105
2, 215040, Note_off_c, 0, 71, 0
2, 215040, Note_off_c, 0, 74, 0
2, 215040, Note_on_c, 0, 71, 99
2, 215040, Note_on_c, 0, 74, 99
2, 215280, Note_off_c, 0, 71, 0
2, 215280, Note_off_c, 0, 74, 0
2, 215280, Note_on_c, 0, 71, 108
2, 215280, Note_on_c, 0, 74, 108
2, 215520, Note_off_c, 0, 71, 0
2, 215520, Note_off_c, 0, 74, 0
2, 215520, Note_on_c, 0, 71, 102
2, 215520, Note_on_c, 0, 74, 102
2, 215760, Note_off_c, 0, 71, 0
2, 215760, Note_off_c, 0, 74, 0
2, 215760, Note_on_c, 0, 71, 105
2, 215760, Note_on_c, 0, 74, 105
2, 216000, Note_off_c, 0, 71, 0
2, 216000, Note_off_c, 0, 74, 0
2, 216000, Note_on_c, 0, 69, 100
2, 216000, Note_on_c, 0, 73, 100
2, 216480, Note_off_c, 0, 69, 0
2, 216480, Note_off_c, 0, 73, 0
2, 216480, Note_on_c, 0, 69, 108
2, 216480, Note_on_c, 0, 73, 108
2, 216960, Note_off_c, 0, 69, 0
2, 216960, Note_off_c, 0, 73, 0
2, 216960, Note_on_c, 0, 69, 112
2, 216960, Note_on_c, 0, 73, 112
2, 217440, Note_off_c, 0, 69, 0
2, 217440, Note_off_c, 0, 73, 0
2, 217440, Note_on_c, 0, 64, 107
2, 217440, Note_on_c, 0, 71, 107
2, 217920, Note_off_c, 0, 64, 0
2, 217920, Note_off_c, 0, 71, 0
2, 217920, Note_on_c, 0, 59, 117
2, 217920, Note_on_c, 0, 71, 117
2, 218400, Note_off_c, 0, 59, 0
2, 218400, Note_off_c, 0, 71, 0
2, 218400, Note_on_c, 0, 61, 121
2, 218400, Note_on_c, 0, 73, 121
2, 218880, Note_off_c, 0, 61, 0
2, 218880, Note_off_c, 0, 73, 0
2, 218880, Note_on_c, 0, 62, 124
2, 218880, Note_on_c, 0, 66, 124
2, 218880, Note_on_c, 0, 74, 124
2, 220800, Note_off_c, 0, 62, 0
2, 220800, Note_off_c, 0, 66, 0
2, 220800, Note_off_c, 0, 74, 0
2, 220800, Note_on_c, 0, 62, 112
2, 220800, Note_on_c, 0, 74, 112
2, 221280, Note_off_c, 0, 62, 0
2, 221280, Note_off_c, 0, 74, 0
2, 221280, Note_on_c, 0, 64, 119
2, 221280, Note_on_c, 0, 76, 119
2, 221760, Note_off_c, 0, 64, 0
2, 221760, Note_off_c, 0, 76, 0
2, 221760, Note_on_c, 0, 66, 120
2, 221760, Note_on_c, 0, 69, 120
2, 221760, Note_on_c, 0, 78, 120
2, 223680, Note_off_c, 0, 66, 0
2, 223680, Note_off_c, 0, 69, 0
2, 223680, Note_off_c, 0, 78, 0
2, 223680, Note_on_c, 0, 66, 116
2, 223680, Note_on_c, 0, 78, 116
2, 224160, Note_off_c, 0, 66, 0
2, 224160, Note_off_c, 0, 78, 0
2, 224160, Note_on_c, 0, 69, 123
2, 224160, Note_on_c, 0, 81, 123
2, 224640, Note_off_c, 0, 69, 0
2, 224640, Note_off_c, 0, 81, 0
2, 224640, Note_on_c, 0, 64, 100
2, 224640, Note_on_c, 0, 69, 100
2, 224640, Note_on_c, 0, 73, 100
2, 224640, Note_on_c, 0, 76, 100
2, 226560, Note_off_c, 0, 64, 0
2, 226560, Note_off_c, 0, 69, 0
2, 226560, Note_off_c, 0, 73, 0
2, 226560, Note_off_c, 0, 76, 0
2, 226560, Note_on_c, 0, 62, 103
2, 226560, Note_on_c, 0, 74, 103
2, 227040, Note_off_c, 0, 62, 0
2, 227040, Note_off_c, 0, 74, 0
2, 227040, Note_on_c, 0, 61, 108
2, 227040, Note_on_c, 0, 73, 108
2, 227520, Note_off_c, 0, 61, 0
2, 227520, Note_off_c, 0, 73, 0
2, 227520, Note_on_c, 0, 59, 104
2, 227520, Note_on_c, 0, 64, 104
2, 227520, Note_on_c, 0, 68, 104
2, 227520, Note_on_c, 0, 71, 104
2, 229440, Note_off_c, 0, 59, 0
2, 229440, Note_off_c, 0, 64, 0
2, 229440, Note_off_c, 0, 68, 0
2, 229440, Note_off_c, 0, 71, 0
2, 229440, Note_on_c, 0, 59, 114
2, 229440, Note_on_c, 0, 71, 114
2, 229920, Note_off_c, 0, 59, 0
2, 229920, Note_off_c, 0, 71, 0
2, 229920, Note_on_c, 0, 61, 119
2, 229920, Note_on_c, 0, 73, 119
2, 230400, Note_off_c, 0, 61, 0
2, 230400, Note_off_c, 0, 73, 0
2, 230400, Note_on_c, 0, 62, 120
2, 230400, Note_on_c, 0, 66, 120
2, 230400, Note_on_c, 0, 74, 120
2, 232320, Note_off_c, 0, 62, 0
2, 232320, Note_off_c, 0, 66, 0
2, 232320, Note_off_c, 0, 74, 0
2, 232320, Note_on_c, 0, 62, 114
2, 232320, Note_on_c, 0, 74, 114
2, 232800, Note_off_c, 0, 62, 0
2, 232800, Note_off_c, 0, 74, 0
2, 232800, Note_on_c, 0, 64, 118
2, 232800, Note_on_c, 0, 76, 118
2, 233280, Note_off_c, 0, 64, 0
2, 233280, Note_off_c, 0, 76, 0
2, 233280, Note_on_c, 0, 66, 122
2, 233280, Note_on_c, 0, 69, 122
2, 233280, Note_on_c, 0, 78, 122
2, 235200, Note_off_c, 0, 66, 0
2, 235200, Note_off_c, 0, 69, 0
2, 235200, Note_off_c, 0, 78, 0
2, 235200, Note_on_c, 0, 66, 113
2, 235200, Note_on_c, 0, 78, 113
2, 235680, Note_off_c, 0, 66, 0
2, 235680, Note_off_c, 0, 78, 0
2, 235680, Note_on_c, 0, 69, 120
2, 235680, Note_on_c, 0, 81, 120
2, 236160, Note_off_c, 0, 69, 0
2, 236160, Note_off_c, 0, 81, 0
2, 236160, Note_on_c, 0, 71, 123
2, 236160, Note_on_c, 0, 74, 123
2, 236160, Note_on_c, 0, 83, 123
2, 238080, Note_off_c, 0, 71, 0
2, 238080, Note_off_c, 0, 74, 0
2, 238080, Note_off_c, 0, 83, 0
2, 238080, Note_on_c, 0, 69, 105
2, 238080, Note_on_c, 0, 81, 105
2, 238560, Note_off_c, 0, 69, 0
2, 238560, Note_off_c, 0, 81, 0
2, 238560, Note_on_c, 0, 73, 127
2, 238560, Note_on_c, 0, 85, 127
2, 239040, Note_off_c, 0, 73, 0
2, 239040, Note_off_c, 0, 85, 0
2, 239040, Note_on_c, 0, 71, 107
2, 239040, Note_on_c, 0, 83, 107
2, 240960, Note_off_c, 0, 71, 0
2, 240960, Note_off_c, 0, 83, 0
2, 240960, Note_on_c, 0, 71, 108
2, 240960, Note_on_c, 0, 83, 108
2, 241440, Note_off_c, 0, 71, 0
2, 241440, Note_off_c, 0, 83, 0
2, 241440, Note_on_c, 0, 73, 123
2, 241440, Note_on_c, 0, 85, 123
2, 241920, Note_off_c, 0, 73, 0
2, 241920, Note_off_c, 0, 85, 0
2, 241920, Note_on_c, 0, 74, 115
2, 241920, Note_on_c, 0, 86, 115
2, 242880, Note_off_c, 0, 74, 0
2, 242880, Note_off_c, 0, 86, 0
2, 242880, Note_on_c, 0, 73, 104
2, 242880, Note_on_c, 0, 85, 104
2, 243840, Note_off_c, 0, 73, 0
2, 243840, Note_off_c, 0, 85, 0
2, 243840, Note_on_c, 0, 71, 105
2, 243840, Note_on_c, 0, 83, 105
2, 244800, Note_off_c, 0, 71, 0
2, 244800, Note_off_c, 0, 83, 0
2, 244800, Note_on_c, 0, 69, 103
2, 244800, Note_on_c, 0, 81, 103
2, 245760, Note_off_c, 0, 69, 0
2, 245760, Note_off_c, 0, 81, 0
2, 245760, Note_on_c, 0, 67, 106
2, 245760, Note_on_c, 0, 79, 106
2, 246720, Note_off_c, 0, 67, 0
2, 246720, Note_off_c, 0, 79, 0
2, 246720, Note_on_c, 0, 66, 108
2, 246720, Note_on_c, 0, 78, 108
2, 247680, Note_off_c, 0, 66, 0
2, 247680, Note_off_c, 0, 78, 0
2, 247680, Note_on_c, 0, 64, 105
2, 247680, Note_on_c, 0, 76, 105
2, 249600, Note_off_c, 0, 64, 0
2, 249600, Note_off_c, 0, 76, 0
2, 249600, Note_on_c, 0, 62, 103
2, 249600, Note_on_c, 0, 74, 103
2, 250080, Note_off_c, 0, 62, 0
2, 250080, Note_off_c, 0, 74, 0
2, 250080, Note_on_c, 0, 66, 123
2, 250080, Note_on_c, 0, 78, 123
2, 250560, Note_off_c, 0, 66, 0
2, 250560, Note_off_c, 0, 78, 0
2, 250560, Note_on_c, 0, 64, 109
2, 250560, Note_on_c, 0, 76, 109
2, 252480, Note_off_c, 0, 64, 0
2, 252480, Note_off_c, 0, 76, 0
2, 252960, Note_on_c, 0, 62, 104
2, 252960, Note_on_c, 0, 74, 104
2, 253200, Note_off_c, 0, 62, 0
2, 253200, Note_off_c, 0, 74, 0
2, 253200, Note_on_c, 0, 61, 107
2, 253200, Note_on_c, 0, 73, 107
2, 253440, Note_off_c, 0, 61, 0
2, 253440, Note_off_c, 0, 73, 0
2, 253440, Note_on_c, 0, 62, 127
2, 253440, Note_on_c, 0, 74, 127
2, 254400, Note_off_c, 0, 62, 0
2, 254400, Note_off_c, 0, 74, 0
2, 254400, Note_on_c, 0, 62, 112
2, 254400, Note_on_c, 0, 74, 112
2, 254640, Note_off_c, 0, 62, 0
2, 254640, Note_off_c, 0, 74, 0
2, 254640, Note_on_c, 0, 61, 110
2, 254640, Note_on_c, 0, 73, 110
2, 254880, Note_off_c, 0, 61, 0
2, 254880, Note_off_c, 0, 73, 0
2, 254880, Note_on_c, 0, 62, 127
2, 254880, Note_on_c, 0, 74, 127
2, 255840, Note_off_c, 0, 62, 0
2, 255840, Note_off_c, 0, 74, 0
2, 255840, Note_on_c, 0, 61, 112
2, 255840, Note_on_c, 0, 73, 112
2, 256080, Note_off_c, 0, 61, 0
2, 256080, Note_off_c, 0, 73, 0
2, 256080, Note_on_c, 0, 62, 117
2, 256080, Note_on_c, 0, 74, 117
2, 256320, Note_off_c, 0, 62, 0
2, 256320, Note_off_c, 0, 74, 0
2, 256320, Note_on_c, 0, 64, 127
2, 256320, Note_on_c, 0, 76, 127
2, 256800, Note_off_c, 0, 64, 0
2, 256800, Note_off_c, 0, 76, 0
2, 256800, Note_on_c, 0, 62, 104
2, 256800, Note_on_c, 0, 74, 104
2, 257280, Note_off_c, 0, 62, 0
2, 257280, Note_off_c, 0, 74, 0
2, 257280, Note_on_c, 0, 61, 110
2, 257280, Note_on_c, 0, 73, 110
2, 257760, Note_off_c, 0, 61, 0
2, 257760, Note_off_c, 0, 73, 0
2, 257760, Note_on_c, 0, 59, 124
2, 257760, Note_on_c, 0, 62, 124
2, 257760, Note_on_c, 0, 71, 124
2, 258720, Note_off_c, 0, 59, 0
2, 258720, Note_off_c, 0, 62, 0
2, 258720, Note_off_c, 0, 71, 0
2, 258720, Note_on_c, 0, 59, 113
2, 258720, Note_on_c, 0, 62, 113
2, 258720, Note_on_c, 0, 71, 113
2, 258960, Note_off_c, 0, 59, 0
2, 258960, Note_off_c, 0, 62, 0
2, 258960, Note_off_c, 0, 71, 0
2, 258960, Note_on_c, 0, 57, 104
2, 258960, Note_on_c, 0, 69, 104
2, 259200, Note_off_c, 0, 57, 0
2, 259200, Note_off_c, 0, 69, 0
2, 259200, Note_on_c, 0, 59, 127
2, 259200, Note_on_c, 0, 62, 127
2, 259200, Note_on_c, 0, 71, 127
2, 260160, Note_off_c, 0, 59, 0
2, 260160, Note_off_c, 0, 62, 0
2, 260160, Note_off_c, 0, 71, 0
2, 260160, Note_on_c, 0, 59, 114
2, 260160, Note_on_c, 0, 71, 114
2, 260400, Note_off_c, 0, 59, 0
2, 260400, Note_off_c, 0, 71, 0
2, 260400, Note_on_c, 0, 59, 104
2, 260400, Note_on_c, 0, 69, 104
2, 260640, Note_off_c, 0, 59, 0
2, 260640, Note_off_c, 0, 69, 0
2, 260640, Note_on_c, 0, 59, 127
2, 260640, Note_on_c, 0, 64, 127
2, 260640, Note_on_c, 0, 71, 127
2, 261600, Note_off_c, 0, 59, 0
2, 261600, Note_off_c, 0, 64, 0
2, 261600, Note_off_c, 0, 71, 0
2, 261600, Note_on_c, 0, 57, 106
2, 261600, Note_on_c, 0, 69, 106
2, 261840, Note_off_c, 0, 57, 0
2, 261840, Note_off_c, 0, 69, 0
2, 261840, Note_on_c, 0, 59, 119
2, 261840, Note_on_c, 0, 71, 119
2, 262080, Note_off_c, 0, 59, 0
2, 262080, Note_off_c, 0, 71, 0
2, 262080, Note_on_c, 0, 61, 127
2, 262080, Note_on_c, 0, 73, 127
2, 262560, Note_off_c, 0, 61, 0
2, 262560, Note_off_c, 0, 73, 0
2, 262560, Note_on_c, 0, 62, 124
2, 262560, Note_on_c, 0, 74, 124
2, 263040, Note_off_c, 0, 62, 0
2, 263040, Note_off_c, 0, 74, 0
2, 263040, Note_on_c, 0, 57, 98
2, 263040, Note_on_c, 0, 69, 98
2, 263520, Note_off_c, 0, 57, 0
2, 263520, Note_off_c, 0, 69, 0
2, 263520, Note_on_c, 0, 59, 127
2, 263520, Note_on_c, 0, 62, 127
2, 263520, Note_on_c, 0, 71, 127
2, 264480, Note_off_c, 0, 59, 0
2, 264480, Note_off_c, 0, 62, 0
2, 264480, Note_off_c, 0, 71, 0
2, 264480, Note_on_c, 0, 59, 112
2, 264480, Note_on_c, 0, 71, 112
2, 264720, Note_off_c, 0, 59, 0
2, 264720, Note_off_c, 0, 71, 0
2, 264720, Note_on_c, 0, 61, 122
2, 264720, Note_on_c, 0, 73, 122
2, 264960, Note_off_c, 0, 61, 0
2, 264960, Note_off_c, 0, 73, 0
2, 264960, Note_on_c, 0, 62, 120
2, 264960, Note_on_c, 0, 74, 120
2, 265440, Note_off_c, 0, 62, 0
2, 265440, Note_off_c, 0, 74, 0
2, 265440, Note_on_c, 0, 62, 112
2, 265440, Note_on_c, 0, 74, 112
2, 265920, Note_off_c, 0, 62, 0
2, 265920, Note_off_c, 0, 74, 0
2, 265920, Note_on_c, 0, 62, 111
2, 265920, Note_on_c, 0, 74, 111
2, 266160, Note_off_c, 0, 62, 0
2, 266160, Note_off_c, 0, 74, 0
2, 266160, Note_on_c, 0, 64, 119
2, 266160, Note_on_c, 0, 76, 119
2, 266400, Note_off_c, 0, 64, 0
2, 266400, Note_off_c, 0, 76, 0
2, 266400, Note_on_c, 0, 66, 127
2, 266400, Note_on_c, 0, 78, 127
2, 267360, Note_off_c, 0, 66, 0
2, 267360, Note_off_c, 0, 78, 0
2, 267360, Note_on_c, 0, 61, 102
2, 267360, Note_on_c, 0, 73, 102
2, 267600, Note_off_c, 0, 61, 0
2, 267600, Note_off_c, 0, 73, 0
2, 267600, Note_on_c, 0, 62, 118
2, 267600, Note_on_c, 0, 74, 118
2, 267840, Note_off_c, 0, 62, 0
2, 267840, Note_off_c, 0, 74, 0
2, 267840, Note_on_c, 0, 64, 120
2, 267840, Note_on_c, 0, 76, 120
2, 268320, Note_off_c, 0, 64, 0
2, 268320, Note_off_c, 0, 76, 0
2, 268320, Note_on_c, 0, 62, 108
2, 268320, Note_on_c, 0, 74, 108
2, 268800, Note_off_c, 0, 62, 0
2, 268800, Note_off_c, 0, 74, 0
2, 268800, Note_on_c, 0, 61, 105
2, 268800, Note_on_c, 0, 73, 105
2, 269280, Note_off_c, 0, 61, 0
2, 269280, Note_off_c, 0, 73, 0
2, 269280, Note_on_c, 0, 59, 127
2, 269280, Note_on_c, 0, 62, 127
2, 269280, Note_on_c, 0, 71, 127
2, 270240, Note_off_c, 0, 59, 0
2, 270240, Note_off_c, 0, 62, 0
2, 270240, Note_off_c, 0, 71, 0
2, 270240, Note_on_c, 0, 59, 111
2, 270240, Note_on_c, 0, 71, 111
2, 270480, Note_off_c, 0, 59, 0
2, 270480, Note_off_c, 0, 71, 0
2, 270480, Note_on_c, 0, 57, 106
2, 270480, Note_on_c, 0, 69, 106
2, 270720, Note_off_c, 0, 57, 0
2, 270720, Note_off_c, 0, 69, 0
2, 270720, Note_on_c, 0, 59, 127
2, 270720, Note_on_c, 0, 62, 127
2, 270720, Note_on_c, 0, 71, 127
2, 271680, Note_off_c, 0, 59, 0
2, 271680, Note_off_c, 0, 62, 0
2, 271680, Note_off_c, 0, 71, 0
2, 271680, Note_on_c, 0, 59, 111
2, 271680, Note_on_c, 0, 71, 111
2, 271920, Note_off_c, 0, 59, 0
2, 271920, Note_off_c, 0, 71, 0
2, 271920, Note_on_c, 0, 57, 108
2, 271920, Note_on_c, 0, 69, 108
2, 272160, Note_off_c, 0, 57, 0
2, 272160, Note_off_c, 0, 69, 0
2, 272160, Note_on_c, 0, 59, 127
2, 272160, Note_on_c, 0, 64, 127
2, 272160, Note_on_c, 0, 71, 127
2, 273120, Note_off_c, 0, 59, 0
2, 273120, Note_off_c, 0, 64, 0
2, 273120, Note_off_c, 0, 71, 0
2, 273120, Note_on_c, 0, 57, 106
2, 273120, Note_on_c, 0, 69, 106
2, 273360, Note_off_c, 0, 57, 0
2, 273360, Note_off_c, 0, 69, 0
2, 273360, Note_on_c, 0, 59, 121
2, 273360, Note_on_c, 0, 71, 121
2, 273600, Note_off_c, 0, 59, 0
2, 273600, Note_off_c, 0, 71, 0
2, 273600, Note_on_c, 0, 61, 127
2, 273600, Note_on_c, 0, 73, 127
2, 274080, Note_off_c, 0, 61, 0
2, 274080, Note_off_c, 0, 73, 0
2, 274080, Note_on_c, 0, 62, 119
2, 274080, Note_on_c, 0, 74, 119
2, 274560, Note_off_c, 0, 62, 0
2, 274560, Note_off_c, 0, 74, 0
2, 274560, Note_on_c, 0, 57, 100
2, 274560, Note_on_c, 0, 69, 100
2, 275040, Note_off_c, 0, 57, 0
2, 275040, Note_off_c, 0, 69, 0
2, 275040, Note_on_c, 0, 59, 127
2, 275040, Note_on_c, 0, 62, 127
2, 275040, Note_on_c, 0, 66, 127
2, 275040, Note_on_c, 0, 71, 127
2, 276480, Note_off_c, 0, 59, 0
2, 276480, Note_off_c, 0, 62, 0
2, 276480, Note_off_c, 0, 66, 0
2, 276480, Note_off_c, 0, 71, 0
2, 276480, Note_on_c, 0, 66, 127
2, 276480, Note_on_c, 0, 71, 127
2, 276480, Note_on_c, 0, 78, 127
2, 277440, Note_off_c, 0, 66, 0
2, 277440, Note_off_c, 0, 71, 0
2, 277440, Note_off_c, 0, 78, 0
2, 277440, Note_on_c, 0, 59, 100
2, 277440, Note_on_c, 0, 71, 100
2, 277920, Note_off_c, 0, 59, 0
2, 277920, Note_off_c, 0, 71, 0
2, 277920, Note_on_c, 0, 66, 127
2, 277920, Note_on_c, 0, 71, 127
2, 277920, Note_on_c, 0, 78, 127
2, 278880, Note_off_c, 0, 66, 0
2, 278880, Note_off_c, 0, 71, 0
2, 278880, Note_off_c, 0, 78, 0
2, 278880, Note_on_c, 0, 59, 95
2, 278880, Note_on_c, 0, 71, 95
2, 279360, Note_off_c, 0, 59, 0
2, 279360, Note_off_c, 0, 71, 0
2, 279360, Note_on_c, 0, 66, 127
2, 279360, Note_on_c, 0, 71, 127
2, 279360, Note_on_c, 0, 78, 127
2, 280320, Note_off_c, 0, 66, 0
2, 280320, Note_off_c, 0, 71, 0
2, 280320, Note_off_c, 0, 78, 0
2, 280320, Note_on_c, 0, 59, 98
2, 280320, Note_on_c, 0, 71, 98
2, 280800, Note_off_c, 0, 59, 0
2, 280800, Note_off_c, 0, 71, 0
2, 280800, Note_on_c, 0, 66, 127
2, 280800, Note_on_c, 0, 71, 127
2, 280800, Note_on_c, 0, 78, 127
2, 282240, Note_off_c, 0, 66, 0
2, 282240, Note_off_c, 0, 71, 0
2, 282240, Note_off_c, 0, 78, 0
2, 282240, Note_on_c, 0, 66, 127
2, 282240, Note_on_c, 0, 71, 127
2, 282240, Note_on_c, 0, 78, 127
2, 283200, Note_off_c, 0, 66, 0
2, 283200, Note_off_c, 0, 71, 0
2, 283200, Note_off_c, 0, 78, 0
2, 283200, Note_on_c, 0, 59, 93
2, 283200, Note_on_c, 0, 71, 93
2, 283680, Note_off_c, 0, 59, 0
2, 283680, Note_off_c, 0, 71, 0
2, 283680, Note_on_c, 0, 66, 127
2, 283680, Note_on_c, 0, 71, 127
2, 283680, Note_on_c, 0, 78, 127
2, 284640, Note_off_c, 0, 66, 0
2, 284640, Note_off_c, 0, 71, 0
2, 284640, Note_off_c, 0, 78, 0
2, 284640, Note_on_c, 0, 59, 93
2, 284640, Note_on_c, 0, 71, 93
2, 285120, Note_off_c, 0, 59, 0
2, 285120, Note_off_c, 0, 71, 0
2, 285120, Note_on_c, 0, 66, 127
2, 285120, Note_on_c, 0, 71, 127
2, 285120, Note_on_c, 0, 78, 127
2, 286080, Note_off_c, 0, 66, 0
2, 286080, Note_off_c, 0, 71, 0
2, 286080, Note_off_c, 0, 78, 0
2, 286080, Note_on_c, 0, 59, 95
2, 286080, Note_on_c, 0, 71, 95
2, 286560, Note_off_c, 0, 59, 0
2, 286560, Note_off_c, 0, 71, 0
2, 286560, Note_on_c, 0, 66, 127
2, 286560, Note_on_c, 0, 71, 127
2, 286560, Note_on_c, 0, 78, 127
2, 288000, Note_off_c, 0, 66, 0
2, 288000, Note_off_c, 0, 71, 0
2, 288000, Note_off_c, 0, 78, 0
2, 288000, Note_on_c, 0, 66, 127
2, 288000, Note_on_c, 0, 71, 127
2, 288000, Note_on_c, 0, 78, 127
2, 288960, Note_off_c, 0, 66, 0
2, 288960, Note_off_c, 0, 71, 0
2, 288960, Note_off_c, 0, 78, 0
2, 288960, Note_on_c, 0, 59, 90
2, 288960, Note_on_c, 0, 71, 90
2, 289440, Note_off_c, 0, 59, 0
2, 289440, Note_off_c, 0, 71, 0
2, 289440, Note_on_c, 0, 66, 127
2, 289440, Note_on_c, 0, 71, 127
2, 289440, Note_on_c, 0, 78, 127
2, 290400, Note_off_c, 0, 66, 0
2, 290400, Note_off_c, 0, 71, 0
2, 290400, Note_off_c, 0, 78, 0
2, 290400, Note_on_c, 0, 59, 94
2, 290400, Note_on_c, 0, 71, 94
2, 290880, Note_off_c, 0, 59, 0
2, 290880, Note_off_c, 0, 71, 0
2, 290880, Note_on_c, 0, 66, 127
2, 290880, Note_on_c, 0, 71, 127
2, 290880, Note_on_c, 0, 78, 127
2, 294720, Note_off_c, 0, 66, 0
2, 294720, Note_off_c, 0, 71, 0
2, 294720, Note_off_c, 0, 78, 0
2, 294720, Note_on_c, 0, 71, 50
2, 295680, Note_on_c, 0, 73, 53
2, 295699, Note_off_c, 0, 71, 0
2, 296640, Note_on_c, 0, 66, 63
2, 296640, Note_on_c, 0, 74, 63
2, 296659, Note_off_c, 0, 73, 0
2, 299520, Note_on_c, 0, 73, 65
2, 299576, Note_off_c, 0, 66, 0
2, 299576, Note_off_c, 0, 74, 0
2, 302400, Note_on_c, 0, 66, 69
2, 302456, Note_off_c, 0, 73, 0
2, 302539, Note_on_c, 0, 71, 69
2, 302678, Note_on_c, 0, 78, 69
2, 305134, Note_off_c, 0, 66, 0
2, 305141, Note_off_c, 0, 71, 0
2, 305149, Note_off_c, 0, 78, 0
2, 305280, Note_on_c, 0, 59, 60
2, 306720, Note_on_c, 0, 61, 60
2, 306746, Note_off_c, 0, 59, 0
2, 308160, Note_on_c, 0, 62, 77
2, 308186, Note_off_c, 0, 61, 0
2, 309600, Note_on_c, 0, 66, 89
2, 309626, Note_off_c, 0, 62, 0
2, 311040, Note_on_c, 0, 59, 85
2, 311040, Note_on_c, 0, 62, 85
2, 311040, Note_on_c, 0, 67, 85
2, 311040, Note_on_c, 0, 71, 85
2, 311066, Note_off_c, 0, 66, 0
2, 313774, Note_off_c, 0, 59, 0
2, 313774, Note_off_c, 0, 62, 0
2, 313774, Note_off_c, 0, 67, 0
2, 313774, Note_off_c, 0, 71, 0
2, 313920, Note_on_c, 0, 71, 92
2, 313920, Note_on_c, 0, 83, 92
2, 315360, Note_on_c, 0, 69, 91
2, 315360, Note_on_c, 0, 81, 91
2, 315386, Note_off_c, 0, 71, 0
2, 315386, Note_off_c, 0, 83, 0
2, 316800, Note_on_c, 0, 67, 65
2, 316800, Note_on_c, 0, 79, 65
2, 316826, Note_off_c, 0, 69, 0
2, 316826, Note_off_c, 0, 81, 0
2, 318240, Note_on_c, 0, 66, 58
2, 318240, Note_on_c, 0, 78, 58
2, 318266, Note_off_c, 0, 67, 0
2, 318266, Note_off_c, 0, 79, 0
2, 319680, Note_on_c, 0, 64, 63
2, 319680, Note_on_c, 0, 76, 63
2, 319706, Note_off_c, 0, 66, 0
2, 319706, Note_off_c, 0, 78, 0
2, 321120, Note_off_c, 0, 64, 0
2, 321120, Note_on_c, 0, 56, 44
2, 321120, Note_on_c, 0, 64, 44
2, 321146, Note_off_c, 0, 76, 0
2, 323854, Note_off_c, 0, 56, 0
2, 323854, Note_off_c, 0, 64, 0
2, 324000, Note_on_c, 0, 52, 59
2, 326880, Note_off_c, 0, 52, 0
2, 326880, Note_on_c, 0, 59, 75
2, 329760, Note_off_c, 0, 59, 0
2, 329760, Note_on_c, 0, 64, 89
2, 329760, Note_on_c, 0, 68, 89
2, 339840, Note_off_c, 0, 64, 0
2, 339840, Note_off_c, 0, 68, 0
2, 339841, End_track
3, 0, Start_track
3, 0, Control_c, 1, 0, 0
3, 0, Control_c, 1, 32, 0
3, 0, Program_c, 1, 1
3, 0, Control_c, 1, 121, 0
3, 0, Control_c, 1, 64, 0
3, 0, Control_c, 1, 91, 48
3, 0, Control_c, 1, 10, 64
3, 0, Control_c, 1, 7, 100
3, 0, Note_on_c, 1, 23, 58
3, 0, Note_on_c, 1, 35, 58
3, 2400, Note_off_c, 1, 23, 0
3, 2400, Note_off_c, 1, 35, 0
3, 2400, Note_on_c, 1, 23, 55
3, 2400, Note_on_c, 1, 35, 55
3, 2880, Note_off_c, 1, 23, 0
3, 2880, Note_off_c, 1, 35, 0
3, 2880, Note_on_c, 1, 23, 58
3, 2880, Note_on_c, 1, 35, 58
3, 5760, Note_off_c, 1, 23, 0
3, 5760, Note_off_c, 1, 35, 0
3, 5760, Note_on_c, 1, 23, 58
3, 5760, Note_on_c, 1, 35, 58
3, 8160, Note_off_c, 1, 23, 0
3, 8160, Note_off_c, 1, 35, 0
3, 8160, Note_on_c, 1, 23, 61
3, 8160, Note_on_c, 1, 35, 61
3, 8640, Note_off_c, 1, 23, 0
3, 8640, Note_off_c, 1, 35, 0
3, 8640, Note_on_c, 1, 23, 62
3, 8640, Note_on_c, 1, 35, 62
3, 11520, Note_off_c, 1, 23, 0
3, 11520, Note_off_c, 1, 35, 0
3, 11520, Note_on_c, 1, 23, 61
3, 11520, Note_on_c, 1, 35, 61
3, 13920, Note_off_c, 1, 23, 0
3, 13920, Note_off_c, 1, 35, 0
3, 13920, Note_on_c, 1, 23, 62
3, 13920, Note_on_c, 1, 35, 62
3, 14400, Note_off_c, 1, 23, 0
3, 14400, Note_off_c, 1, 35, 0
3, 14400, Note_on_c, 1, 23, 61
3, 14400, Note_on_c, 1, 35, 61
3, 17280, Note_off_c, 1, 23, 0
3, 17280, Note_off_c, 1, 35, 0
3, 17280, Note_on_c, 1, 23, 61
3, 17280, Note_on_c, 1, 35, 61
3, 19680, Note_off_c, 1, 23, 0
3, 19680, Note_off_c, 1, 35, 0
3, 19680, Note_on_c, 1, 23, 59
3, 19680, Note_on_c, 1, 35, 59
3, 20160, Note_off_c, 1, 23, 0
3, 20160, Note_off_c, 1, 35, 0
3, 20160, Note_on_c, 1, 23, 55
3, 20160, Note_on_c, 1, 35, 55
3, 23040, Note_off_c, 1, 23, 0
3, 23040, Note_off_c, 1, 35, 0
3, 23040, Note_on_c, 1, 35, 59
3, 23040, Note_on_c, 1, 47, 59
3, 24480, Note_off_c, 1, 35, 0
3, 24480, Note_off_c, 1, 47, 0
3, 24480, Note_on_c, 1, 31, 66
3, 24480, Note_on_c, 1, 43, 66
3, 25920, Note_off_c, 1, 31, 0
3, 25920, Note_off_c, 1, 43, 0
3, 25920, Note_on_c, 1, 33, 66
3, 25920, Note_on_c, 1, 45, 66
3, 27360, Note_off_c, 1, 33, 0
3, 27360, Note_off_c, 1, 45, 0
3, 27360, Note_on_c, 1, 28, 57
3, 27360, Note_on_c, 1, 40, 57
3, 28800, Note_off_c, 1, 28, 0
3, 28800, Note_off_c, 1, 40, 0
3, 28800, Note_on_c, 1, 35, 65
3, 28800, Note_on_c, 1, 47, 65
3, 30240, Note_off_c, 1, 35, 0
3, 30240, Note_off_c, 1, 47, 0
3, 30240, Note_on_c, 1, 31, 70
3, 30240, Note_on_c, 1, 43, 70
3, 31680, Note_off_c, 1, 31, 0
3, 31680, Note_off_c, 1, 43, 0
3, 31680, Note_on_c, 1, 33, 64
3, 31680, Note_on_c, 1, 45, 64
3, 33120, Note_off_c, 1, 33, 0
3, 33120, Note_off_c, 1, 45, 0
3, 33120, Note_on_c, 1, 28, 59
3, 33120, Note_on_c, 1, 40, 59
3, 34560, Note_off_c, 1, 28, 0
3, 34560, Note_off_c, 1, 40, 0
3, 34560, Note_on_c, 1, 35, 65
3, 34560, Note_on_c, 1, 47, 65
3, 36000, Note_off_c, 1, 35, 0
3, 36000, Note_off_c, 1, 47, 0
3, 36000, Note_on_c, 1, 31, 72
3, 36000, Note_on_c, 1, 43, 72
3, 37440, Note_off_c, 1, 31, 0
3, 37440, Note_off_c, 1, 43, 0
3, 37440, Note_on_c, 1, 33, 63
3, 37440, Note_on_c, 1, 45, 63
3, 38880, Note_off_c, 1, 33, 0
3, 38880, Note_off_c, 1, 45, 0
3, 38880, Note_on_c, 1, 28, 59
3, 38880, Note_on_c, 1, 40, 59
3, 40320, Note_off_c, 1, 28, 0
3, 40320, Note_off_c, 1, 40, 0
3, 40320, Note_on_c, 1, 35, 64
3, 40320, Note_on_c, 1, 47, 64
3, 41760, Note_off_c, 1, 35, 0
3, 41760, Note_off_c, 1, 47, 0
3, 41760, Note_on_c, 1, 31, 69
3, 41760, Note_on_c, 1, 43, 69
3, 43200, Note_off_c, 1, 31, 0
3, 43200, Note_off_c, 1, 43, 0
3, 43200, Note_on_c, 1, 28, 56
3, 43200, Note_on_c, 1, 40, 56
3, 44640, Note_off_c, 1, 28, 0
3, 44640, Note_off_c, 1, 40, 0
3, 44640, Note_on_c, 1, 35, 70
3, 44640, Note_on_c, 1, 47, 70
3, 45600, Note_off_c, 1, 35, 0
3, 45600, Note_off_c, 1, 47, 0
3, 45600, Note_on_c, 1, 35, 63
3, 45600, Note_on_c, 1, 47, 63
3, 46080, Note_off_c, 1, 35, 0
3, 46080, Note_off_c, 1, 47, 0
3, 46080, Note_on_c, 1, 35, 68
3, 46080, Note_on_c, 1, 47, 68
3, 46800, Note_off_c, 1, 35, 0
3, 46800, Note_off_c, 1, 47, 0
3, 46800, Note_on_c, 1, 35, 71
3, 46800, Note_on_c, 1, 47, 71
3, 47040, Note_off_c, 1, 35, 0
3, 47040, Note_off_c, 1, 47, 0
3, 47040, Note_on_c, 1, 35, 67
3, 47040, Note_on_c, 1, 47, 67
3, 47520, Note_off_c, 1, 35, 0
3, 47520, Note_off_c, 1, 47, 0
3, 47520, Note_on_c, 1, 35, 71
3, 47520, Note_on_c, 1, 47, 71
3, 48000, Note_off_c, 1, 35, 0
3, 48000, Note_off_c, 1, 47, 0
3, 48000, Note_on_c, 1, 35, 66
3, 48000, Note_on_c, 1, 47, 66
3, 48480, Note_off_c, 1, 35, 0
3, 48480, Note_off_c, 1, 47, 0
3, 48480, Note_on_c, 1, 35, 71
3, 48480, Note_on_c, 1, 47, 71
3, 48960, Note_off_c, 1, 35, 0
3, 48960, Note_off_c, 1, 47, 0
3, 48960, Note_on_c, 1, 35, 69
3, 48960, Note_on_c, 1, 47, 69
3, 49680, Note_off_c, 1, 35, 0
3, 49680, Note_off_c, 1, 47, 0
3, 49680, Note_on_c, 1, 35, 74
3, 49680, Note_on_c, 1, 47, 74
3, 49920, Note_off_c, 1, 35, 0
3, 49920, Note_off_c, 1, 47, 0
3, 49920, Note_on_c, 1, 35, 70
3, 49920, Note_on_c, 1, 47, 70
3, 50400, Note_off_c, 1, 35, 0
3, 50400, Note_off_c, 1, 47, 0
3, 50400, Note_on_c, 1, 35, 72
3, 50400, Note_on_c, 1, 47, 72
3, 50880, Note_off_c, 1, 35, 0
3, 50880, Note_off_c, 1, 47, 0
3, 50880, Note_on_c, 1, 35, 69
3, 50880, Note_on_c, 1, 47, 69
3, 51360, Note_off_c, 1, 35, 0
3, 51360, Note_off_c, 1, 47, 0
3, 51360, Note_on_c, 1, 35, 70
3, 51360, Note_on_c, 1, 47, 70
3, 51840, Note_off_c, 1, 35, 0
3, 51840, Note_off_c, 1, 47, 0
3, 51840, Note_on_c, 1, 31, 67
3, 51840, Note_on_c, 1, 43, 67
3, 52560, Note_off_c, 1, 31, 0
3, 52560, Note_off_c, 1, 43, 0
3, 52560, Note_on_c, 1, 31, 73
3, 52560, Note_on_c, 1, 43, 73
3, 52800, Note_off_c, 1, 31, 0
3, 52800, Note_off_c, 1, 43, 0
3, 52800, Note_on_c, 1, 31, 67
3, 52800, Note_on_c, 1, 43, 67
3, 53280, Note_off_c, 1, 31, 0
3, 53280, Note_off_c, 1, 43, 0
3, 53280, Note_on_c, 1, 31, 71
3, 53280, Note_on_c, 1, 43, 71
3, 53760, Note_off_c, 1, 31, 0
3, 53760, Note_off_c, 1, 43, 0
3, 53760, Note_on_c, 1, 31, 78
3, 53760, Note_on_c, 1, 43, 78
3, 54240, Note_off_c, 1, 31, 0
3, 54240, Note_off_c, 1, 43, 0
3, 54240, Note_on_c, 1, 31, 73
3, 54240, Note_on_c, 1, 43, 73
3, 54720, Note_off_c, 1, 31, 0
3, 54720, Note_off_c, 1, 43, 0
3, 54720, Note_on_c, 1, 33, 76
3, 54720, Note_on_c, 1, 45, 76
3, 55440, Note_off_c, 1, 33, 0
3, 55440, Note_off_c, 1, 45, 0
3, 55440, Note_on_c, 1, 33, 74
3, 55440, Note_on_c, 1, 45, 74
3, 55680, Note_off_c, 1, 33, 0
3, 55680, Note_off_c, 1, 45, 0
3, 55680, Note_on_c, 1, 33, 67
3, 55680, Note_on_c, 1, 45, 67
3, 56160, Note_off_c, 1, 33, 0
3, 56160, Note_off_c, 1, 45, 0
3, 56160, Note_on_c, 1, 33, 71
3, 56160, Note_on_c, 1, 45, 71
3, 56640, Note_off_c, 1, 33, 0
3, 56640, Note_off_c, 1, 45, 0
3, 56640, Note_on_c, 1, 33, 70
3, 56640, Note_on_c, 1, 45, 70
3, 57120, Note_off_c, 1, 33, 0
3, 57120, Note_off_c, 1, 45, 0
3, 57120, Note_on_c, 1, 33, 75
3, 57120, Note_on_c, 1, 45, 75
3, 57600, Note_off_c, 1, 33, 0
3, 57600, Note_off_c, 1, 45, 0
3, 57600, Note_on_c, 1, 35, 71
3, 57600, Note_on_c, 1, 47, 71
3, 58320, Note_off_c, 1, 35, 0
3, 58320, Note_off_c, 1, 47, 0
3, 58320, Note_on_c, 1, 35, 72
3, 58320, Note_on_c, 1, 47, 72
3, 58560, Note_off_c, 1, 35, 0
3, 58560, Note_off_c, 1, 47, 0
3, 58560, Note_on_c, 1, 35, 69
3, 58560, Note_on_c, 1, 47, 69
3, 59040, Note_off_c, 1, 35, 0
3, 59040, Note_off_c, 1, 47, 0
3, 59040, Note_on_c, 1, 35, 74
3, 59040, Note_on_c, 1, 47, 74
3, 59520, Note_off_c, 1, 35, 0
3, 59520, Note_off_c, 1, 47, 0
3, 59520, Note_on_c, 1, 35, 70
3, 59520, Note_on_c, 1, 47, 70
3, 60000, Note_off_c, 1, 35, 0
3, 60000, Note_off_c, 1, 47, 0
3, 60000, Note_on_c, 1, 35, 68
3, 60000, Note_on_c, 1, 47, 68
3, 60480, Note_off_c, 1, 35, 0
3, 60480, Note_off_c, 1, 47, 0
3, 60480, Note_on_c, 1, 35, 71
3, 60480, Note_on_c, 1, 47, 71
3, 61200, Note_off_c, 1, 35, 0
3, 61200, Note_off_c, 1, 47, 0
3, 61200, Note_on_c, 1, 35, 70
3, 61200, Note_on_c, 1, 47, 70
3, 61440, Note_off_c, 1, 35, 0
3, 61440, Note_off_c, 1, 47, 0
3, 61440, Note_on_c, 1, 35, 72
3, 61440, Note_on_c, 1, 47, 72
3, 61920, Note_off_c, 1, 35, 0
3, 61920, Note_off_c, 1, 47, 0
3, 61920, Note_on_c, 1, 35, 71
3, 61920, Note_on_c, 1, 47, 71
3, 62400, Note_off_c, 1, 35, 0
3, 62400, Note_off_c, 1, 47, 0
3, 62400, Note_on_c, 1, 35, 68
3, 62400, Note_on_c, 1, 47, 68
3, 62880, Note_off_c, 1, 35, 0
3, 62880, Note_off_c, 1, 47, 0
3, 62880, Note_on_c, 1, 35, 69
3, 62880, Note_on_c, 1, 47, 69
3, 63360, Note_off_c, 1, 35, 0
3, 63360, Note_off_c, 1, 47, 0
3, 63360, Note_on_c, 1, 31, 68
3, 63360, Note_on_c, 1, 43, 68
3, 64080, Note_off_c, 1, 31, 0
3, 64080, Note_off_c, 1, 43, 0
3, 64080, Note_on_c, 1, 31, 74
3, 64080, Note_on_c, 1, 43, 74
3, 64320, Note_off_c, 1, 31, 0
3, 64320, Note_off_c, 1, 43, 0
3, 64320, Note_on_c, 1, 31, 75
3, 64320, Note_on_c, 1, 43, 75
3, 64800, Note_off_c, 1, 31, 0
3, 64800, Note_off_c, 1, 43, 0
3, 64800, Note_on_c, 1, 31, 73
3, 64800, Note_on_c, 1, 43, 73
3, 65280, Note_off_c, 1, 31, 0
3, 65280, Note_off_c, 1, 43, 0
3, 65280, Note_on_c, 1, 31, 69
3, 65280, Note_on_c, 1, 43, 69
3, 65760, Note_off_c, 1, 31, 0
3, 65760, Note_off_c, 1, 43, 0
3, 65760, Note_on_c, 1, 31, 73
3, 65760, Note_on_c, 1, 43, 73
3, 66240, Note_off_c, 1, 31, 0
3, 66240, Note_off_c, 1, 43, 0
3, 66240, Note_on_c, 1, 33, 72
3, 66240, Note_on_c, 1, 45, 72
3, 66960, Note_off_c, 1, 33, 0
3, 66960, Note_off_c, 1, 45, 0
3, 66960, Note_on_c, 1, 33, 76
3, 66960, Note_on_c, 1, 45, 76
3, 67200, Note_off_c, 1, 33, 0
3, 67200, Note_off_c, 1, 45, 0
3, 67200, Note_on_c, 1, 33, 70
3, 67200, Note_on_c, 1, 45, 70
3, 67680, Note_off_c, 1, 33, 0
3, 67680, Note_off_c, 1, 45, 0
3, 67680, Note_on_c, 1, 33, 74
3, 67680, Note_on_c, 1, 45, 74
3, 68160, Note_off_c, 1, 33, 0
3, 68160, Note_off_c, 1, 45, 0
3, 68160, Note_on_c, 1, 33, 73
3, 68160, Note_on_c, 1, 45, 73
3, 68640, Note_off_c, 1, 33, 0
3, 68640, Note_off_c, 1, 45, 0
3, 68640, Note_on_c, 1, 33, 73
3, 68640, Note_on_c, 1, 45, 73
3, 69120, Note_off_c, 1, 33, 0
3, 69120, Note_off_c, 1, 45, 0
3, 69120, Note_on_c, 1, 47, 80
3, 69120, Note_on_c, 1, 50, 80
3, 69120, Note_on_c, 1, 54, 80
3, 69120, Note_on_c, 1, 59, 80
3, 69600, Note_off_c, 1, 47, 0
3, 69600, Note_off_c, 1, 50, 0
3, 69600, Note_off_c, 1, 54, 0
3, 69600, Note_off_c, 1, 59, 0
3, 69600, Note_on_c, 1, 35, 63
3, 69600, Note_on_c, 1, 47, 63
3, 70560, Note_off_c, 1, 35, 0
3, 70560, Note_off_c, 1, 47, 0
3, 70560, Note_on_c, 1, 47, 78
3, 70560, Note_on_c, 1, 50, 78
3, 70560, Note_on_c, 1, 54, 78
3, 70560, Note_on_c, 1, 59, 78
3, 71040, Note_off_c, 1, 47, 0
3, 71040, Note_off_c, 1, 50, 0
3, 71040, Note_off_c, 1, 54, 0
3, 71040, Note_off_c, 1, 59, 0
3, 71040, Note_on_c, 1, 35, 63
3, 71040, Note_on_c, 1, 47, 63
3, 72000, Note_off_c, 1, 35, 0
3, 72000, Note_off_c, 1, 47, 0
3, 72000, Note_on_c, 1, 45, 76
3, 72000, Note_on_c, 1, 49, 76
3, 72000, Note_on_c, 1, 52, 76
3, 72000, Note_on_c, 1, 57, 76
3, 72480, Note_off_c, 1, 45, 0
3, 72480, Note_off_c, 1, 49, 0
3, 72480, Note_off_c, 1, 52, 0
3, 72480, Note_off_c, 1, 57, 0
3, 72480, Note_on_c, 1, 33, 70
3, 72480, Note_on_c, 1, 45, 70
3, 73440, Note_off_c, 1, 33, 0
3, 73440, Note_off_c, 1, 45, 0
3, 73440, Note_on_c, 1, 47, 78
3, 73440, Note_on_c, 1, 50, 78
3, 73440, Note_on_c, 1, 54, 78
3, 73440, Note_on_c, 1, 59, 78
3, 73920, Note_off_c, 1, 47, 0
3, 73920, Note_off_c, 1, 50, 0
3, 73920, Note_off_c, 1, 54, 0
3, 73920, Note_off_c, 1, 59, 0
3, 73920, Note_on_c, 1, 35, 61
3, 73920, Note_on_c, 1, 47, 61
3, 74880, Note_off_c, 1, 35, 0
3, 74880, Note_off_c, 1, 47, 0
3, 74880, Note_on_c, 1, 43, 73
3, 74880, Note_on_c, 1, 47, 73
3, 74880, Note_on_c, 1, 50, 73
3, 74880, Note_on_c, 1, 55, 73
3, 75360, Note_off_c, 1, 43, 0
3, 75360, Note_off_c, 1, 47, 0
3, 75360, Note_off_c, 1, 50, 0
3, 75360, Note_off_c, 1, 55, 0
3, 75360, Note_on_c, 1, 31, 59
3, 75360, Note_on_c, 1, 43, 59
3, 76320, Note_off_c, 1, 31, 0
3, 76320, Note_off_c, 1, 43, 0
3, 76320, Note_on_c, 1, 40, 78
3, 76320, Note_on_c, 1, 43, 78
3, 76320, Note_on_c, 1, 47, 78
3, 76320, Note_on_c, 1, 52, 78
3, 76800, Note_off_c, 1, 40, 0
3, 76800, Note_off_c, 1, 43, 0
3, 76800, Note_off_c, 1, 47, 0
3, 76800, Note_off_c, 1, 52, 0
3, 76800, Note_on_c, 1, 28, 65
3, 76800, Note_on_c, 1, 40, 65
3, 77760, Note_off_c, 1, 28, 0
3, 77760, Note_off_c, 1, 40, 0
3, 77760, Note_on_c, 1, 45, 79
3, 77760, Note_on_c, 1, 49, 79
3, 77760, Note_on_c, 1, 52, 79
3, 77760, Note_on_c, 1, 57, 79
3, 78240, Note_off_c, 1, 45, 0
3, 78240, Note_off_c, 1, 49, 0
3, 78240, Note_off_c, 1, 52, 0
3, 78240, Note_off_c, 1, 57, 0
3, 78240, Note_on_c, 1, 33, 61
3, 78240, Note_on_c, 1, 45, 61
3, 79200, Note_off_c, 1, 33, 0
3, 79200, Note_off_c, 1, 45, 0
3, 79200, Note_on_c, 1, 47, 79
3, 79200, Note_on_c, 1, 50, 79
3, 79200, Note_on_c, 1, 54, 79
3, 79200, Note_on_c, 1, 59, 79
3, 79680, Note_off_c, 1, 47, 0
3, 79680, Note_off_c, 1, 50, 0
3, 79680, Note_off_c, 1, 54, 0
3, 79680, Note_off_c, 1, 59, 0
3, 79680, Note_on_c, 1, 35, 62
3, 79680, Note_on_c, 1, 47, 62
3, 80640, Note_off_c, 1, 35, 0
3, 80640, Note_off_c, 1, 47, 0
3, 80640, Note_on_c, 1, 47, 78
3, 80640, Note_on_c, 1, 50, 78
3, 80640, Note_on_c, 1, 54, 78
3, 80640, Note_on_c, 1, 59, 78
3, 81120, Note_off_c, 1, 47, 0
3, 81120, Note_off_c, 1, 50, 0
3, 81120, Note_off_c, 1, 54, 0
3, 81120, Note_off_c, 1, 59, 0
3, 81120, Note_on_c, 1, 35, 61
3, 81120, Note_on_c, 1, 47, 61
3, 82080, Note_off_c, 1, 35, 0
3, 82080, Note_off_c, 1, 47, 0
3, 82080, Note_on_c, 1, 43, 75
3, 82080, Note_on_c, 1, 47, 75
3, 82080, Note_on_c, 1, 50, 75
3, 82080, Note_on_c, 1, 55, 75
3, 82560, Note_off_c, 1, 43, 0
3, 82560, Note_off_c, 1, 47, 0
3, 82560, Note_off_c, 1, 50, 0
3, 82560, Note_off_c, 1, 55, 0
3, 82560, Note_on_c, 1, 31, 63
3, 82560, Note_on_c, 1, 43, 63
3, 83520, Note_off_c, 1, 31, 0
3, 83520, Note_off_c, 1, 43, 0
3, 83520, Note_on_c, 1, 45, 80
3, 83520, Note_on_c, 1, 49, 80
3, 83520, Note_on_c, 1, 52, 80
3, 83520, Note_on_c, 1, 57, 80
3, 84000, Note_off_c, 1, 45, 0
3, 84000, Note_off_c, 1, 49, 0
3, 84000, Note_off_c, 1, 52, 0
3, 84000, Note_off_c, 1, 57, 0
3, 84000, Note_on_c, 1, 33, 61
3, 84000, Note_on_c, 1, 45, 61
3, 84960, Note_off_c, 1, 33, 0
3, 84960, Note_off_c, 1, 45, 0
3, 84960, Note_on_c, 1, 47, 81
3, 84960, Note_on_c, 1, 50, 81
3, 84960, Note_on_c, 1, 54, 81
3, 84960, Note_on_c, 1, 59, 81
3, 85440, Note_off_c, 1, 47, 0
3, 85440, Note_off_c, 1, 50, 0
3, 85440, Note_off_c, 1, 54, 0
3, 85440, Note_off_c, 1, 59, 0
3, 85440, Note_on_c, 1, 35, 66
3, 85440, Note_on_c, 1, 47, 66
3, 86400, Note_off_c, 1, 35, 0
3, 86400, Note_off_c, 1, 47, 0
3, 86400, Note_on_c, 1, 43, 79
3, 86400, Note_on_c, 1, 47, 79
3, 86400, Note_on_c, 1, 50, 79
3, 86400, Note_on_c, 1, 55, 79
3, 86880, Note_off_c, 1, 43, 0
3, 86880, Note_off_c, 1, 47, 0
3, 86880, Note_off_c, 1, 50, 0
3, 86880, Note_off_c, 1, 55, 0
3, 86880, Note_on_c, 1, 31, 63
3, 86880, Note_on_c, 1, 43, 63
3, 87840, Note_off_c, 1, 31, 0
3, 87840, Note_off_c, 1, 43, 0
3, 87840, Note_on_c, 1, 40, 75
3, 87840, Note_on_c, 1, 43, 75
3, 87840, Note_on_c, 1, 47, 75
3, 87840, Note_on_c, 1, 52, 75
3, 88320, Note_off_c, 1, 40, 0
3, 88320, Note_off_c, 1, 43, 0
3, 88320, Note_off_c, 1, 47, 0
3, 88320, Note_off_c, 1, 52, 0
3, 88320, Note_on_c, 1, 28, 64
3, 88320, Note_on_c, 1, 40, 64
3, 89280, Note_off_c, 1, 28, 0
3, 89280, Note_off_c, 1, 40, 0
3, 89280, Note_on_c, 1, 45, 85
3, 89280, Note_on_c, 1, 49, 85
3, 89280, Note_on_c, 1, 52, 85
3, 89280, Note_on_c, 1, 57, 85
3, 89760, Note_off_c, 1, 45, 0
3, 89760, Note_off_c, 1, 49, 0
3, 89760, Note_off_c, 1, 52, 0
3, 89760, Note_off_c, 1, 57, 0
3, 89760, Note_on_c, 1, 33, 60
3, 89760, Note_on_c, 1, 45, 60
3, 90720, Note_off_c, 1, 33, 0
3, 90720, Note_off_c, 1, 45, 0
3, 90720, Note_on_c, 1, 47, 79
3, 90720, Note_on_c, 1, 50, 79
3, 90720, Note_on_c, 1, 54, 79
3, 90720, Note_on_c, 1, 59, 79
3, 92160, Note_off_c, 1, 47, 0
3, 92160, Note_off_c, 1, 50, 0
3, 92160, Note_off_c, 1, 54, 0
3, 92160, Note_off_c, 1, 59, 0
3, 94080, Note_on_c, 1, 59, 72
3, 94560, Note_off_c, 1, 59, 0
3, 94560, Note_on_c, 1, 61, 86
3, 95040, Note_off_c, 1, 61, 0
3, 95040, Note_on_c, 1, 62, 89
3, 96960, Note_off_c, 1, 62, 0
3, 96960, Note_on_c, 1, 62, 80
3, 97440, Note_off_c, 1, 62, 0
3, 97440, Note_on_c, 1, 64, 92
3, 97920, Note_off_c, 1, 64, 0
3, 97920, Note_on_c, 1, 66, 87
3, 99840, Note_off_c, 1, 66, 0
3, 99840, Note_on_c, 1, 66, 85
3, 100320, Note_off_c, 1, 66, 0
3, 100320, Note_on_c, 1, 69, 92
3, 100800, Note_off_c, 1, 69, 0
3, 100800, Note_on_c, 1, 64, 74
3, 102720, Note_off_c, 1, 64, 0
3, 102720, Note_on_c, 1, 62, 77
3, 103200, Note_off_c, 1, 62, 0
3, 103200, Note_on_c, 1, 61, 78
3, 103680, Note_off_c, 1, 61, 0
3, 103680, Note_on_c, 1, 59, 75
3, 105600, Note_off_c, 1, 59, 0
3, 105600, Note_on_c, 1, 59, 89
3, 106080, Note_off_c, 1, 59, 0
3, 106080, Note_on_c, 1, 61, 89
3, 106560, Note_off_c, 1, 61, 0
3, 106560, Note_on_c, 1, 62, 88
3, 108480, Note_off_c, 1, 62, 0
3, 108480, Note_on_c, 1, 66, 95
3, 108960, Note_off_c, 1, 66, 0
3, 108960, Note_on_c, 1, 69, 96
3, 109440, Note_off_c, 1, 69, 0
3, 109440, Note_on_c, 1, 71, 91
3, 111360, Note_off_c, 1, 71, 0
3, 111360, Note_on_c, 1, 69, 79
3, 111840, Note_off_c, 1, 69, 0
3, 111840, Note_on_c, 1, 73, 96
3, 112320, Note_off_c, 1, 73, 0
3, 112320, Note_on_c, 1, 71, 83
3, 115200, Note_off_c, 1, 71, 0
3, 115200, Note_on_c, 1, 49, 62
3, 115200, Note_on_c, 1, 61, 62
3, 115680, Note_off_c, 1, 49, 0
3, 115680, Note_off_c, 1, 61, 0
3, 115680, Note_on_c, 1, 50, 82
3, 115680, Note_on_c, 1, 62, 82
3, 116160, Note_off_c, 1, 50, 0
3, 116160, Note_off_c, 1, 62, 0
3, 116160, Note_on_c, 1, 52, 91
3, 116160, Note_on_c, 1, 64, 91
3, 116640, Note_off_c, 1, 52, 0
3, 116640, Note_off_c, 1, 64, 0
3, 116640, Note_on_c, 1, 49, 76
3, 116640, Note_on_c, 1, 61, 76
3, 117120, Note_off_c, 1, 49, 0
3, 117120, Note_off_c, 1, 61, 0
3, 117120, Note_on_c, 1, 47, 80
3, 117120, Note_on_c, 1, 59, 80
3, 118080, Note_off_c, 1, 47, 0
3, 118080, Note_off_c, 1, 59, 0
3, 118560, Note_on_c, 1, 52, 75
3, 118560, Note_on_c, 1, 64, 75
3, 119040, Note_off_c, 1, 52, 0
3, 119040, Note_off_c, 1, 64, 0
3, 119040, Note_on_c, 1, 49, 77
3, 119040, Note_on_c, 1, 61, 77
3, 119520, Note_off_c, 1, 49, 0
3, 119520, Note_off_c, 1, 61, 0
3, 119520, Note_on_c, 1, 49, 79
3, 119520, Note_on_c, 1, 61, 79
3, 120000, Note_off_c, 1, 49, 0
3, 120000, Note_off_c, 1, 61, 0
3, 120000, Note_on_c, 1, 50, 93
3, 120000, Note_on_c, 1, 62, 93
3, 120960, Note_off_c, 1, 50, 0
3, 120960, Note_off_c, 1, 62, 0
3, 120960, Note_on_c, 1, 49, 81
3, 120960, Note_on_c, 1, 61, 81
3, 121440, Note_off_c, 1, 49, 0
3, 121440, Note_off_c, 1, 61, 0
3, 121440, Note_on_c, 1, 50, 86
3, 121440, Note_on_c, 1, 62, 86
3, 122400, Note_off_c, 1, 50, 0
3, 122400, Note_off_c, 1, 62, 0
3, 122400, Note_on_c, 1, 49, 80
3, 122400, Note_on_c, 1, 61, 80
3, 122880, Note_off_c, 1, 49, 0
3, 122880, Note_off_c, 1, 61, 0
3, 122880, Note_on_c, 1, 50, 87
3, 122880, Note_on_c, 1, 62, 87
3, 123840, Note_off_c, 1, 50, 0
3, 123840, Note_off_c, 1, 62, 0
3, 124320, Note_on_c, 1, 52, 76
3, 124320, Note_on_c, 1, 64, 76
3, 124800, Note_off_c, 1, 52, 0
3, 124800, Note_off_c, 1, 64, 0
3, 124800, Note_on_c, 1, 49, 74
3, 124800, Note_on_c, 1, 61, 74
3, 125280, Note_off_c, 1, 49, 0
3, 125280, Note_off_c, 1, 61, 0
3, 125280, Note_on_c, 1, 49, 85
3, 125280, Note_on_c, 1, 61, 85
3, 125760, Note_off_c, 1, 49, 0
3, 125760, Note_off_c, 1, 61, 0
3, 125760, Note_on_c, 1, 50, 89
3, 125760, Note_on_c, 1, 62, 89
3, 126240, Note_off_c, 1, 50, 0
3, 126240, Note_off_c, 1, 62, 0
3, 126240, Note_on_c, 1, 52, 89
3, 126240, Note_on_c, 1, 64, 89
3, 126720, Note_off_c, 1, 52, 0
3, 126720, Note_off_c, 1, 64, 0
3, 126720, Note_on_c, 1, 49, 81
3, 126720, Note_on_c, 1, 61, 81
3, 127200, Note_off_c, 1, 49, 0
3, 127200, Note_off_c, 1, 61, 0
3, 127200, Note_on_c, 1, 50, 88
3, 127200, Note_on_c, 1, 62, 88
3, 127680, Note_off_c, 1, 50, 0
3, 127680, Note_off_c, 1, 62, 0
3, 127680, Note_on_c, 1, 52, 96
3, 127680, Note_on_c, 1, 64, 96
3, 128160, Note_off_c, 1, 52, 0
3, 128160, Note_off_c, 1, 64, 0
3, 128160, Note_on_c, 1, 49, 79
3, 128160, Note_on_c, 1, 61, 79
3, 128640, Note_off_c, 1, 49, 0
3, 128640, Note_off_c, 1, 61, 0
3, 128640, Note_on_c, 1, 50, 82
3, 128640, Note_on_c, 1, 62, 82
3, 129600, Note_off_c, 1, 50, 0
3, 129600, Note_off_c, 1, 62, 0
3, 130080, Note_on_c, 1, 52, 78
3, 130080, Note_on_c, 1, 64, 78
3, 130560, Note_off_c, 1, 52, 0
3, 130560, Note_off_c, 1, 64, 0
3, 130560, Note_on_c, 1, 49, 78
3, 130560, Note_on_c, 1, 61, 78
3, 131040, Note_off_c, 1, 49, 0
3, 131040, Note_off_c, 1, 61, 0
3, 131040, Note_on_c, 1, 49, 93
3, 131040, Note_on_c, 1, 61, 93
3, 131520, Note_off_c, 1, 49, 0
3, 131520, Note_off_c, 1, 61, 0
3, 131520, Note_on_c, 1, 50, 98
3, 131520, Note_on_c, 1, 62, 98
3, 132000, Note_off_c, 1, 50, 0
3, 132000, Note_off_c, 1, 62, 0
3, 132000, Note_on_c, 1, 52, 102
3, 132000, Note_on_c, 1, 64, 102
3, 132480, Note_off_c, 1, 52, 0
3, 132480, Note_off_c, 1, 64, 0
3, 132480, Note_on_c, 1, 30, 82
3, 132480, Note_on_c, 1, 42, 82
3, 133200, Note_off_c, 1, 30, 0
3, 133200, Note_off_c, 1, 42, 0
3, 133200, Note_on_c, 1, 30, 92
3, 133200, Note_on_c, 1, 42, 92
3, 133440, Note_off_c, 1, 30, 0
3, 133440, Note_off_c, 1, 42, 0
3, 133440, Note_on_c, 1, 30, 104
3, 133440, Note_on_c, 1, 42, 104
3, 133920, Note_off_c, 1, 30, 0
3, 133920, Note_off_c, 1, 42, 0
3, 133920, Note_on_c, 1, 30, 96
3, 133920, Note_on_c, 1, 42, 96
3, 134400, Note_off_c, 1, 30, 0
3, 134400, Note_off_c, 1, 42, 0
3, 134400, Note_on_c, 1, 30, 97
3, 134400, Note_on_c, 1, 42, 97
3, 134880, Note_off_c, 1, 30, 0
3, 134880, Note_off_c, 1, 42, 0
3, 134880, Note_on_c, 1, 30, 94
3, 134880, Note_on_c, 1, 42, 94
3, 135360, Note_off_c, 1, 30, 0
3, 135360, Note_off_c, 1, 42, 0
3, 135360, Note_on_c, 1, 31, 104
3, 135360, Note_on_c, 1, 43, 104
3, 136080, Note_off_c, 1, 31, 0
3, 136080, Note_off_c, 1, 43, 0
3, 136080, Note_on_c, 1, 31, 101
3, 136080, Note_on_c, 1, 43, 101
3, 136320, Note_off_c, 1, 31, 0
3, 136320, Note_off_c, 1, 43, 0
3, 136320, Note_on_c, 1, 31, 100
3, 136320, Note_on_c, 1, 43, 100
3, 136800, Note_off_c, 1, 31, 0
3, 136800, Note_off_c, 1, 43, 0
3, 136800, Note_on_c, 1, 31, 99
3, 136800, Note_on_c, 1, 43, 99
3, 137280, Note_off_c, 1, 31, 0
3, 137280, Note_off_c, 1, 43, 0
3, 137280, Note_on_c, 1, 31, 94
3, 137280, Note_on_c, 1, 43, 94
3, 137760, Note_off_c, 1, 31, 0
3, 137760, Note_off_c, 1, 43, 0
3, 137760, Note_on_c, 1, 31, 101
3, 137760, Note_on_c, 1, 43, 101
3, 138240, Note_off_c, 1, 31, 0
3, 138240, Note_off_c, 1, 43, 0
3, 138240, Note_on_c, 1, 47, 112
3, 138240, Note_on_c, 1, 59, 112
3, 139200, Note_off_c, 1, 47, 0
3, 139200, Note_off_c, 1, 59, 0
3, 139200, Note_on_c, 1, 47, 99
3, 139200, Note_on_c, 1, 59, 99
3, 139680, Note_off_c, 1, 47, 0
3, 139680, Note_off_c, 1, 59, 0
3, 139680, Note_on_c, 1, 47, 99
3, 139680, Note_on_c, 1, 59, 99
3, 140640, Note_off_c, 1, 47, 0
3, 140640, Note_off_c, 1, 59, 0
3, 140640, Note_on_c, 1, 47, 101
3, 140640, Note_on_c, 1, 59, 101
3, 141120, Note_off_c, 1, 47, 0
3, 141120, Note_off_c, 1, 59, 0
3, 141120, Note_on_c, 1, 43, 91
3, 141120, Note_on_c, 1, 55, 91
3, 142080, Note_off_c, 1, 43, 0
3, 142080, Note_off_c, 1, 55, 0
3, 142080, Note_on_c, 1, 43, 98
3, 142080, Note_on_c, 1, 55, 98
3, 142560, Note_off_c, 1, 43, 0
3, 142560, Note_off_c, 1, 55, 0
3, 142560, Note_on_c, 1, 47, 103
3, 142560, Note_on_c, 1, 59, 103
3, 144000, Note_off_c, 1, 47, 0
3, 144000, Note_off_c, 1, 59, 0
3, 144000, Note_on_c, 1, 47, 100
3, 144000, Note_on_c, 1, 59, 100
3, 144960, Note_off_c, 1, 47, 0
3, 144960, Note_off_c, 1, 59, 0
3, 144960, Note_on_c, 1, 47, 99
3, 144960, Note_on_c, 1, 59, 99
3, 145440, Note_off_c, 1, 47, 0
3, 145440, Note_off_c, 1, 59, 0
3, 145440, Note_on_c, 1, 47, 100
3, 145440, Note_on_c, 1, 59, 100
3, 146400, Note_off_c, 1, 47, 0
3, 146400, Note_off_c, 1, 59, 0
3, 146400, Note_on_c, 1, 47, 99
3, 146400, Note_on_c, 1, 59, 99
3, 146880, Note_off_c, 1, 47, 0
3, 146880, Note_off_c, 1, 59, 0
3, 146880, Note_on_c, 1, 43, 94
3, 146880, Note_on_c, 1, 55, 94
3, 147840, Note_off_c, 1, 43, 0
3, 147840, Note_off_c, 1, 55, 0
3, 147840, Note_on_c, 1, 43, 99
3, 147840, Note_on_c, 1, 55, 99
3, 148320, Note_off_c, 1, 43, 0
3, 148320, Note_off_c, 1, 55, 0
3, 148320, Note_on_c, 1, 47, 101
3, 148320, Note_on_c, 1, 59, 101
3, 149760, Note_off_c, 1, 47, 0
3, 149760, Note_off_c, 1, 59, 0
3, 149760, Note_on_c, 1, 47, 88
3, 150240, Note_off_c, 1, 47, 0
3, 150240, Note_on_c, 1, 54, 104
3, 150720, Note_off_c, 1, 54, 0
3, 150720, Note_on_c, 1, 59, 104
3, 151200, Note_off_c, 1, 59, 0
3, 151200, Note_on_c, 1, 47, 91
3, 151680, Note_off_c, 1, 47, 0
3, 151680, Note_on_c, 1, 54, 105
3, 152160, Note_off_c, 1, 54, 0
3, 152160, Note_on_c, 1, 59, 107
3, 152640, Note_off_c, 1, 59, 0
3, 152640, Note_on_c, 1, 47, 86
3, 153120, Note_off_c, 1, 47, 0
3, 153120, Note_on_c, 1, 54, 107
3, 153600, Note_off_c, 1, 54, 0
3, 153600, Note_on_c, 1, 59, 105
3, 154080, Note_off_c, 1, 59, 0
3, 154080, Note_on_c, 1, 47, 90
3, 154560, Note_off_c, 1, 47, 0
3, 154560, Note_on_c, 1, 54, 102
3, 155040, Note_off_c, 1, 54, 0
3, 155040, Note_on_c, 1, 59, 102
3, 155520, Note_off_c, 1, 59, 0
3, 155520, Note_on_c, 1, 45, 87
3, 156000, Note_off_c, 1, 45, 0
3, 156000, Note_on_c, 1, 52, 107
3, 156480, Note_off_c, 1, 52, 0
3, 156480, Note_on_c, 1, 57, 105
3, 156960, Note_off_c, 1, 57, 0
3, 156960, Note_on_c, 1, 45, 88
3, 157440, Note_off_c, 1, 45, 0
3, 157440, Note_on_c, 1, 52, 106
3, 157920, Note_off_c, 1, 52, 0
3, 157920, Note_on_c, 1, 57, 108
3, 158400, Note_off_c, 1, 57, 0
3, 158400, Note_on_c, 1, 45, 82
3, 158880, Note_off_c, 1, 45, 0
3, 158880, Note_on_c, 1, 52, 101
3, 159360, Note_off_c, 1, 52, 0
3, 159360, Note_on_c, 1, 57, 109
3, 159840, Note_off_c, 1, 57, 0
3, 159840, Note_on_c, 1, 45, 87
3, 160320, Note_off_c, 1, 45, 0
3, 160320, Note_on_c, 1, 52, 102
3, 160800, Note_off_c, 1, 52, 0
3, 160800, Note_on_c, 1, 57, 109
3, 161280, Note_off_c, 1, 57, 0
3, 161280, Note_on_c, 1, 47, 91
3, 161760, Note_off_c, 1, 47, 0
3, 161760, Note_on_c, 1, 54, 108
3, 162240, Note_off_c, 1, 54, 0
3, 162240, Note_on_c, 1, 59, 103
3, 162720, Note_off_c, 1, 59, 0
3, 162720, Note_on_c, 1, 47, 84
3, 163200, Note_off_c, 1, 47, 0
3, 163200, Note_on_c, 1, 54, 105
3, 163680, Note_off_c, 1, 54, 0
3, 163680, Note_on_c, 1, 59, 109
3, 164160, Note_off_c, 1, 59, 0
3, 164160, Note_on_c, 1, 47, 90
3, 164640, Note_off_c, 1, 47, 0
3, 164640, Note_on_c, 1, 54, 104
3, 165120, Note_off_c, 1, 54, 0
3, 165120, Note_on_c, 1, 59, 103
3, 165600, Note_off_c, 1, 59, 0
3, 165600, Note_on_c, 1, 47, 85
3, 166080, Note_off_c, 1, 47, 0
3, 166080, Note_on_c, 1, 54, 106
3, 166560, Note_off_c, 1, 54, 0
3, 166560, Note_on_c, 1, 59, 103
3, 167040, Note_off_c, 1, 59, 0
3, 167040, Note_on_c, 1, 45, 86
3, 167520, Note_off_c, 1, 45, 0
3, 167520, Note_on_c, 1, 52, 105
3, 168000, Note_off_c, 1, 52, 0
3, 168000, Note_on_c, 1, 57, 108
3, 168480, Note_off_c, 1, 57, 0
3, 168480, Note_on_c, 1, 45, 86
3, 168960, Note_off_c, 1, 45, 0
3, 168960, Note_on_c, 1, 52, 109
3, 169440, Note_off_c, 1, 52, 0
3, 169440, Note_on_c, 1, 57, 109
3, 169920, Note_off_c, 1, 57, 0
3, 169920, Note_on_c, 1, 45, 84
3, 170400, Note_off_c, 1, 45, 0
3, 170400, Note_on_c, 1, 52, 105
3, 170880, Note_off_c, 1, 52, 0
3, 170880, Note_on_c, 1, 57, 107
3, 171360, Note_off_c, 1, 57, 0
3, 171360, Note_on_c, 1, 45, 86
3, 171840, Note_off_c, 1, 45, 0
3, 171840, Note_on_c, 1, 52, 104
3, 172320, Note_off_c, 1, 52, 0
3, 172320, Note_on_c, 1, 57, 104
3, 172800, Note_off_c, 1, 57, 0
3, 172800, Note_on_c, 1, 47, 105
3, 172800, Note_on_c, 1, 59, 105
3, 173520, Note_off_c, 1, 47, 0
3, 173520, Note_off_c, 1, 59, 0
3, 173520, Note_on_c, 1, 47, 94
3, 173520, Note_on_c, 1, 59, 94
3, 173760, Note_off_c, 1, 47, 0
3, 173760, Note_off_c, 1, 59, 0
3, 173760, Note_on_c, 1, 47, 95
3, 173760, Note_on_c, 1, 59, 95
3, 174240, Note_off_c, 1, 47, 0
3, 174240, Note_off_c, 1, 59, 0
3, 174240, Note_on_c, 1, 47, 97
3, 174240, Note_on_c, 1, 59, 97
3, 174960, Note_off_c, 1, 47, 0
3, 174960, Note_off_c, 1, 59, 0
3, 174960, Note_on_c, 1, 47, 96
3, 174960, Note_on_c, 1, 59, 96
3, 175200, Note_off_c, 1, 47, 0
3, 175200, Note_off_c, 1, 59, 0
3, 175200, Note_on_c, 1, 47, 98
3, 175200, Note_on_c, 1, 59, 98
3, 175680, Note_off_c, 1, 47, 0
3, 175680, Note_off_c, 1, 59, 0
3, 175680, Note_on_c, 1, 47, 98
3, 175680, Note_on_c, 1, 59, 98
3, 176400, Note_off_c, 1, 47, 0
3, 176400, Note_off_c, 1, 59, 0
3, 176400, Note_on_c, 1, 47, 96
3, 176400, Note_on_c, 1, 59, 96
3, 176640, Note_off_c, 1, 47, 0
3, 176640, Note_off_c, 1, 59, 0
3, 176640, Note_on_c, 1, 47, 92
3, 176640, Note_on_c, 1, 59, 92
3, 177120, Note_off_c, 1, 47, 0
3, 177120, Note_off_c, 1, 59, 0
3, 177120, Note_on_c, 1, 47, 97
3, 177120, Note_on_c, 1, 59, 97
3, 177600, Note_off_c, 1, 47, 0
3, 177600, Note_off_c, 1, 59, 0
3, 177600, Note_on_c, 1, 47, 98
3, 177600, Note_on_c, 1, 59, 98
3, 178080, Note_off_c, 1, 47, 0
3, 178080, Note_off_c, 1, 59, 0
3, 178080, Note_on_c, 1, 47, 102
3, 178080, Note_on_c, 1, 59, 102
3, 178560, Note_off_c, 1, 47, 0
3, 178560, Note_off_c, 1, 59, 0
3, 178560, Note_on_c, 1, 45, 95
3, 178560, Note_on_c, 1, 57, 95
3, 179280, Note_off_c, 1, 45, 0
3, 179280, Note_off_c, 1, 57, 0
3, 179280, Note_on_c, 1, 45, 99
3, 179280, Note_on_c, 1, 57, 99
3, 179520, Note_off_c, 1, 45, 0
3, 179520, Note_off_c, 1, 57, 0
3, 179520, Note_on_c, 1, 45, 99
3, 179520, Note_on_c, 1, 57, 99
3, 180000, Note_off_c, 1, 45, 0
3, 180000, Note_off_c, 1, 57, 0
3, 180000, Note_on_c, 1, 45, 96
3, 180000, Note_on_c, 1, 57, 96
3, 180480, Note_off_c, 1, 45, 0
3, 180480, Note_off_c, 1, 57, 0
3, 180480, Note_on_c, 1, 45, 99
3, 180480, Note_on_c, 1, 57, 99
3, 180960, Note_off_c, 1, 45, 0
3, 180960, Note_off_c, 1, 57, 0
3, 180960, Note_on_c, 1, 45, 95
3, 180960, Note_on_c, 1, 57, 95
3, 181440, Note_off_c, 1, 45, 0
3, 181440, Note_off_c, 1, 57, 0
3, 181440, Note_on_c, 1, 45, 98
3, 181440, Note_on_c, 1, 57, 98
3, 182160, Note_off_c, 1, 45, 0
3, 182160, Note_off_c, 1, 57, 0
3, 182160, Note_on_c, 1, 45, 98
3, 182160, Note_on_c, 1, 57, 98
3, 182400, Note_off_c, 1, 45, 0
3, 182400, Note_off_c, 1, 57, 0
3, 182400, Note_on_c, 1, 45, 99
3, 182400, Note_on_c, 1, 57, 99
3, 182880, Note_off_c, 1, 45, 0
3, 182880, Note_off_c, 1, 57, 0
3, 182880, Note_on_c, 1, 45, 94
3, 182880, Note_on_c, 1, 57, 94
3, 183360, Note_off_c, 1, 45, 0
3, 183360, Note_off_c, 1, 57, 0
3, 183360, Note_on_c, 1, 45, 100
3, 183360, Note_on_c, 1, 57, 100
3, 183840, Note_off_c, 1, 45, 0
3, 183840, Note_off_c, 1, 57, 0
3, 183840, Note_on_c, 1, 45, 99
3, 183840, Note_on_c, 1, 57, 99
3, 184320, Note_off_c, 1, 45, 0
3, 184320, Note_off_c, 1, 57, 0
3, 184320, Note_on_c, 1, 47, 99
3, 184320, Note_on_c, 1, 59, 99
3, 185040, Note_off_c, 1, 47, 0
3, 185040, Note_off_c, 1, 59, 0
3, 185040, Note_on_c, 1, 47, 99
3, 185040, Note_on_c, 1, 59, 99
3, 185280, Note_off_c, 1, 47, 0
3, 185280, Note_off_c, 1, 59, 0
3, 185280, Note_on_c, 1, 47, 96
3, 185280, Note_on_c, 1, 59, 96
3, 185760, Note_off_c, 1, 47, 0
3, 185760, Note_off_c, 1, 59, 0
3, 185760, Note_on_c, 1, 47, 98
3, 185760, Note_on_c, 1, 59, 98
3, 186480, Note_off_c, 1, 47, 0
3, 186480, Note_off_c, 1, 59, 0
3, 186480, Note_on_c, 1, 47, 98
3, 186480, Note_on_c, 1, 59, 98
3, 186720, Note_off_c, 1, 47, 0
3, 186720, Note_off_c, 1, 59, 0
3, 186720, Note_on_c, 1, 47, 100
3, 186720, Note_on_c, 1, 59, 100
3, 187200, Note_off_c, 1, 47, 0
3, 187200, Note_off_c, 1, 59, 0
3, 187200, Note_on_c, 1, 47, 99
3, 187200, Note_on_c, 1, 59, 99
3, 187920, Note_off_c, 1, 47, 0
3, 187920, Note_off_c, 1, 59, 0
3, 187920, Note_on_c, 1, 47, 92
3, 187920, Note_on_c, 1, 59, 92
3, 188160, Note_off_c, 1, 47, 0
3, 188160, Note_off_c, 1, 59, 0
3, 188160, Note_on_c, 1, 47, 92
3, 188160, Note_on_c, 1, 59, 92
3, 188640, Note_off_c, 1, 47, 0
3, 188640, Note_off_c, 1, 59, 0
3, 188640, Note_on_c, 1, 47, 101
3, 188640, Note_on_c, 1, 59, 101
3, 189120, Note_off_c, 1, 47, 0
3, 189120, Note_off_c, 1, 59, 0
3, 189120, Note_on_c, 1, 47, 101
3, 189120, Note_on_c, 1, 59, 101
3, 189600, Note_off_c, 1, 47, 0
3, 189600, Note_off_c, 1, 59, 0
3, 189600, Note_on_c, 1, 47, 95
3, 189600, Note_on_c, 1, 59, 95
3, 190080, Note_off_c, 1, 47, 0
3, 190080, Note_off_c, 1, 59, 0
3, 190080, Note_on_c, 1, 42, 92
3, 190080, Note_on_c, 1, 54, 92
3, 190800, Note_off_c, 1, 42, 0
3, 190800, Note_off_c, 1, 54, 0
3, 190800, Note_on_c, 1, 42, 101
3, 190800, Note_on_c, 1, 54, 101
3, 191040, Note_off_c, 1, 42, 0
3, 191040, Note_off_c, 1, 54, 0
3, 191040, Note_on_c, 1, 42, 100
3, 191040, Note_on_c, 1, 54, 100
3, 191520, Note_off_c, 1, 42, 0
3, 191520, Note_off_c, 1, 54, 0
3, 191520, Note_on_c, 1, 42, 94
3, 191520, Note_on_c, 1, 54, 94
3, 192000, Note_off_c, 1, 42, 0
3, 192000, Note_off_c, 1, 54, 0
3, 192000, Note_on_c, 1, 42, 99
3, 192000, Note_on_c, 1, 54, 99
3, 192480, Note_off_c, 1, 42, 0
3, 192480, Note_off_c, 1, 54, 0
3, 192480, Note_on_c, 1, 42, 101
3, 192480, Note_on_c, 1, 54, 101
3, 192960, Note_off_c, 1, 42, 0
3, 192960, Note_off_c, 1, 54, 0
3, 192960, Note_on_c, 1, 42, 95
3, 192960, Note_on_c, 1, 54, 95
3, 193440, Note_off_c, 1, 42, 0
3, 193440, Note_off_c, 1, 54, 0
3, 193440, Note_on_c, 1, 42, 98
3, 193440, Note_on_c, 1, 54, 98
3, 193920, Note_off_c, 1, 42, 0
3, 193920, Note_off_c, 1, 54, 0
3, 193920, Note_on_c, 1, 42, 97
3, 193920, Note_on_c, 1, 54, 97
3, 194400, Note_off_c, 1, 42, 0
3, 194400, Note_off_c, 1, 54, 0
3, 194400, Note_on_c, 1, 42, 101
3, 194400, Note_on_c, 1, 54, 101
3, 194880, Note_off_c, 1, 42, 0
3, 194880, Note_off_c, 1, 54, 0
3, 194880, Note_on_c, 1, 42, 97
3, 194880, Note_on_c, 1, 54, 97
3, 195360, Note_off_c, 1, 42, 0
3, 195360, Note_off_c, 1, 54, 0
3, 195360, Note_on_c, 1, 42, 97
3, 195360, Note_on_c, 1, 54, 97
3, 195840, Note_off_c, 1, 42, 0
3, 195840, Note_off_c, 1, 54, 0
3, 195840, Note_on_c, 1, 35, 88
3, 195840, Note_on_c, 1, 47, 88
3, 197280, Note_off_c, 1, 35, 0
3, 197280, Note_off_c, 1, 47, 0
3, 197280, Note_on_c, 1, 31, 94
3, 197280, Note_on_c, 1, 43, 94
3, 198720, Note_off_c, 1, 31, 0
3, 198720, Note_off_c, 1, 43, 0
3, 198720, Note_on_c, 1, 33, 105
3, 198720, Note_on_c, 1, 45, 105
3, 200160, Note_off_c, 1, 33, 0
3, 200160, Note_off_c, 1, 45, 0
3, 200160, Note_on_c, 1, 28, 91
3, 200160, Note_on_c, 1, 40, 91
3, 201600, Note_off_c, 1, 28, 0
3, 201600, Note_off_c, 1, 40, 0
3, 201600, Note_on_c, 1, 35, 104
3, 201600, Note_on_c, 1, 47, 104
3, 203040, Note_off_c, 1, 35, 0
3, 203040, Note_off_c, 1, 47, 0
3, 203040, Note_on_c, 1, 31, 93
3, 203040, Note_on_c, 1, 43, 93
3, 204480, Note_off_c, 1, 31, 0
3, 204480, Note_off_c, 1, 43, 0
3, 204480, Note_on_c, 1, 33, 97
3, 204480, Note_on_c, 1, 45, 97
3, 205920, Note_off_c, 1, 33, 0
3, 205920, Note_off_c, 1, 45, 0
3, 205920, Note_on_c, 1, 28, 92
3, 205920, Note_on_c, 1, 40, 92
3, 207360, Note_off_c, 1, 28, 0
3, 207360, Note_off_c, 1, 40, 0
3, 207360, Note_on_c, 1, 35, 106
3, 207360, Note_on_c, 1, 47, 106
3, 208800, Note_off_c, 1, 35, 0
3, 208800, Note_off_c, 1, 47, 0
3, 208800, Note_on_c, 1, 31, 93
3, 208800, Note_on_c, 1, 43, 93
3, 210240, Note_off_c, 1, 31, 0
3, 210240, Note_off_c, 1, 43, 0
3, 210240, Note_on_c, 1, 33, 101
3, 210240, Note_on_c, 1, 45, 101
3, 211200, Note_off_c, 1, 33, 0
3, 211200, Note_off_c, 1, 45, 0
3, 211200, Note_on_c, 1, 33, 100
3, 211200, Note_on_c, 1, 45, 100
3, 211680, Note_off_c, 1, 33, 0
3, 211680, Note_off_c, 1, 45, 0
3, 211680, Note_on_c, 1, 28, 92
3, 211680, Note_on_c, 1, 40, 92
3, 212400, Note_off_c, 1, 28, 0
3, 212400, Note_off_c, 1, 40, 0
3, 213120, Note_on_c, 1, 35, 105
3, 213120, Note_on_c, 1, 47, 105
3, 214560, Note_off_c, 1, 35, 0
3, 214560, Note_off_c, 1, 47, 0
3, 214560, Note_on_c, 1, 31, 95
3, 214560, Note_on_c, 1, 43, 95
3, 216000, Note_off_c, 1, 31, 0
3, 216000, Note_off_c, 1, 43, 0
3, 216000, Note_on_c, 1, 33, 101
3, 216000, Note_on_c, 1, 45, 101
3, 216480, Note_off_c, 1, 33, 0
3, 216480, Note_off_c, 1, 45, 0
3, 216480, Note_on_c, 1, 33, 97
3, 216480, Note_on_c, 1, 45, 97
3, 216960, Note_off_c, 1, 33, 0
3, 216960, Note_off_c, 1, 45, 0
3, 216960, Note_on_c, 1, 33, 102
3, 216960, Note_on_c, 1, 45, 102
3, 217440, Note_off_c, 1, 33, 0
3, 217440, Note_off_c, 1, 45, 0
3, 217440, Note_on_c, 1, 28, 90
3, 217440, Note_on_c, 1, 40, 90
3, 217680, Note_off_c, 1, 28, 0
3, 217680, Note_off_c, 1, 40, 0
3, 217920, Note_on_c, 1, 28, 115
3, 217920, Note_on_c, 1, 40, 115
3, 218160, Note_off_c, 1, 28, 0
3, 218160, Note_off_c, 1, 40, 0
3, 218400, Note_on_c, 1, 28, 116
3, 218400, Note_on_c, 1, 40, 116
3, 218640, Note_off_c, 1, 28, 0
3, 218640, Note_off_c, 1, 40, 0
3, 218880, Note_on_c, 1, 35, 105
3, 219120, Note_off_c, 1, 35, 0
3, 219120, Note_on_c, 1, 38, 119
3, 219360, Note_off_c, 1, 38, 0
3, 219360, Note_on_c, 1, 42, 121
3, 219600, Note_off_c, 1, 42, 0
3, 219600, Note_on_c, 1, 47, 119
3, 219840, Note_off_c, 1, 47, 0
3, 219840, Note_on_c, 1, 50, 120
3, 220080, Note_off_c, 1, 50, 0
3, 220080, Note_on_c, 1, 54, 119
3, 220320, Note_off_c, 1, 54, 0
3, 220320, Note_on_c, 1, 59, 116
3, 220560, Note_off_c, 1, 59, 0
3, 220560, Note_on_c, 1, 54, 111
3, 220800, Note_off_c, 1, 54, 0
3, 220800, Note_on_c, 1, 50, 107
3, 221040, Note_off_c, 1, 50, 0
3, 221040, Note_on_c, 1, 47, 104
3, 221280, Note_off_c, 1, 47, 0
3, 221280, Note_on_c, 1, 42, 105
3, 221520, Note_off_c, 1, 42, 0
3, 221520, Note_on_c, 1, 38, 103
3, 221760, Note_off_c, 1, 38, 0
3, 221760, Note_on_c, 1, 38, 119
3, 222000, Note_off_c, 1, 38, 0
3, 222000, Note_on_c, 1, 42, 119
3, 222240, Note_off_c, 1, 42, 0
3, 222240, Note_on_c, 1, 45, 118
3, 222480, Note_off_c, 1, 45, 0
3, 222480, Note_on_c, 1, 50, 121
3, 222720, Note_off_c, 1, 50, 0
3, 222720, Note_on_c, 1, 54, 122
3, 222960, Note_off_c, 1, 54, 0
3, 222960, Note_on_c, 1, 57, 121
3, 223200, Note_off_c, 1, 57, 0
3, 223200, Note_on_c, 1, 62, 126
3, 223440, Note_off_c, 1, 62, 0
3, 223440, Note_on_c, 1, 57, 110
3, 223680, Note_off_c, 1, 57, 0
3, 223680, Note_on_c, 1, 54, 105
3, 223920, Note_off_c, 1, 54, 0
3, 223920, Note_on_c, 1, 50, 110
3, 224160, Note_off_c, 1, 50, 0
3, 224160, Note_on_c, 1, 45, 101
3, 224400, Note_off_c, 1, 45, 0
3, 224400, Note_on_c, 1, 42, 105
3, 224640, Note_off_c, 1, 42, 0
3, 224640, Note_on_c, 1, 33, 98
3, 224880, Note_off_c, 1, 33, 0
3, 224880, Note_on_c, 1, 37, 118
3, 225120, Note_off_c, 1, 37, 0
3, 225120, Note_on_c, 1, 40, 120
3, 225360, Note_off_c, 1, 40, 0
3, 225360, Note_on_c, 1, 45, 115
3, 225600, Note_off_c, 1, 45, 0
3, 225600, Note_on_c, 1, 49, 120
3, 225840, Note_off_c, 1, 49, 0
3, 225840, Note_on_c, 1, 52, 120
3, 226080, Note_off_c, 1, 52, 0
3, 226080, Note_on_c, 1, 57, 123
3, 226320, Note_off_c, 1, 57, 0
3, 226320, Note_on_c, 1, 52, 106
3, 226560, Note_off_c, 1, 52, 0
3, 226560, Note_on_c, 1, 49, 104
3, 226800, Note_off_c, 1, 49, 0
3, 226800, Note_on_c, 1, 45, 103
3, 227040, Note_off_c, 1, 45, 0
3, 227040, Note_on_c, 1, 40, 104
3, 227280, Note_off_c, 1, 40, 0
3, 227280, Note_on_c, 1, 37, 106
3, 227520, Note_off_c, 1, 37, 0
3, 227520, Note_on_c, 1, 40, 114
3, 227760, Note_off_c, 1, 40, 0
3, 227760, Note_on_c, 1, 44, 120
3, 228000, Note_off_c, 1, 44, 0
3, 228000, Note_on_c, 1, 47, 119
3, 228240, Note_off_c, 1, 47, 0
3, 228240, Note_on_c, 1, 52, 124
3, 228480, Note_off_c, 1, 52, 0
3, 228480, Note_on_c, 1, 56, 125
3, 228720, Note_off_c, 1, 56, 0
3, 228720, Note_on_c, 1, 59, 120
3, 228960, Note_off_c, 1, 59, 0
3, 228960, Note_on_c, 1, 64, 127
3, 229200, Note_off_c, 1, 64, 0
3, 229200, Note_on_c, 1, 59, 106
3, 229440, Note_off_c, 1, 59, 0
3, 229440, Note_on_c, 1, 56, 106
3, 229680, Note_off_c, 1, 56, 0
3, 229680, Note_on_c, 1, 52, 104
3, 229920, Note_off_c, 1, 52, 0
3, 229920, Note_on_c, 1, 47, 106
3, 230160, Note_off_c, 1, 47, 0
3, 230160, Note_on_c, 1, 44, 111
3, 230400, Note_off_c, 1, 44, 0
3, 230400, Note_on_c, 1, 35, 100
3, 230640, Note_off_c, 1, 35, 0
3, 230640, Note_on_c, 1, 38, 111
3, 230880, Note_off_c, 1, 38, 0
3, 230880, Note_on_c, 1, 42, 120
3, 231120, Note_off_c, 1, 42, 0
3, 231120, Note_on_c, 1, 47, 120
3, 231360, Note_off_c, 1, 47, 0
3, 231360, Note_on_c, 1, 50, 116
3, 231600, Note_off_c, 1, 50, 0
3, 231600, Note_on_c, 1, 54, 116
3, 231840, Note_off_c, 1, 54, 0
3, 231840, Note_on_c, 1, 59, 120
3, 232080, Note_off_c, 1, 59, 0
3, 232080, Note_on_c, 1, 54, 104
3, 232320, Note_off_c, 1, 54, 0
3, 232320, Note_on_c, 1, 50, 107
3, 232560, Note_off_c, 1, 50, 0
3, 232560, Note_on_c, 1, 47, 108
3, 232800, Note_off_c, 1, 47, 0
3, 232800, Note_on_c, 1, 42, 100
3, 233040, Note_off_c, 1, 42, 0
3, 233040, Note_on_c, 1, 38, 109
3, 233280, Note_off_c, 1, 38, 0
3, 233280, Note_on_c, 1, 38, 113
3, 233520, Note_off_c, 1, 38, 0
3, 233520, Note_on_c, 1, 42, 115
3, 233760, Note_off_c, 1, 42, 0
3, 233760, Note_on_c, 1, 45, 119
3, 234000, Note_off_c, 1, 45, 0
3, 234000, Note_on_c, 1, 50, 121
3, 234240, Note_off_c, 1, 50, 0
3, 234240, Note_on_c, 1, 54, 120
3, 234480, Note_off_c, 1, 54, 0
3, 234480, Note_on_c, 1, 57, 119
3, 234720, Note_off_c, 1, 57, 0
3, 234720, Note_on_c, 1, 62, 127
3, 234960, Note_off_c, 1, 62, 0
3, 234960, Note_on_c, 1, 57, 108
3, 235200, Note_off_c, 1, 57, 0
3, 235200, Note_on_c, 1, 54, 110
3, 235440, Note_off_c, 1, 54, 0
3, 235440, Note_on_c, 1, 50, 107
3, 235680, Note_off_c, 1, 50, 0
3, 235680, Note_on_c, 1, 45, 106
3, 235920, Note_off_c, 1, 45, 0
3, 235920, Note_on_c, 1, 42, 109
3, 236160, Note_off_c, 1, 42, 0
3, 236160, Note_on_c, 1, 31, 95
3, 236400, Note_off_c, 1, 31, 0
3, 236400, Note_on_c, 1, 35, 118
3, 236640, Note_off_c, 1, 35, 0
3, 236640, Note_on_c, 1, 38, 116
3, 236880, Note_off_c, 1, 38, 0
3, 236880, Note_on_c, 1, 43, 119
3, 237120, Note_off_c, 1, 43, 0
3, 237120, Note_on_c, 1, 47, 118
3, 237360, Note_off_c, 1, 47, 0
3, 237360, Note_on_c, 1, 50, 119
3, 237600, Note_off_c, 1, 50, 0
3, 237600, Note_on_c, 1, 55, 119
3, 237840, Note_off_c, 1, 55, 0
3, 237840, Note_on_c, 1, 50, 105
3, 238080, Note_off_c, 1, 50, 0
3, 238080, Note_on_c, 1, 47, 108
3, 238320, Note_off_c, 1, 47, 0
3, 238320, Note_on_c, 1, 43, 114
3, 238560, Note_off_c, 1, 43, 0
3, 238560, Note_on_c, 1, 38, 107
3, 238800, Note_off_c, 1, 38, 0
3, 238800, Note_on_c, 1, 35, 106
3, 239040, Note_off_c, 1, 35, 0
3, 239040, Note_on_c, 1, 40, 120
3, 239280, Note_off_c, 1, 40, 0
3, 239280, Note_on_c, 1, 44, 117
3, 239520, Note_off_c, 1, 44, 0
3, 239520, Note_on_c, 1, 47, 122
3, 239760, Note_off_c, 1, 47, 0
3, 239760, Note_on_c, 1, 52, 118
3, 240000, Note_off_c, 1, 52, 0
3, 240000, Note_on_c, 1, 56, 117
3, 240240, Note_off_c, 1, 56, 0
3, 240240, Note_on_c, 1, 59, 122
3, 240480, Note_off_c, 1, 59, 0
3, 240480, Note_on_c, 1, 64, 127
3, 240720, Note_off_c, 1, 64, 0
3, 240720, Note_on_c, 1, 59, 109
3, 240960, Note_off_c, 1, 59, 0
3, 240960, Note_on_c, 1, 56, 115
3, 241200, Note_off_c, 1, 56, 0
3, 241200, Note_on_c, 1, 52, 106
3, 241440, Note_off_c, 1, 52, 0
3, 241440, Note_on_c, 1, 47, 104
3, 241680, Note_off_c, 1, 47, 0
3, 241680, Note_on_c, 1, 44, 110
3, 241920, Note_off_c, 1, 44, 0
3, 241920, Note_on_c, 1, 47, 125
3, 241920, Note_on_c, 1, 50, 125
3, 241920, Note_on_c, 1, 54, 125
3, 241920, Note_on_c, 1, 59, 125
3, 242640, Note_off_c, 1, 47, 0
3, 242640, Note_off_c, 1, 50, 0
3, 242640, Note_off_c, 1, 54, 0
3, 242640, Note_off_c, 1, 59, 0
3, 242640, Note_on_c, 1, 47, 115
3, 242640, Note_on_c, 1, 50, 115
3, 242640, Note_on_c, 1, 54, 115
3, 242640, Note_on_c, 1, 59, 115
3, 243360, Note_off_c, 1, 47, 0
3, 243360, Note_off_c, 1, 50, 0
3, 243360, Note_off_c, 1, 54, 0
3, 243360, Note_off_c, 1, 59, 0
3, 243360, Note_on_c, 1, 47, 115
3, 243360, Note_on_c, 1, 50, 115
3, 243360, Note_on_c, 1, 54, 115
3, 243360, Note_on_c, 1, 59, 115
3, 244320, Note_off_c, 1, 47, 0
3, 244320, Note_off_c, 1, 50, 0
3, 244320, Note_off_c, 1, 54, 0
3, 244320, Note_off_c, 1, 59, 0
3, 244320, Note_on_c, 1, 47, 112
3, 244320, Note_on_c, 1, 50, 112
3, 244320, Note_on_c, 1, 54, 112
3, 244320, Note_on_c, 1, 59, 112
3, 244800, Note_off_c, 1, 47, 0
3, 244800, Note_off_c, 1, 50, 0
3, 244800, Note_off_c, 1, 54, 0
3, 244800, Note_off_c, 1, 59, 0
3, 244800, Note_on_c, 1, 43, 106
3, 244800, Note_on_c, 1, 47, 106
3, 244800, Note_on_c, 1, 50, 106
3, 244800, Note_on_c, 1, 55, 106
3, 245520, Note_off_c, 1, 43, 0
3, 245520, Note_off_c, 1, 47, 0
3, 245520, Note_off_c, 1, 50, 0
3, 245520, Note_off_c, 1, 55, 0
3, 245520, Note_on_c, 1, 43, 109
3, 245520, Note_on_c, 1, 47, 109
3, 245520, Note_on_c, 1, 50, 109
3, 245520, Note_on_c, 1, 55, 109
3, 246240, Note_off_c, 1, 43, 0
3, 246240, Note_off_c, 1, 47, 0
3, 246240, Note_off_c, 1, 50, 0
3, 246240, Note_off_c, 1, 55, 0
3, 246240, Note_on_c, 1, 43, 115
3, 246240, Note_on_c, 1, 47, 115
3, 246240, Note_on_c, 1, 50, 115
3, 246240, Note_on_c, 1, 55, 115
3, 247200, Note_off_c, 1, 43, 0
3, 247200, Note_off_c, 1, 47, 0
3, 247200, Note_off_c, 1, 50, 0
3, 247200, Note_off_c, 1, 55, 0
3, 247200, Note_on_c, 1, 43, 113
3, 247200, Note_on_c, 1, 47, 113
3, 247200, Note_on_c, 1, 50, 113
3, 247200, Note_on_c, 1, 55, 113
3, 247680, Note_off_c, 1, 43, 0
3, 247680, Note_off_c, 1, 47, 0
3, 247680, Note_off_c, 1, 50, 0
3, 247680, Note_off_c, 1, 55, 0
3, 247680, Note_on_c, 1, 40, 103
3, 247680, Note_on_c, 1, 43, 103
3, 247680, Note_on_c, 1, 47, 103
3, 248400, Note_off_c, 1, 40, 0
3, 248400, Note_off_c, 1, 43, 0
3, 248400, Note_off_c, 1, 47, 0
3, 248400, Note_on_c, 1, 40, 114
3, 248400, Note_on_c, 1, 43, 114
3, 248400, Note_on_c, 1, 47, 114
3, 248640, Note_off_c, 1, 40, 0
3, 248640, Note_off_c, 1, 43, 0
3, 248640, Note_off_c, 1, 47, 0
3, 248640, Note_on_c, 1, 40, 108
3, 248640, Note_on_c, 1, 43, 108
3, 248640, Note_on_c, 1, 47, 108
3, 249120, Note_off_c, 1, 40, 0
3, 249120, Note_off_c, 1, 43, 0
3, 249120, Note_off_c, 1, 47, 0
3, 249120, Note_on_c, 1, 40, 110
3, 249120, Note_on_c, 1, 43, 110
3, 249120, Note_on_c, 1, 47, 110
3, 249600, Note_off_c, 1, 40, 0
3, 249600, Note_off_c, 1, 43, 0
3, 249600, Note_off_c, 1, 47, 0
3, 249600, Note_on_c, 1, 40, 113
3, 249600, Note_on_c, 1, 43, 113
3, 249600, Note_on_c, 1, 47, 113
3, 250080, Note_off_c, 1, 40, 0
3, 250080, Note_off_c, 1, 43, 0
3, 250080, Note_off_c, 1, 47, 0
3, 250080, Note_on_c, 1, 40, 114
3, 250080, Note_on_c, 1, 43, 114
3, 250080, Note_on_c, 1, 47, 114
3, 250560, Note_off_c, 1, 40, 0
3, 250560, Note_off_c, 1, 43, 0
3, 250560, Note_off_c, 1, 47, 0
3, 250560, Note_on_c, 1, 33, 114
3, 250560, Note_on_c, 1, 37, 114
3, 250560, Note_on_c, 1, 40, 114
3, 250560, Note_on_c, 1, 45, 114
3, 251280, Note_off_c, 1, 33, 0
3, 251280, Note_off_c, 1, 37, 0
3, 251280, Note_off_c, 1, 40, 0
3, 251280, Note_off_c, 1, 45, 0
3, 251280, Note_on_c, 1, 33, 113
3, 251280, Note_on_c, 1, 37, 113
3, 251280, Note_on_c, 1, 40, 113
3, 251280, Note_on_c, 1, 45, 113
3, 251520, Note_off_c, 1, 33, 0
3, 251520, Note_off_c, 1, 37, 0
3, 251520, Note_off_c, 1, 40, 0
3, 251520, Note_off_c, 1, 45, 0
3, 251520, Note_on_c, 1, 33, 113
3, 251520, Note_on_c, 1, 37, 113
3, 251520, Note_on_c, 1, 40, 113
3, 251520, Note_on_c, 1, 45, 113
3, 252000, Note_off_c, 1, 33, 0
3, 252000, Note_off_c, 1, 37, 0
3, 252000, Note_off_c, 1, 40, 0
3, 252000, Note_off_c, 1, 45, 0
3, 252000, Note_on_c, 1, 33, 112
3, 252000, Note_on_c, 1, 37, 112
3, 252000, Note_on_c, 1, 40, 112
3, 252000, Note_on_c, 1, 45, 112
3, 252480, Note_off_c, 1, 33, 0
3, 252480, Note_off_c, 1, 37, 0
3, 252480, Note_off_c, 1, 40, 0
3, 252480, Note_off_c, 1, 45, 0
3, 252480, Note_on_c, 1, 33, 111
3, 252480, Note_on_c, 1, 37, 111
3, 252480, Note_on_c, 1, 40, 111
3, 252480, Note_on_c, 1, 45, 111
3, 252960, Note_off_c, 1, 33, 0
3, 252960, Note_off_c, 1, 37, 0
3, 252960, Note_off_c, 1, 40, 0
3, 252960, Note_off_c, 1, 45, 0
3, 252960, Note_on_c, 1, 33, 114
3, 252960, Note_on_c, 1, 37, 114
3, 252960, Note_on_c, 1, 40, 114
3, 252960, Note_on_c, 1, 45, 114
3, 253440, Note_off_c, 1, 33, 0
3, 253440, Note_off_c, 1, 37, 0
3, 253440, Note_off_c, 1, 40, 0
3, 253440, Note_off_c, 1, 45, 0
3, 253440, Note_on_c, 1, 47, 127
3, 253440, Note_on_c, 1, 50, 127
3, 253440, Note_on_c, 1, 54, 127
3, 253440, Note_on_c, 1, 59, 127
3, 253920, Note_off_c, 1, 47, 0
3, 253920, Note_off_c, 1, 50, 0
3, 253920, Note_off_c, 1, 54, 0
3, 253920, Note_off_c, 1, 59, 0
3, 253920, Note_on_c, 1, 35, 103
3, 253920, Note_on_c, 1, 47, 103
3, 254880, Note_off_c, 1, 35, 0
3, 254880, Note_off_c, 1, 47, 0
3, 254880, Note_on_c, 1, 47, 127
3, 254880, Note_on_c, 1, 50, 127
3, 254880, Note_on_c, 1, 54, 127
3, 254880, Note_on_c, 1, 59, 127
3, 255360, Note_off_c, 1, 47, 0
3, 255360, Note_off_c, 1, 50, 0
3, 255360, Note_off_c, 1, 54, 0
3, 255360, Note_off_c, 1, 59, 0
3, 255360, Note_on_c, 1, 35, 99
3, 255360, Note_on_c, 1, 47, 99
3, 256320, Note_off_c, 1, 35, 0
3, 256320, Note_off_c, 1, 47, 0
3, 256320, Note_on_c, 1, 45, 122
3, 256320, Note_on_c, 1, 49, 122
3, 256320, Note_on_c, 1, 52, 122
3, 256320, Note_on_c, 1, 57, 122
3, 256800, Note_off_c, 1, 45, 0
3, 256800, Note_off_c, 1, 49, 0
3, 256800, Note_off_c, 1, 52, 0
3, 256800, Note_off_c, 1, 57, 0
3, 256800, Note_on_c, 1, 33, 99
3, 256800, Note_on_c, 1, 45, 99
3, 257760, Note_off_c, 1, 33, 0
3, 257760, Note_off_c, 1, 45, 0
3, 257760, Note_on_c, 1, 47, 125
3, 257760, Note_on_c, 1, 50, 125
3, 257760, Note_on_c, 1, 54, 125
3, 257760, Note_on_c, 1, 59, 125
3, 258240, Note_off_c, 1, 47, 0
3, 258240, Note_off_c, 1, 50, 0
3, 258240, Note_off_c, 1, 54, 0
3, 258240, Note_off_c, 1, 59, 0
3, 258240, Note_on_c, 1, 35, 97
3, 258240, Note_on_c, 1, 47, 97
3, 259200, Note_off_c, 1, 35, 0
3, 259200, Note_off_c, 1, 47, 0
3, 259200, Note_on_c, 1, 43, 120
3, 259200, Note_on_c, 1, 47, 120
3, 259200, Note_on_c, 1, 50, 120
3, 259200, Note_on_c, 1, 55, 120
3, 259680, Note_off_c, 1, 43, 0
3, 259680, Note_off_c, 1, 47, 0
3, 259680, Note_off_c, 1, 50, 0
3, 259680, Note_off_c, 1, 55, 0
3, 259680, Note_on_c, 1, 31, 93
3, 259680, Note_on_c, 1, 43, 93
3, 260640, Note_off_c, 1, 31, 0
3, 260640, Note_off_c, 1, 43, 0
3, 260640, Note_on_c, 1, 40, 121
3, 260640, Note_on_c, 1, 43, 121
3, 260640, Note_on_c, 1, 47, 121
3, 260640, Note_on_c, 1, 52, 121
3, 261120, Note_off_c, 1, 40, 0
3, 261120, Note_off_c, 1, 43, 0
3, 261120, Note_off_c, 1, 47, 0
3, 261120, Note_off_c, 1, 52, 0
3, 261120, Note_on_c, 1, 28, 101
3, 261120, Note_on_c, 1, 40, 101
3, 262080, Note_off_c, 1, 28, 0
3, 262080, Note_off_c, 1, 40, 0
3, 262080, Note_on_c, 1, 45, 123
3, 262080, Note_on_c, 1, 49, 123
3, 262080, Note_on_c, 1, 52, 123
3, 262080, Note_on_c, 1, 57, 123
3, 262560, Note_off_c, 1, 45, 0
3, 262560, Note_off_c, 1, 49, 0
3, 262560, Note_off_c, 1, 52, 0
3, 262560, Note_off_c, 1, 57, 0
3, 262560, Note_on_c, 1, 33, 100
3, 262560, Note_on_c, 1, 45, 100
3, 263520, Note_off_c, 1, 33, 0
3, 263520, Note_off_c, 1, 45, 0
3, 263520, Note_on_c, 1, 47, 127
3, 263520, Note_on_c, 1, 50, 127
3, 263520, Note_on_c, 1, 54, 127
3, 263520, Note_on_c, 1, 59, 127
3, 264000, Note_off_c, 1, 47, 0
3, 264000, Note_off_c, 1, 50, 0
3, 264000, Note_off_c, 1, 54, 0
3, 264000, Note_off_c, 1, 59, 0
3, 264000, Note_on_c, 1, 35, 102
3, 264000, Note_on_c, 1, 47, 102
3, 264960, Note_off_c, 1, 35, 0
3, 264960, Note_off_c, 1, 47, 0
3, 264960, Note_on_c, 1, 47, 126
3, 264960, Note_on_c, 1, 50, 126
3, 264960, Note_on_c, 1, 54, 126
3, 264960, Note_on_c, 1, 59, 126
3, 265440, Note_off_c, 1, 47, 0
3, 265440, Note_off_c, 1, 50, 0
3, 265440, Note_off_c, 1, 54, 0
3, 265440, Note_off_c, 1, 59, 0
3, 265440, Note_on_c, 1, 35, 100
3, 265440, Note_on_c, 1, 47, 100
3, 266400, Note_off_c, 1, 35, 0
3, 266400, Note_off_c, 1, 47, 0
3, 266400, Note_on_c, 1, 43, 121
3, 266400, Note_on_c, 1, 47, 121
3, 266400, Note_on_c, 1, 50, 121
3, 266400, Note_on_c, 1, 55, 121
3, 266880, Note_off_c, 1, 43, 0
3, 266880, Note_off_c, 1, 47, 0
3, 266880, Note_off_c, 1, 50, 0
3, 266880, Note_off_c, 1, 55, 0
3, 266880, Note_on_c, 1, 31, 99
3, 266880, Note_on_c, 1, 43, 99
3, 267840, Note_off_c, 1, 31, 0
3, 267840, Note_off_c, 1, 43, 0
3, 267840, Note_on_c, 1, 45, 124
3, 267840, Note_on_c, 1, 49, 124
3, 267840, Note_on_c, 1, 52, 124
3, 267840, Note_on_c, 1, 57, 124
3, 268320, Note_off_c, 1, 45, 0
3, 268320, Note_off_c, 1, 49, 0
3, 268320, Note_off_c, 1, 52, 0
3, 268320, Note_off_c, 1, 57, 0
3, 268320, Note_on_c, 1, 33, 99
3, 268320, Note_on_c, 1, 45, 99
3, 269280, Note_off_c, 1, 33, 0
3, 269280, Note_off_c, 1, 45, 0
3, 269280, Note_on_c, 1, 47, 124
3, 269280, Note_on_c, 1, 50, 124
3, 269280, Note_on_c, 1, 54, 124
3, 269280, Note_on_c, 1, 59, 124
3, 269760, Note_off_c, 1, 47, 0
3, 269760, Note_off_c, 1, 50, 0
3, 269760, Note_off_c, 1, 54, 0
3, 269760, Note_off_c, 1, 59, 0
3, 269760, Note_on_c, 1, 35, 96
3, 269760, Note_on_c, 1, 47, 96
3, 270720, Note_off_c, 1, 35, 0
3, 270720, Note_off_c, 1, 47, 0
3, 270720, Note_on_c, 1, 43, 118
3, 270720, Note_on_c, 1, 47, 118
3, 270720, Note_on_c, 1, 50, 118
3, 270720, Note_on_c, 1, 55, 118
3, 271200, Note_off_c, 1, 43, 0
3, 271200, Note_off_c, 1, 47, 0
3, 271200, Note_off_c, 1, 50, 0
3, 271200, Note_off_c, 1, 55, 0
3, 271200, Note_on_c, 1, 31, 100
3, 271200, Note_on_c, 1, 43, 100
3, 272160, Note_off_c, 1, 31, 0
3, 272160, Note_off_c, 1, 43, 0
3, 272160, Note_on_c, 1, 40, 120
3, 272160, Note_on_c, 1, 43, 120
3, 272160, Note_on_c, 1, 47, 120
3, 272160, Note_on_c, 1, 52, 120
3, 272640, Note_off_c, 1, 40, 0
3, 272640, Note_off_c, 1, 43, 0
3, 272640, Note_off_c, 1, 47, 0
3, 272640, Note_off_c, 1, 52, 0
3, 272640, Note_on_c, 1, 28, 98
3, 272640, Note_on_c, 1, 40, 98
3, 273600, Note_off_c, 1, 28, 0
3, 273600, Note_off_c, 1, 40, 0
3, 273600, Note_on_c, 1, 45, 125
3, 273600, Note_on_c, 1, 49, 125
3, 273600, Note_on_c, 1, 52, 125
3, 273600, Note_on_c, 1, 57, 125
3, 274080, Note_off_c, 1, 45, 0
3, 274080, Note_off_c, 1, 49, 0
3, 274080, Note_off_c, 1, 52, 0
3, 274080, Note_off_c, 1, 57, 0
3, 274080, Note_on_c, 1, 33, 103
3, 274080, Note_on_c, 1, 45, 103
3, 275040, Note_off_c, 1, 33, 0
3, 275040, Note_off_c, 1, 45, 0
3, 275040, Note_on_c, 1, 47, 126
3, 275040, Note_on_c, 1, 50, 126
3, 275040, Note_on_c, 1, 54, 126
3, 275040, Note_on_c, 1, 59, 126
3, 275520, Note_off_c, 1, 47, 0
3, 275520, Note_off_c, 1, 50, 0
3, 275520, Note_off_c, 1, 54, 0
3, 275520, Note_off_c, 1, 59, 0
3, 275520, Note_on_c, 1, 35, 103
3, 275520, Note_on_c, 1, 47, 103
3, 276480, Note_off_c, 1, 35, 0
3, 276480, Note_off_c, 1, 47, 0
3, 276480, Note_on_c, 1, 47, 127
3, 276480, Note_on_c, 1, 50, 127
3, 276480, Note_on_c, 1, 54, 127
3, 276480, Note_on_c, 1, 59, 127
3, 277440, Note_off_c, 1, 47, 0
3, 277440, Note_off_c, 1, 50, 0
3, 277440, Note_off_c, 1, 54, 0
3, 277440, Note_off_c, 1, 59, 0
3, 277440, Note_on_c, 1, 47, 112
3, 277440, Note_on_c, 1, 50, 112
3, 277440, Note_on_c, 1, 54, 112
3, 277440, Note_on_c, 1, 59, 112
3, 277920, Note_off_c, 1, 47, 0
3, 277920, Note_off_c, 1, 50, 0
3, 277920, Note_off_c, 1, 54, 0
3, 277920, Note_off_c, 1, 59, 0
3, 277920, Note_on_c, 1, 47, 112
3, 277920, Note_on_c, 1, 50, 112
3, 277920, Note_on_c, 1, 54, 112
3, 277920, Note_on_c, 1, 59, 112
3, 278880, Note_off_c, 1, 47, 0
3, 278880, Note_off_c, 1, 50, 0
3, 278880, Note_off_c, 1, 54, 0
3, 278880, Note_off_c, 1, 59, 0
3, 278880, Note_on_c, 1, 47, 110
3, 278880, Note_on_c, 1, 50, 110
3, 278880, Note_on_c, 1, 54, 110
3, 278880, Note_on_c, 1, 59, 110
3, 279360, Note_off_c, 1, 47, 0
3, 279360, Note_off_c, 1, 50, 0
3, 279360, Note_off_c, 1, 54, 0
3, 279360, Note_off_c, 1, 59, 0
3, 279360, Note_on_c, 1, 43, 109
3, 279360, Note_on_c, 1, 47, 109
3, 279360, Note_on_c, 1, 50, 109
3, 279360, Note_on_c, 1, 55, 109
3, 280320, Note_off_c, 1, 43, 0
3, 280320, Note_off_c, 1, 47, 0
3, 280320, Note_off_c, 1, 50, 0
3, 280320, Note_off_c, 1, 55, 0
3, 280320, Note_on_c, 1, 43, 110
3, 280320, Note_on_c, 1, 47, 110
3, 280320, Note_on_c, 1, 50, 110
3, 280320, Note_on_c, 1, 55, 110
3, 280800, Note_off_c, 1, 43, 0
3, 280800, Note_off_c, 1, 47, 0
3, 280800, Note_off_c, 1, 50, 0
3, 280800, Note_off_c, 1, 55, 0
3, 280800, Note_on_c, 1, 47, 119
3, 280800, Note_on_c, 1, 50, 119
3, 280800, Note_on_c, 1, 54, 119
3, 280800, Note_on_c, 1, 59, 119
3, 282240, Note_off_c, 1, 47, 0
3, 282240, Note_off_c, 1, 50, 0
3, 282240, Note_off_c, 1, 54, 0
3, 282240, Note_off_c, 1, 59, 0
3, 282240, Note_on_c, 1, 47, 112
3, 282240, Note_on_c, 1, 50, 112
3, 282240, Note_on_c, 1, 54, 112
3, 282240, Note_on_c, 1, 59, 112
3, 283200, Note_off_c, 1, 47, 0
3, 283200, Note_off_c, 1, 50, 0
3, 283200, Note_off_c, 1, 54, 0
3, 283200, Note_off_c, 1, 59, 0
3, 283200, Note_on_c, 1, 47, 117
3, 283200, Note_on_c, 1, 50, 117
3, 283200, Note_on_c, 1, 54, 117
3, 283200, Note_on_c, 1, 59, 117
3, 283680, Note_off_c, 1, 47, 0
3, 283680, Note_off_c, 1, 50, 0
3, 283680, Note_off_c, 1, 54, 0
3, 283680, Note_off_c, 1, 59, 0
3, 283680, Note_on_c, 1, 47, 116
3, 283680, Note_on_c, 1, 50, 116
3, 283680, Note_on_c, 1, 54, 116
3, 283680, Note_on_c, 1, 59, 116
3, 284640, Note_off_c, 1, 47, 0
3, 284640, Note_off_c, 1, 50, 0
3, 284640, Note_off_c, 1, 54, 0
3, 284640, Note_off_c, 1, 59, 0
3, 284640, Note_on_c, 1, 47, 114
3, 284640, Note_on_c, 1, 50, 114
3, 284640, Note_on_c, 1, 54, 114
3, 284640, Note_on_c, 1, 59, 114
3, 285120, Note_off_c, 1, 47, 0
3, 285120, Note_off_c, 1, 50, 0
3, 285120, Note_off_c, 1, 54, 0
3, 285120, Note_off_c, 1, 59, 0
3, 285120, Note_on_c, 1, 43, 108
3, 285120, Note_on_c, 1, 47, 108
3, 285120, Note_on_c, 1, 50, 108
3, 285120, Note_on_c, 1, 55, 108
3, 286080, Note_off_c, 1, 43, 0
3, 286080, Note_off_c, 1, 47, 0
3, 286080, Note_off_c, 1, 50, 0
3, 286080, Note_off_c, 1, 55, 0
3, 286080, Note_on_c, 1, 43, 114
3, 286080, Note_on_c, 1, 47, 114
3, 286080, Note_on_c, 1, 50, 114
3, 286080, Note_on_c, 1, 55, 114
3, 286560, Note_off_c, 1, 43, 0
3, 286560, Note_off_c, 1, 47, 0
3, 286560, Note_off_c, 1, 50, 0
3, 286560, Note_off_c, 1, 55, 0
3, 286560, Note_on_c, 1, 47, 120
3, 286560, Note_on_c, 1, 50, 120
3, 286560, Note_on_c, 1, 54, 120
3, 286560, Note_on_c, 1, 59, 120
3, 288000, Note_off_c, 1, 47, 0
3, 288000, Note_off_c, 1, 50, 0
3, 288000, Note_off_c, 1, 54, 0
3, 288000, Note_off_c, 1, 59, 0
3, 288000, Note_on_c, 1, 47, 96
3, 288000, Note_on_c, 1, 50, 96
3, 288000, Note_on_c, 1, 54, 96
3, 288000, Note_on_c, 1, 59, 96
3, 288960, Note_off_c, 1, 47, 0
3, 288960, Note_off_c, 1, 50, 0
3, 288960, Note_off_c, 1, 54, 0
3, 288960, Note_off_c, 1, 59, 0
3, 288960, Note_on_c, 1, 47, 99
3, 288960, Note_on_c, 1, 50, 99
3, 288960, Note_on_c, 1, 54, 99
3, 288960, Note_on_c, 1, 59, 99
3, 289440, Note_off_c, 1, 47, 0
3, 289440, Note_off_c, 1, 50, 0
3, 289440, Note_off_c, 1, 54, 0
3, 289440, Note_off_c, 1, 59, 0
3, 289440, Note_on_c, 1, 43, 92
3, 289440, Note_on_c, 1, 47, 92
3, 289440, Note_on_c, 1, 50, 92
3, 289440, Note_on_c, 1, 55, 92
3, 290400, Note_off_c, 1, 43, 0
3, 290400, Note_off_c, 1, 47, 0
3, 290400, Note_off_c, 1, 50, 0
3, 290400, Note_off_c, 1, 55, 0
3, 290400, Note_on_c, 1, 43, 93
3, 290400, Note_on_c, 1, 47, 93
3, 290400, Note_on_c, 1, 50, 93
3, 290400, Note_on_c, 1, 55, 93
3, 290880, Note_off_c, 1, 43, 0
3, 290880, Note_off_c, 1, 47, 0
3, 290880, Note_off_c, 1, 50, 0
3, 290880, Note_off_c, 1, 55, 0
3, 290880, Note_on_c, 1, 47, 101
3, 290880, Note_on_c, 1, 50, 101
3, 290880, Note_on_c, 1, 54, 101
3, 290880, Note_on_c, 1, 59, 101
3, 296640, Note_off_c, 1, 47, 0
3, 296640, Note_off_c, 1, 50, 0
3, 296640, Note_off_c, 1, 54, 0
3, 296640, Note_off_c, 1, 59, 0
3, 305280, Note_on_c, 1, 35, 81
3, 305280, Note_on_c, 1, 47, 81
3, 309600, Note_off_c, 1, 35, 0
3, 309600, Note_off_c, 1, 47, 0
3, 309600, Note_on_c, 1, 33, 94
3, 309600, Note_on_c, 1, 45, 94
3, 311040, Note_off_c, 1, 33, 0
3, 311040, Note_off_c, 1, 45, 0
3, 311040, Note_on_c, 1, 31, 92
3, 311040, Note_on_c, 1, 43, 92
3, 321120, Note_off_c, 1, 31, 0
3, 321120, Note_off_c, 1, 43, 0
3, 321120, Note_on_c, 1, 40, 108
3, 321120, Note_on_c, 1, 52, 108
3, 326880, Note_off_c, 1, 40, 0
3, 326880, Note_off_c, 1, 52, 0
3, 326880, Note_on_c, 1, 40, 65
3, 326880, Note_on_c, 1, 52, 65
3, 329760, Note_off_c, 1, 40, 0
3, 329760, Note_off_c, 1, 52, 0
3, 329760, Note_on_c, 1, 40, 64
3, 329760, Note_on_c, 1, 52, 64
3, 334080, Note_off_c, 1, 40, 0
3, 334080, Note_off_c, 1, 52, 0
3, 334080, Note_on_c, 1, 28, 53
3, 334080, Note_on_c, 1, 40, 53
3, 336480, Note_off_c, 1, 28, 0
3, 336480, Note_off_c, 1, 40, 0
3, 336480, Note_on_c, 1, 28, 57
3, 336480, Note_on_c, 1, 40, 57
3, 336960, Note_off_c, 1, 28, 0
3, 336960, Note_off_c, 1, 40, 0
3, 336960, Note_on_c, 1, 28, 61
3, 336960, Note_on_c, 1, 40, 61
3, 339840, Note_off_c, 1, 28, 0
3, 339840, Note_off_c, 1, 40, 0
3, 339841, End_track
0, 0, End_of_file
