0, 0, Header, 1, 3, 480
1, 0, Start_track
1, 0, Tempo, 1714285
1, 0, Title_t, "Piano Template"
1, 0, Time_signature, 4, 2, 26, 40
1, 0, End_track
2, 0, Start_track
2, 0, Title_t, "Left Hand"
2, 0, Control_c, 1, 100, 0
2, 0, Control_c, 1, 101, 0
2, 0, Control_c, 1, 6, 12
2, 0, Pitch_bend_c, 1, 8192
2, 0, Control_c, 1, 101, 0
2, 0, Control_c, 1, 100, 1
2, 0, Control_c, 1, 6, 64
2, 0, Control_c, 1, 38, 0
2, 0, Control_c, 1, 101, 127
2, 0, Control_c, 1, 100, 127
2, 0, Control_c, 1, 101, 0
2, 0, Control_c, 1, 100, 2
2, 0, Control_c, 1, 6, 64
2, 0, Control_c, 1, 101, 127
2, 0, Control_c, 1, 100, 127
2, 0, Program_c, 1, 0
2, 0, Control_c, 1, 0, 0
2, 0, Control_c, 1, 7, 127
2, 0, Control_c, 1, 10, 64
2, 0, Control_c, 1, 93, 0
2, 0, Control_c, 1, 91, 0
2, 0, Control_c, 1, 92, 0
2, 0, Control_c, 1, 95, 0
2, 240, Note_on_c, 1, 40, 111
2, 360, Note_on_c, 1, 47, 111
2, 600, Note_off_c, 1, 40, 80
2, 600, Note_off_c, 1, 47, 80
2, 600, Note_on_c, 1, 47, 111
2, 720, Note_off_c, 1, 47, 80
2, 840, Note_on_c, 1, 47, 111
2, 1080, Note_off_c, 1, 47, 80
2, 1080, Note_on_c, 1, 47, 111
2, 1200, Note_off_c, 1, 47, 80
2, 1320, Note_on_c, 1, 47, 111
2, 1560, Note_off_c, 1, 47, 80
2, 1560, Note_on_c, 1, 47, 111
2, 1680, Note_off_c, 1, 47, 80
2, 1680, Note_on_c, 1, 40, 111
2, 1800, Note_on_c, 1, 47, 111
2, 2040, Note_off_c, 1, 40, 80
2, 2040, Note_off_c, 1, 47, 80
2, 2040, Note_on_c, 1, 47, 111
2, 2160, Note_off_c, 1, 47, 80
2, 2160, Note_on_c, 1, 40, 111
2, 2280, Note_on_c, 1, 47, 111
2, 2520, Note_off_c, 1, 40, 80
2, 2520, Note_off_c, 1, 47, 80
2, 2520, Note_on_c, 1, 47, 111
2, 2640, Note_off_c, 1, 47, 80
2, 2760, Note_on_c, 1, 47, 111
2, 3000, Note_off_c, 1, 47, 80
2, 3000, Note_on_c, 1, 47, 111
2, 3120, Note_off_c, 1, 47, 80
2, 3120, Note_on_c, 1, 40, 111
2, 3240, Note_on_c, 1, 47, 111
2, 3480, Note_off_c, 1, 40, 80
2, 3480, Note_off_c, 1, 47, 80
2, 3480, Note_on_c, 1, 47, 111
2, 3600, Note_off_c, 1, 47, 80
2, 3720, Note_on_c, 1, 47, 111
2, 3960, Note_off_c, 1, 47, 80
2, 3960, Note_on_c, 1, 47, 111
2, 4080, Note_off_c, 1, 47, 80
2, 4200, Note_on_c, 1, 47, 111
2, 4440, Note_off_c, 1, 47, 80
2, 4440, Note_on_c, 1, 47, 111
2, 4560, Note_off_c, 1, 47, 80
2, 4560, Note_on_c, 1, 40, 111
2, 4680, Note_on_c, 1, 47, 111
2, 4920, Note_off_c, 1, 40, 80
2, 4920, Note_off_c, 1, 47, 80
2, 4920, Note_on_c, 1, 47, 111
2, 5040, Note_off_c, 1, 47, 80
2, 5040, Note_on_c, 1, 40, 111
2, 5160, Note_on_c, 1, 52, 111
2, 5400, Note_off_c, 1, 40, 80
2, 5400, Note_off_c, 1, 52, 80
2, 5400, Note_on_c, 1, 52, 111
2, 5520, Note_off_c, 1, 52, 80
2, 5520, Note_on_c, 1, 45, 111
2, 5640, Note_on_c, 1, 52, 111
2, 5880, Note_off_c, 1, 45, 80
2, 5880, Note_off_c, 1, 52, 80
2, 5880, Note_on_c, 1, 52, 111
2, 6000, Note_off_c, 1, 52, 80
2, 6000, Note_on_c, 1, 45, 111
2, 6120, Note_on_c, 1, 54, 111
2, 6360, Note_off_c, 1, 45, 80
2, 6360, Note_off_c, 1, 54, 80
2, 6360, Note_on_c, 1, 54, 111
2, 6480, Note_off_c, 1, 54, 80
2, 6480, Note_on_c, 1, 47, 111
2, 6600, Note_on_c, 1, 54, 111
2, 6840, Note_off_c, 1, 47, 80
2, 6840, Note_off_c, 1, 54, 80
2, 6840, Note_on_c, 1, 54, 111
2, 6960, Note_off_c, 1, 54, 80
2, 6960, Note_on_c, 1, 49, 111
2, 7080, Note_on_c, 1, 54, 111
2, 7320, Note_off_c, 1, 49, 80
2, 7320, Note_off_c, 1, 54, 80
2, 7320, Note_on_c, 1, 54, 111
2, 7440, Note_off_c, 1, 54, 80
2, 7440, Note_on_c, 1, 47, 111
2, 7560, Note_on_c, 1, 54, 111
2, 7800, Note_off_c, 1, 47, 80
2, 7800, Note_off_c, 1, 54, 80
2, 7800, Note_on_c, 1, 54, 111
2, 7920, Note_off_c, 1, 54, 80
2, 7920, Note_on_c, 1, 40, 111
2, 8040, Note_on_c, 1, 47, 111
2, 8280, Note_off_c, 1, 40, 80
2, 8280, Note_off_c, 1, 47, 80
2, 8280, Note_on_c, 1, 47, 111
2, 8400, Note_off_c, 1, 47, 80
2, 8520, Note_on_c, 1, 47, 111
2, 8760, Note_off_c, 1, 47, 80
2, 8760, Note_on_c, 1, 47, 111
2, 8880, Note_off_c, 1, 47, 80
2, 9000, Note_on_c, 1, 47, 111
2, 9240, Note_off_c, 1, 47, 80
2, 9240, Note_on_c, 1, 47, 111
2, 9360, Note_off_c, 1, 47, 80
2, 9360, Note_on_c, 1, 40, 111
2, 9480, Note_on_c, 1, 47, 111
2, 9720, Note_off_c, 1, 40, 80
2, 9720, Note_off_c, 1, 47, 80
2, 9720, Note_on_c, 1, 47, 111
2, 9840, Note_off_c, 1, 47, 80
2, 9840, Note_on_c, 1, 40, 111
2, 9960, Note_on_c, 1, 47, 111
2, 10200, Note_off_c, 1, 40, 80
2, 10200, Note_off_c, 1, 47, 80
2, 10200, Note_on_c, 1, 47, 111
2, 10320, Note_off_c, 1, 47, 80
2, 10440, Note_on_c, 1, 47, 111
2, 10680, Note_off_c, 1, 47, 80
2, 10680, Note_on_c, 1, 47, 111
2, 10800, Note_off_c, 1, 47, 80
2, 10800, Note_on_c, 1, 40, 111
2, 10920, Note_on_c, 1, 47, 111
2, 11160, Note_off_c, 1, 40, 80
2, 11160, Note_off_c, 1, 47, 80
2, 11160, Note_on_c, 1, 47, 111
2, 11280, Note_off_c, 1, 47, 80
2, 11400, Note_on_c, 1, 47, 111
2, 11640, Note_off_c, 1, 47, 80
2, 11640, Note_on_c, 1, 47, 111
2, 11760, Note_off_c, 1, 47, 80
2, 11880, Note_on_c, 1, 47, 111
2, 12120, Note_off_c, 1, 47, 80
2, 12120, Note_on_c, 1, 47, 111
2, 12240, Note_off_c, 1, 47, 80
2, 12240, Note_on_c, 1, 40, 111
2, 12360, Note_on_c, 1, 47, 111
2, 12600, Note_off_c, 1, 40, 80
2, 12600, Note_off_c, 1, 47, 80
2, 12600, Note_on_c, 1, 47, 111
2, 12720, Note_off_c, 1, 47, 80
2, 12720, Note_on_c, 1, 40, 111
2, 12840, Note_on_c, 1, 52, 111
2, 13080, Note_off_c, 1, 40, 80
2, 13080, Note_off_c, 1, 52, 80
2, 13080, Note_on_c, 1, 52, 111
2, 13200, Note_off_c, 1, 52, 80
2, 13200, Note_on_c, 1, 45, 111
2, 13320, Note_on_c, 1, 52, 111
2, 13560, Note_off_c, 1, 45, 80
2, 13560, Note_off_c, 1, 52, 80
2, 13560, Note_on_c, 1, 52, 111
2, 13680, Note_off_c, 1, 52, 80
2, 13680, Note_on_c, 1, 44, 111
2, 13800, Note_on_c, 1, 56, 111
2, 14040, Note_off_c, 1, 44, 80
2, 14040, Note_off_c, 1, 56, 80
2, 14040, Note_on_c, 1, 56, 111
2, 14160, Note_off_c, 1, 56, 80
2, 14160, Note_on_c, 1, 49, 111
2, 14280, Note_on_c, 1, 56, 111
2, 14520, Note_off_c, 1, 49, 80
2, 14520, Note_off_c, 1, 56, 80
2, 14520, Note_on_c, 1, 56, 111
2, 14640, Note_off_c, 1, 56, 80
2, 14640, Note_on_c, 1, 58, 111
2, 14640, Note_on_c, 1, 54, 111
2, 14640, Note_on_c, 1, 52, 111
2, 14640, Note_on_c, 1, 49, 111
2, 14760, Note_off_c, 1, 58, 80
2, 14760, Note_off_c, 1, 54, 80
2, 14760, Note_off_c, 1, 52, 80
2, 14760, Note_off_c, 1, 49, 80
2, 14760, Note_on_c, 1, 58, 111
2, 14760, Note_on_c, 1, 54, 111
2, 14760, Note_on_c, 1, 52, 111
2, 14760, Note_on_c, 1, 49, 111
2, 14880, Note_off_c, 1, 58, 80
2, 14880, Note_off_c, 1, 54, 80
2, 14880, Note_off_c, 1, 52, 80
2, 14880, Note_off_c, 1, 49, 80
2, 14880, Note_on_c, 1, 58, 111
2, 14880, Note_on_c, 1, 54, 111
2, 14880, Note_on_c, 1, 52, 111
2, 14880, Note_on_c, 1, 49, 111
2, 15000, Note_off_c, 1, 58, 80
2, 15000, Note_off_c, 1, 54, 80
2, 15000, Note_off_c, 1, 52, 80
2, 15000, Note_off_c, 1, 49, 80
2, 15000, Note_on_c, 1, 58, 111
2, 15000, Note_on_c, 1, 54, 111
2, 15000, Note_on_c, 1, 52, 111
2, 15000, Note_on_c, 1, 49, 111
2, 15120, Note_off_c, 1, 58, 80
2, 15120, Note_off_c, 1, 54, 80
2, 15120, Note_off_c, 1, 52, 80
2, 15120, Note_off_c, 1, 49, 80
2, 15120, Note_on_c, 1, 58, 111
2, 15120, Note_on_c, 1, 54, 111
2, 15120, Note_on_c, 1, 52, 111
2, 15120, Note_on_c, 1, 48, 111
2, 15240, Note_off_c, 1, 58, 80
2, 15240, Note_off_c, 1, 54, 80
2, 15240, Note_off_c, 1, 52, 80
2, 15240, Note_off_c, 1, 48, 80
2, 15240, Note_on_c, 1, 58, 111
2, 15240, Note_on_c, 1, 54, 111
2, 15240, Note_on_c, 1, 52, 111
2, 15240, Note_on_c, 1, 48, 111
2, 15360, Note_off_c, 1, 58, 80
2, 15360, Note_off_c, 1, 54, 80
2, 15360, Note_off_c, 1, 52, 80
2, 15360, Note_off_c, 1, 48, 80
2, 15360, Note_on_c, 1, 58, 111
2, 15360, Note_on_c, 1, 54, 111
2, 15360, Note_on_c, 1, 52, 111
2, 15360, Note_on_c, 1, 48, 111
2, 15480, Note_off_c, 1, 58, 80
2, 15480, Note_off_c, 1, 54, 80
2, 15480, Note_off_c, 1, 52, 80
2, 15480, Note_off_c, 1, 48, 80
2, 15480, Note_on_c, 1, 58, 111
2, 15480, Note_on_c, 1, 54, 111
2, 15480, Note_on_c, 1, 52, 111
2, 15480, Note_on_c, 1, 48, 111
2, 15600, Note_off_c, 1, 58, 80
2, 15600, Note_off_c, 1, 54, 80
2, 15600, Note_off_c, 1, 52, 80
2, 15600, Note_off_c, 1, 48, 80
2, 15600, Note_on_c, 1, 59, 111
2, 15600, Note_on_c, 1, 56, 111
2, 15600, Note_on_c, 1, 52, 111
2, 15600, Note_on_c, 1, 47, 111
2, 16440, Note_off_c, 1, 59, 80
2, 16440, Note_off_c, 1, 56, 80
2, 16440, Note_off_c, 1, 52, 80
2, 16440, Note_off_c, 1, 47, 80
2, 16560, Note_on_c, 1, 54, 111
2, 16680, Note_off_c, 1, 54, 80
2, 16680, Note_on_c, 1, 59, 111
2, 16800, Note_off_c, 1, 59, 80
2, 16800, Note_on_c, 1, 47, 111
2, 16920, Note_off_c, 1, 47, 80
2, 16920, Note_on_c, 1, 59, 111
2, 17040, Note_off_c, 1, 59, 80
2, 17040, Note_on_c, 1, 49, 111
2, 17160, Note_off_c, 1, 49, 80
2, 17160, Note_on_c, 1, 56, 111
2, 17280, Note_off_c, 1, 56, 80
2, 17280, Note_on_c, 1, 44, 111
2, 17400, Note_off_c, 1, 44, 80
2, 17400, Note_on_c, 1, 56, 111
2, 17520, Note_off_c, 1, 56, 80
2, 17520, Note_on_c, 1, 51, 111
2, 17640, Note_off_c, 1, 51, 80
2, 17640, Note_on_c, 1, 56, 111
2, 17760, Note_off_c, 1, 56, 80
2, 17760, Note_on_c, 1, 44, 111
2, 17880, Note_off_c, 1, 44, 80
2, 17880, Note_on_c, 1, 56, 111
2, 18000, Note_off_c, 1, 56, 80
2, 18000, Note_on_c, 1, 45, 111
2, 18120, Note_off_c, 1, 45, 80
2, 18120, Note_on_c, 1, 52, 111
2, 18240, Note_off_c, 1, 52, 80
2, 18240, Note_on_c, 1, 40, 111
2, 18360, Note_off_c, 1, 40, 80
2, 18360, Note_on_c, 1, 52, 111
2, 18480, Note_off_c, 1, 52, 80
2, 18480, Note_on_c, 1, 47, 111
2, 18600, Note_off_c, 1, 47, 80
2, 18600, Note_on_c, 1, 52, 111
2, 18720, Note_off_c, 1, 52, 80
2, 18720, Note_on_c, 1, 40, 111
2, 18840, Note_off_c, 1, 40, 80
2, 18840, Note_on_c, 1, 52, 111
2, 18960, Note_off_c, 1, 52, 80
2, 18960, Note_on_c, 1, 47, 111
2, 19080, Note_off_c, 1, 47, 80
2, 19080, Note_on_c, 1, 52, 111
2, 19200, Note_off_c, 1, 52, 80
2, 19200, Note_on_c, 1, 40, 111
2, 19320, Note_on_c, 1, 47, 111
2, 19440, Note_on_c, 1, 52, 111
2, 19800, Note_off_c, 1, 47, 80
2, 19840, Note_off_c, 1, 40, 80
2, 19860, Note_off_c, 1, 52, 80
2, 19860, End_track
3, 0, Start_track
3, 0, Title_t, "Right Hand"
3, 0, Control_c, 0, 100, 0
3, 0, Control_c, 0, 101, 0
3, 0, Control_c, 0, 6, 12
3, 0, Pitch_bend_c, 0, 8192
3, 0, Control_c, 0, 101, 0
3, 0, Control_c, 0, 100, 1
3, 0, Control_c, 0, 6, 64
3, 0, Control_c, 0, 38, 0
3, 0, Control_c, 0, 101, 127
3, 0, Control_c, 0, 100, 127
3, 0, Control_c, 0, 101, 0
3, 0, Control_c, 0, 100, 2
3, 0, Control_c, 0, 6, 64
3, 0, Control_c, 0, 101, 127
3, 0, Control_c, 0, 100, 127
3, 0, Program_c, 0, 0
3, 0, Control_c, 0, 0, 0
3, 0, Control_c, 0, 7, 127
3, 0, Control_c, 0, 10, 64
3, 0, Control_c, 0, 93, 0
3, 0, Control_c, 0, 91, 0
3, 0, Control_c, 0, 92, 0
3, 0, Control_c, 0, 95, 0
3, 0, Note_on_c, 0, 59, 111
3, 240, Note_off_c, 0, 59, 80
3, 240, Note_on_c, 0, 64, 111
3, 240, Note_on_c, 0, 56, 111
3, 360, Note_off_c, 0, 56, 80
3, 360, Note_on_c, 0, 59, 111
3, 480, Note_off_c, 0, 64, 80
3, 480, Note_off_c, 0, 59, 80
3, 480, Note_on_c, 0, 63, 111
3, 480, Note_on_c, 0, 56, 111
3, 600, Note_off_c, 0, 63, 80
3, 600, Note_off_c, 0, 56, 80
3, 600, Note_on_c, 0, 64, 111
3, 600, Note_on_c, 0, 59, 111
3, 720, Note_off_c, 0, 64, 80
3, 720, Note_off_c, 0, 59, 80
3, 720, Note_on_c, 0, 66, 111
3, 720, Note_on_c, 0, 63, 111
3, 720, Note_on_c, 0, 57, 111
3, 840, Note_off_c, 0, 57, 80
3, 840, Note_on_c, 0, 59, 111
3, 960, Note_off_c, 0, 59, 80
3, 960, Note_on_c, 0, 57, 111
3, 1080, Note_off_c, 0, 57, 80
3, 1080, Note_on_c, 0, 59, 111
3, 1200, Note_off_c, 0, 66, 80
3, 1200, Note_off_c, 0, 59, 80
3, 1200, Note_on_c, 0, 57, 111
3, 1320, Note_off_c, 0, 57, 80
3, 1320, Note_on_c, 0, 68, 111
3, 1320, Note_on_c, 0, 59, 111
3, 1440, Note_off_c, 0, 63, 80
3, 1440, Note_off_c, 0, 68, 80
3, 1440, Note_off_c, 0, 59, 80
3, 1440, Note_on_c, 0, 68, 111
3, 1440, Note_on_c, 0, 63, 111
3, 1440, Note_on_c, 0, 57, 111
3, 1560, Note_off_c, 0, 68, 80
3, 1560, Note_off_c, 0, 57, 80
3, 1560, Note_on_c, 0, 66, 111
3, 1560, Note_on_c, 0, 59, 111
3, 1680, Note_off_c, 0, 63, 80
3, 1680, Note_off_c, 0, 66, 80
3, 1680, Note_off_c, 0, 59, 80
3, 1680, Note_on_c, 0, 68, 111
3, 1680, Note_on_c, 0, 64, 111
3, 1680, Note_on_c, 0, 56, 111
3, 1800, Note_off_c, 0, 56, 80
3, 1800, Note_on_c, 0, 59, 111
3, 1920, Note_off_c, 0, 59, 80
3, 1920, Note_on_c, 0, 56, 111
3, 2040, Note_off_c, 0, 64, 80
3, 2040, Note_off_c, 0, 56, 80
3, 2040, Note_on_c, 0, 59, 111
3, 2160, Note_off_c, 0, 68, 80
3, 2160, Note_off_c, 0, 59, 80
3, 2160, Note_on_c, 0, 56, 111
3, 2280, Note_off_c, 0, 56, 80
3, 2280, Note_on_c, 0, 69, 111
3, 2280, Note_on_c, 0, 64, 111
3, 2400, Note_off_c, 0, 69, 80
3, 2400, Note_off_c, 0, 64, 80
3, 2400, Note_on_c, 0, 69, 111
3, 2400, Note_on_c, 0, 59, 111
3, 2520, Note_off_c, 0, 69, 80
3, 2520, Note_off_c, 0, 59, 80
3, 2520, Note_on_c, 0, 68, 111
3, 2520, Note_on_c, 0, 64, 111
3, 2640, Note_off_c, 0, 68, 80
3, 2640, Note_off_c, 0, 64, 80
3, 2640, Note_on_c, 0, 73, 111
3, 2640, Note_on_c, 0, 63, 111
3, 2760, Note_off_c, 0, 63, 80
3, 2760, Note_on_c, 0, 69, 111
3, 2880, Note_off_c, 0, 69, 80
3, 2880, Note_on_c, 0, 59, 111
3, 3000, Note_off_c, 0, 73, 80
3, 3000, Note_off_c, 0, 59, 80
3, 3000, Note_on_c, 0, 71, 111
3, 3000, Note_on_c, 0, 63, 111
3, 3120, Note_off_c, 0, 71, 80
3, 3120, Note_off_c, 0, 63, 80
3, 3120, Note_on_c, 0, 69, 111
3, 3120, Note_on_c, 0, 59, 111
3, 3240, Note_off_c, 0, 69, 80
3, 3240, Note_off_c, 0, 59, 80
3, 3240, Note_on_c, 0, 68, 111
3, 3240, Note_on_c, 0, 64, 111
3, 3360, Note_off_c, 0, 68, 80
3, 3360, Note_off_c, 0, 64, 80
3, 3360, Note_on_c, 0, 63, 111
3, 3360, Note_on_c, 0, 56, 111
3, 3480, Note_off_c, 0, 63, 80
3, 3480, Note_off_c, 0, 56, 80
3, 3480, Note_on_c, 0, 64, 111
3, 3480, Note_on_c, 0, 59, 111
3, 3600, Note_off_c, 0, 64, 80
3, 3600, Note_off_c, 0, 59, 80
3, 3600, Note_on_c, 0, 66, 111
3, 3600, Note_on_c, 0, 61, 111
3, 3600, Note_on_c, 0, 57, 111
3, 3720, Note_off_c, 0, 61, 80
3, 3720, Note_off_c, 0, 57, 80
3, 3720, Note_on_c, 0, 63, 111
3, 3720, Note_on_c, 0, 59, 111
3, 3840, Note_off_c, 0, 63, 80
3, 3840, Note_off_c, 0, 59, 80
3, 3840, Note_on_c, 0, 61, 111
3, 3840, Note_on_c, 0, 57, 111
3, 3960, Note_off_c, 0, 61, 80
3, 3960, Note_off_c, 0, 57, 80
3, 3960, Note_on_c, 0, 63, 111
3, 3960, Note_on_c, 0, 59, 111
3, 4080, Note_off_c, 0, 66, 80
3, 4080, Note_off_c, 0, 63, 80
3, 4080, Note_off_c, 0, 59, 80
3, 4080, Note_on_c, 0, 61, 111
3, 4080, Note_on_c, 0, 57, 111
3, 4200, Note_off_c, 0, 61, 80
3, 4200, Note_off_c, 0, 57, 80
3, 4200, Note_on_c, 0, 68, 111
3, 4200, Note_on_c, 0, 63, 111
3, 4200, Note_on_c, 0, 59, 111
3, 4320, Note_off_c, 0, 68, 80
3, 4320, Note_off_c, 0, 63, 80
3, 4320, Note_off_c, 0, 59, 80
3, 4320, Note_on_c, 0, 68, 111
3, 4320, Note_on_c, 0, 61, 111
3, 4320, Note_on_c, 0, 57, 111
3, 4440, Note_off_c, 0, 68, 80
3, 4440, Note_off_c, 0, 61, 80
3, 4440, Note_off_c, 0, 57, 80
3, 4440, Note_on_c, 0, 66, 111
3, 4440, Note_on_c, 0, 63, 111
3, 4440, Note_on_c, 0, 59, 111
3, 4560, Note_off_c, 0, 66, 80
3, 4560, Note_off_c, 0, 63, 80
3, 4560, Note_off_c, 0, 59, 80
3, 4560, Note_on_c, 0, 64, 111
3, 4560, Note_on_c, 0, 56, 111
3, 4680, Note_off_c, 0, 56, 80
3, 4680, Note_on_c, 0, 59, 111
3, 4800, Note_off_c, 0, 59, 80
3, 4800, Note_on_c, 0, 56, 111
3, 4920, Note_off_c, 0, 64, 80
3, 4920, Note_off_c, 0, 56, 80
3, 4920, Note_on_c, 0, 59, 111
3, 5040, Note_off_c, 0, 59, 80
3, 5040, Note_on_c, 0, 68, 111
3, 5040, Note_on_c, 0, 62, 111
3, 5160, Note_off_c, 0, 68, 80
3, 5160, Note_off_c, 0, 62, 80
3, 5160, Note_on_c, 0, 69, 111
3, 5160, Note_on_c, 0, 64, 111
3, 5280, Note_off_c, 0, 69, 80
3, 5280, Note_off_c, 0, 64, 80
3, 5280, Note_on_c, 0, 66, 111
3, 5280, Note_on_c, 0, 62, 111
3, 5400, Note_off_c, 0, 66, 80
3, 5400, Note_off_c, 0, 62, 80
3, 5400, Note_on_c, 0, 68, 111
3, 5400, Note_on_c, 0, 64, 111
3, 5520, Note_off_c, 0, 68, 80
3, 5520, Note_off_c, 0, 64, 80
3, 5520, Note_on_c, 0, 69, 111
3, 5520, Note_on_c, 0, 61, 111
3, 5640, Note_off_c, 0, 69, 80
3, 5640, Note_off_c, 0, 61, 80
3, 5640, Note_on_c, 0, 71, 111
3, 5640, Note_on_c, 0, 64, 111
3, 5760, Note_off_c, 0, 71, 80
3, 5760, Note_off_c, 0, 64, 80
3, 5760, Note_on_c, 0, 68, 111
3, 5760, Note_on_c, 0, 61, 111
3, 5880, Note_off_c, 0, 68, 80
3, 5880, Note_off_c, 0, 61, 80
3, 5880, Note_on_c, 0, 69, 111
3, 5880, Note_on_c, 0, 64, 111
3, 6000, Note_off_c, 0, 69, 80
3, 6000, Note_off_c, 0, 64, 80
3, 6000, Note_on_c, 0, 73, 111
3, 6000, Note_on_c, 0, 61, 111
3, 6120, Note_off_c, 0, 61, 80
3, 6120, Note_on_c, 0, 64, 111
3, 6240, Note_off_c, 0, 73, 80
3, 6240, Note_off_c, 0, 64, 80
3, 6240, Note_on_c, 0, 66, 111
3, 6240, Note_on_c, 0, 61, 111
3, 6360, Note_off_c, 0, 61, 80
3, 6360, Note_on_c, 0, 64, 111
3, 6480, Note_off_c, 0, 64, 80
3, 6480, Note_on_c, 0, 59, 111
3, 6600, Note_off_c, 0, 66, 80
3, 6600, Note_off_c, 0, 59, 80
3, 6600, Note_on_c, 0, 64, 111
3, 6660, Note_off_c, 0, 64, 80
3, 6720, Note_on_c, 0, 70, 111
3, 6720, Note_on_c, 0, 68, 111
3, 6720, Note_on_c, 0, 59, 111
3, 6780, Note_off_c, 0, 70, 80
3, 6840, Note_off_c, 0, 68, 80
3, 6840, Note_off_c, 0, 59, 80
3, 6840, Note_on_c, 0, 64, 111
3, 6840, Note_on_c, 0, 66, 111
3, 6960, Note_off_c, 0, 64, 80
3, 6960, Note_on_c, 0, 58, 111
3, 7080, Note_off_c, 0, 66, 80
3, 7080, Note_off_c, 0, 58, 80
3, 7080, Note_on_c, 0, 64, 111
3, 7140, Note_off_c, 0, 64, 80
3, 7200, Note_on_c, 0, 70, 111
3, 7200, Note_on_c, 0, 68, 111
3, 7200, Note_on_c, 0, 58, 111
3, 7260, Note_off_c, 0, 70, 80
3, 7320, Note_off_c, 0, 68, 80
3, 7320, Note_off_c, 0, 58, 80
3, 7320, Note_on_c, 0, 64, 111
3, 7320, Note_on_c, 0, 66, 111
3, 7440, Note_off_c, 0, 64, 80
3, 7440, Note_off_c, 0, 66, 80
3, 7440, Note_on_c, 0, 71, 111
3, 7440, Note_on_c, 0, 63, 111
3, 7440, Note_on_c, 0, 57, 111
3, 7560, Note_off_c, 0, 57, 80
3, 7560, Note_on_c, 0, 59, 111
3, 7680, Note_off_c, 0, 59, 80
3, 7680, Note_on_c, 0, 57, 111
3, 7800, Note_off_c, 0, 71, 80
3, 7800, Note_off_c, 0, 63, 80
3, 7800, Note_off_c, 0, 57, 80
3, 7800, Note_on_c, 0, 59, 111
3, 7920, Note_off_c, 0, 59, 80
3, 7920, Note_on_c, 0, 68, 111
3, 7920, Note_on_c, 0, 64, 111
3, 7920, Note_on_c, 0, 56, 111
3, 8040, Note_off_c, 0, 64, 80
3, 8040, Note_off_c, 0, 56, 80
3, 8040, Note_on_c, 0, 59, 111
3, 8160, Note_off_c, 0, 59, 80
3, 8160, Note_on_c, 0, 63, 111
3, 8160, Note_on_c, 0, 56, 111
3, 8280, Note_off_c, 0, 68, 80
3, 8280, Note_off_c, 0, 63, 80
3, 8280, Note_off_c, 0, 56, 80
3, 8280, Note_on_c, 0, 64, 111
3, 8280, Note_on_c, 0, 59, 111
3, 8400, Note_off_c, 0, 64, 80
3, 8400, Note_off_c, 0, 59, 80
3, 8400, Note_on_c, 0, 66, 111
3, 8400, Note_on_c, 0, 63, 111
3, 8400, Note_on_c, 0, 57, 111
3, 8520, Note_off_c, 0, 57, 80
3, 8520, Note_on_c, 0, 59, 111
3, 8640, Note_off_c, 0, 59, 80
3, 8640, Note_on_c, 0, 57, 111
3, 8760, Note_off_c, 0, 57, 80
3, 8760, Note_on_c, 0, 59, 111
3, 8880, Note_off_c, 0, 66, 80
3, 8880, Note_off_c, 0, 59, 80
3, 8880, Note_on_c, 0, 57, 111
3, 9000, Note_off_c, 0, 57, 80
3, 9000, Note_on_c, 0, 68, 111
3, 9000, Note_on_c, 0, 59, 111
3, 9120, Note_off_c, 0, 63, 80
3, 9120, Note_off_c, 0, 68, 80
3, 9120, Note_off_c, 0, 59, 80
3, 9120, Note_on_c, 0, 68, 111
3, 9120, Note_on_c, 0, 63, 111
3, 9120, Note_on_c, 0, 57, 111
3, 9240, Note_off_c, 0, 68, 80
3, 9240, Note_off_c, 0, 57, 80
3, 9240, Note_on_c, 0, 66, 111
3, 9240, Note_on_c, 0, 59, 111
3, 9360, Note_off_c, 0, 63, 80
3, 9360, Note_off_c, 0, 66, 80
3, 9360, Note_off_c, 0, 59, 80
3, 9360, Note_on_c, 0, 68, 111
3, 9360, Note_on_c, 0, 64, 111
3, 9360, Note_on_c, 0, 56, 111
3, 9480, Note_off_c, 0, 56, 80
3, 9480, Note_on_c, 0, 59, 111
3, 9600, Note_off_c, 0, 59, 80
3, 9600, Note_on_c, 0, 56, 111
3, 9720, Note_off_c, 0, 64, 80
3, 9720, Note_off_c, 0, 56, 80
3, 9720, Note_on_c, 0, 59, 111
3, 9840, Note_off_c, 0, 68, 80
3, 9840, Note_off_c, 0, 59, 80
3, 9840, Note_on_c, 0, 56, 111
3, 9960, Note_off_c, 0, 56, 80
3, 9960, Note_on_c, 0, 69, 111
3, 9960, Note_on_c, 0, 64, 111
3, 10080, Note_off_c, 0, 69, 80
3, 10080, Note_off_c, 0, 64, 80
3, 10080, Note_on_c, 0, 69, 111
3, 10080, Note_on_c, 0, 59, 111
3, 10200, Note_off_c, 0, 69, 80
3, 10200, Note_off_c, 0, 59, 80
3, 10200, Note_on_c, 0, 68, 111
3, 10200, Note_on_c, 0, 64, 111
3, 10320, Note_off_c, 0, 68, 80
3, 10320, Note_off_c, 0, 64, 80
3, 10320, Note_on_c, 0, 73, 111
3, 10320, Note_on_c, 0, 63, 111
3, 10440, Note_off_c, 0, 63, 80
3, 10440, Note_on_c, 0, 69, 111
3, 10560, Note_off_c, 0, 69, 80
3, 10560, Note_on_c, 0, 59, 111
3, 10680, Note_off_c, 0, 73, 80
3, 10680, Note_off_c, 0, 59, 80
3, 10680, Note_on_c, 0, 71, 111
3, 10680, Note_on_c, 0, 63, 111
3, 10800, Note_off_c, 0, 71, 80
3, 10800, Note_off_c, 0, 63, 80
3, 10800, Note_on_c, 0, 69, 111
3, 10800, Note_on_c, 0, 59, 111
3, 10920, Note_off_c, 0, 69, 80
3, 10920, Note_off_c, 0, 59, 80
3, 10920, Note_on_c, 0, 68, 111
3, 10920, Note_on_c, 0, 64, 111
3, 11040, Note_off_c, 0, 68, 80
3, 11040, Note_off_c, 0, 64, 80
3, 11040, Note_on_c, 0, 63, 111
3, 11040, Note_on_c, 0, 56, 111
3, 11160, Note_off_c, 0, 63, 80
3, 11160, Note_off_c, 0, 56, 80
3, 11160, Note_on_c, 0, 64, 111
3, 11160, Note_on_c, 0, 59, 111
3, 11280, Note_off_c, 0, 64, 80
3, 11280, Note_off_c, 0, 59, 80
3, 11280, Note_on_c, 0, 66, 111
3, 11280, Note_on_c, 0, 61, 111
3, 11280, Note_on_c, 0, 57, 111
3, 11400, Note_off_c, 0, 61, 80
3, 11400, Note_off_c, 0, 57, 80
3, 11400, Note_on_c, 0, 63, 111
3, 11400, Note_on_c, 0, 59, 111
3, 11520, Note_off_c, 0, 63, 80
3, 11520, Note_off_c, 0, 59, 80
3, 11520, Note_on_c, 0, 61, 111
3, 11520, Note_on_c, 0, 57, 111
3, 11640, Note_off_c, 0, 61, 80
3, 11640, Note_off_c, 0, 57, 80
3, 11640, Note_on_c, 0, 63, 111
3, 11640, Note_on_c, 0, 59, 111
3, 11760, Note_off_c, 0, 66, 80
3, 11760, Note_off_c, 0, 63, 80
3, 11760, Note_off_c, 0, 59, 80
3, 11760, Note_on_c, 0, 61, 111
3, 11760, Note_on_c, 0, 57, 111
3, 11880, Note_off_c, 0, 61, 80
3, 11880, Note_off_c, 0, 57, 80
3, 11880, Note_on_c, 0, 68, 111
3, 11880, Note_on_c, 0, 63, 111
3, 11880, Note_on_c, 0, 59, 111
3, 12000, Note_off_c, 0, 68, 80
3, 12000, Note_off_c, 0, 63, 80
3, 12000, Note_off_c, 0, 59, 80
3, 12000, Note_on_c, 0, 68, 111
3, 12000, Note_on_c, 0, 61, 111
3, 12000, Note_on_c, 0, 57, 111
3, 12120, Note_off_c, 0, 68, 80
3, 12120, Note_off_c, 0, 61, 80
3, 12120, Note_off_c, 0, 57, 80
3, 12120, Note_on_c, 0, 66, 111
3, 12120, Note_on_c, 0, 63, 111
3, 12120, Note_on_c, 0, 59, 111
3, 12240, Note_off_c, 0, 66, 80
3, 12240, Note_off_c, 0, 63, 80
3, 12240, Note_off_c, 0, 59, 80
3, 12240, Note_on_c, 0, 64, 111
3, 12240, Note_on_c, 0, 56, 111
3, 12360, Note_off_c, 0, 56, 80
3, 12360, Note_on_c, 0, 59, 111
3, 12480, Note_off_c, 0, 59, 80
3, 12480, Note_on_c, 0, 56, 111
3, 12600, Note_off_c, 0, 64, 80
3, 12600, Note_off_c, 0, 56, 80
3, 12600, Note_on_c, 0, 59, 111
3, 12720, Note_off_c, 0, 59, 80
3, 12720, Note_on_c, 0, 71, 111
3, 12720, Note_on_c, 0, 66, 111
3, 12720, Note_on_c, 0, 62, 111
3, 12840, Note_off_c, 0, 71, 80
3, 12840, Note_off_c, 0, 66, 80
3, 12840, Note_off_c, 0, 62, 80
3, 12840, Note_on_c, 0, 73, 111
3, 12840, Note_on_c, 0, 68, 111
3, 12840, Note_on_c, 0, 64, 111
3, 12960, Note_off_c, 0, 73, 80
3, 12960, Note_off_c, 0, 68, 80
3, 12960, Note_off_c, 0, 64, 80
3, 12960, Note_on_c, 0, 73, 111
3, 12960, Note_on_c, 0, 66, 111
3, 12960, Note_on_c, 0, 62, 111
3, 13080, Note_off_c, 0, 73, 80
3, 13080, Note_off_c, 0, 66, 80
3, 13080, Note_off_c, 0, 62, 80
3, 13080, Note_on_c, 0, 71, 111
3, 13080, Note_on_c, 0, 68, 111
3, 13080, Note_on_c, 0, 64, 111
3, 13200, Note_off_c, 0, 71, 80
3, 13200, Note_off_c, 0, 68, 80
3, 13200, Note_off_c, 0, 64, 80
3, 13200, Note_on_c, 0, 69, 111
3, 13200, Note_on_c, 0, 61, 111
3, 13320, Note_off_c, 0, 69, 80
3, 13320, Note_off_c, 0, 61, 80
3, 13320, Note_on_c, 0, 71, 111
3, 13320, Note_on_c, 0, 64, 111
3, 13440, Note_off_c, 0, 71, 80
3, 13440, Note_off_c, 0, 64, 80
3, 13440, Note_on_c, 0, 68, 111
3, 13440, Note_on_c, 0, 61, 111
3, 13560, Note_off_c, 0, 68, 80
3, 13560, Note_off_c, 0, 61, 80
3, 13560, Note_on_c, 0, 69, 111
3, 13560, Note_on_c, 0, 64, 111
3, 13680, Note_off_c, 0, 69, 80
3, 13680, Note_off_c, 0, 64, 80
3, 13680, Note_on_c, 0, 75, 111
3, 13680, Note_on_c, 0, 72, 111
3, 13680, Note_on_c, 0, 66, 111
3, 13800, Note_off_c, 0, 75, 80
3, 13800, Note_off_c, 0, 66, 80
3, 13800, Note_on_c, 0, 76, 111
3, 13800, Note_on_c, 0, 68, 111
3, 13920, Note_off_c, 0, 72, 80
3, 13920, Note_off_c, 0, 76, 80
3, 13920, Note_off_c, 0, 68, 80
3, 13920, Note_on_c, 0, 76, 111
3, 13920, Note_on_c, 0, 70, 111
3, 13920, Note_on_c, 0, 66, 111
3, 14040, Note_off_c, 0, 76, 80
3, 14040, Note_off_c, 0, 70, 80
3, 14040, Note_off_c, 0, 66, 80
3, 14040, Note_on_c, 0, 75, 111
3, 14040, Note_on_c, 0, 72, 111
3, 14040, Note_on_c, 0, 68, 111
3, 14160, Note_off_c, 0, 75, 80
3, 14160, Note_off_c, 0, 72, 80
3, 14160, Note_off_c, 0, 68, 80
3, 14160, Note_on_c, 0, 73, 111
3, 14160, Note_on_c, 0, 64, 111
3, 14280, Note_off_c, 0, 73, 80
3, 14280, Note_off_c, 0, 64, 80
3, 14280, Note_on_c, 0, 75, 111
3, 14280, Note_on_c, 0, 68, 111
3, 14400, Note_off_c, 0, 75, 80
3, 14400, Note_off_c, 0, 68, 80
3, 14400, Note_on_c, 0, 72, 111
3, 14400, Note_on_c, 0, 64, 111
3, 14520, Note_off_c, 0, 72, 80
3, 14520, Note_off_c, 0, 64, 80
3, 14520, Note_on_c, 0, 73, 111
3, 14520, Note_on_c, 0, 68, 111
3, 14640, Note_off_c, 0, 73, 80
3, 14640, Note_off_c, 0, 68, 80
3, 14640, Note_on_c, 0, 76, 111
3, 14640, Note_on_c, 0, 70, 111
3, 14640, Note_on_c, 0, 64, 111
3, 14760, Note_off_c, 0, 76, 80
3, 14760, Note_off_c, 0, 70, 80
3, 14760, Note_off_c, 0, 64, 80
3, 14760, Note_on_c, 0, 78, 111
3, 14760, Note_on_c, 0, 70, 111
3, 14760, Note_on_c, 0, 66, 111
3, 14880, Note_off_c, 0, 78, 80
3, 14880, Note_off_c, 0, 70, 80
3, 14880, Note_off_c, 0, 66, 80
3, 14880, Note_on_c, 0, 75, 111
3, 14880, Note_on_c, 0, 70, 111
3, 14880, Note_on_c, 0, 63, 111
3, 15000, Note_off_c, 0, 75, 80
3, 15000, Note_off_c, 0, 70, 80
3, 15000, Note_off_c, 0, 63, 80
3, 15000, Note_on_c, 0, 76, 111
3, 15000, Note_on_c, 0, 70, 111
3, 15000, Note_on_c, 0, 64, 111
3, 15120, Note_off_c, 0, 76, 80
3, 15120, Note_off_c, 0, 70, 80
3, 15120, Note_off_c, 0, 64, 80
3, 15120, Note_on_c, 0, 78, 111
3, 15120, Note_on_c, 0, 70, 111
3, 15120, Note_on_c, 0, 66, 111
3, 15240, Note_off_c, 0, 78, 80
3, 15240, Note_off_c, 0, 70, 80
3, 15240, Note_off_c, 0, 66, 80
3, 15240, Note_on_c, 0, 80, 111
3, 15240, Note_on_c, 0, 70, 111
3, 15240, Note_on_c, 0, 68, 111
3, 15360, Note_off_c, 0, 80, 80
3, 15360, Note_off_c, 0, 70, 80
3, 15360, Note_off_c, 0, 68, 80
3, 15360, Note_on_c, 0, 64, 111
3, 15360, Note_on_c, 0, 76, 111
3, 15360, Note_on_c, 0, 70, 111
3, 15480, Note_off_c, 0, 64, 80
3, 15480, Note_off_c, 0, 76, 80
3, 15480, Note_off_c, 0, 70, 80
3, 15480, Note_on_c, 0, 78, 111
3, 15480, Note_on_c, 0, 70, 111
3, 15480, Note_on_c, 0, 66, 111
3, 15600, Note_off_c, 0, 78, 80
3, 15600, Note_off_c, 0, 70, 80
3, 15600, Note_off_c, 0, 66, 80
3, 15600, Note_on_c, 0, 80, 111
3, 15600, Note_on_c, 0, 76, 111
3, 15600, Note_on_c, 0, 68, 111
3, 15720, Note_off_c, 0, 68, 80
3, 15720, Note_on_c, 0, 71, 111
3, 15840, Note_off_c, 0, 71, 80
3, 15840, Note_on_c, 0, 68, 111
3, 15960, Note_off_c, 0, 76, 80
3, 15960, Note_off_c, 0, 68, 80
3, 15960, Note_on_c, 0, 71, 111
3, 16080, Note_off_c, 0, 80, 80
3, 16080, Note_off_c, 0, 71, 80
3, 16080, Note_on_c, 0, 68, 111
3, 16200, Note_off_c, 0, 68, 80
3, 16200, Note_on_c, 0, 78, 111
3, 16200, Note_on_c, 0, 71, 111
3, 16320, Note_off_c, 0, 78, 80
3, 16320, Note_off_c, 0, 71, 80
3, 16320, Note_on_c, 0, 76, 111
3, 16320, Note_on_c, 0, 68, 111
3, 16440, Note_off_c, 0, 76, 80
3, 16440, Note_off_c, 0, 68, 80
3, 16440, Note_on_c, 0, 73, 111
3, 16440, Note_on_c, 0, 71, 111
3, 16560, Note_off_c, 0, 73, 80
3, 16560, Note_off_c, 0, 71, 80
3, 16560, Note_on_c, 0, 75, 111
3, 16560, Note_on_c, 0, 63, 111
3, 16680, Note_off_c, 0, 63, 80
3, 16680, Note_on_c, 0, 66, 111
3, 16800, Note_off_c, 0, 66, 80
3, 16800, Note_on_c, 0, 63, 111
3, 16920, Note_off_c, 0, 75, 80
3, 16920, Note_off_c, 0, 63, 80
3, 16920, Note_on_c, 0, 66, 111
3, 17040, Note_off_c, 0, 66, 80
3, 17040, Note_on_c, 0, 64, 111
3, 17040, Note_on_c, 0, 76, 111
3, 17160, Note_off_c, 0, 64, 80
3, 17160, Note_off_c, 0, 76, 80
3, 17160, Note_on_c, 0, 75, 111
3, 17160, Note_on_c, 0, 68, 111
3, 17280, Note_off_c, 0, 75, 80
3, 17280, Note_off_c, 0, 68, 80
3, 17280, Note_on_c, 0, 64, 111
3, 17280, Note_on_c, 0, 73, 111
3, 17400, Note_off_c, 0, 64, 80
3, 17400, Note_off_c, 0, 73, 80
3, 17400, Note_on_c, 0, 68, 111
3, 17520, Note_off_c, 0, 68, 80
3, 17520, Note_on_c, 0, 59, 111
3, 17520, Note_on_c, 0, 71, 111
3, 17640, Note_off_c, 0, 59, 80
3, 17640, Note_on_c, 0, 63, 111
3, 17760, Note_off_c, 0, 63, 80
3, 17760, Note_on_c, 0, 59, 111
3, 17880, Note_off_c, 0, 71, 80
3, 17880, Note_off_c, 0, 59, 80
3, 17880, Note_on_c, 0, 63, 111
3, 18000, Note_off_c, 0, 63, 80
3, 18000, Note_on_c, 0, 73, 111
3, 18000, Note_on_c, 0, 61, 111
3, 18120, Note_off_c, 0, 73, 80
3, 18120, Note_off_c, 0, 61, 80
3, 18120, Note_on_c, 0, 71, 111
3, 18120, Note_on_c, 0, 64, 111
3, 18240, Note_off_c, 0, 71, 80
3, 18240, Note_off_c, 0, 64, 80
3, 18240, Note_on_c, 0, 69, 111
3, 18240, Note_on_c, 0, 61, 111
3, 18360, Note_off_c, 0, 69, 80
3, 18360, Note_off_c, 0, 61, 80
3, 18360, Note_on_c, 0, 64, 111
3, 18480, Note_off_c, 0, 64, 80
3, 18480, Note_on_c, 0, 68, 111
3, 18480, Note_on_c, 0, 56, 111
3, 18600, Note_off_c, 0, 56, 80
3, 18600, Note_on_c, 0, 59, 111
3, 18720, Note_off_c, 0, 59, 80
3, 18720, Note_on_c, 0, 56, 111
3, 18840, Note_off_c, 0, 56, 80
3, 18840, Note_on_c, 0, 59, 111
3, 18960, Note_off_c, 0, 59, 80
3, 18960, Note_on_c, 0, 56, 111
3, 19080, Note_off_c, 0, 56, 80
3, 19080, Note_on_c, 0, 59, 111
3, 19200, Note_off_c, 0, 68, 80
3, 19200, Note_off_c, 0, 59, 80
3, 19200, Note_on_c, 0, 56, 111
3, 19320, Note_off_c, 0, 56, 80
3, 19320, Note_on_c, 0, 59, 111
3, 19380, Note_off_c, 0, 59, 80
3, 19380, Note_on_c, 0, 68, 111
3, 19380, Note_on_c, 0, 66, 111
3, 19440, Note_off_c, 0, 68, 80
3, 19440, Note_off_c, 0, 66, 80
3, 19440, Note_on_c, 0, 64, 111
3, 19440, Note_on_c, 0, 56, 111
3, 19860, Note_off_c, 0, 64, 80
3, 19860, Note_off_c, 0, 56, 80
3, 19860, End_track
0, 0, End_of_file
